<svg width="135" height="27" viewBox="0 0 135 27" fill="none" xmlns="http://www.w3.org/2000/svg">
<g clip-path="url(#clip0_1_1833)">
<path d="M13.4435 16.5094L9.76463 20.0139C8.2161 21.4884 5.78516 21.5233 4.19617 20.099C4.18894 20.0918 4.18027 20.0852 4.17353 20.078L1.44349 17.5918C-0.368999 15.9405 -0.49134 13.1421 1.17279 11.3411C2.83644 9.54199 5.6556 9.42055 7.47001 11.0724L13.444 16.5094H13.4435Z" fill="#4094F7"/>
<path d="M30.6291 12.3992L16.5979 25.7665C15.7362 26.5869 14.6246 27 13.5115 27C12.3983 27 11.3531 26.6132 10.5001 25.8358L4.19568 20.0986C5.78419 21.5229 8.21561 21.4884 9.76414 20.0135L13.4431 16.509L24.4576 6.01648C26.2335 4.32495 29.0541 4.38232 30.7582 6.14509C32.4623 7.90787 32.4045 10.7076 30.6287 12.3992H30.6291Z" fill="#029CBF"/>
<path style="mix-blend-mode:multiply" opacity="0.5" d="M8.63661 19.4316C7.50422 20.5097 5.90126 20.8148 4.49963 20.3457C6.08188 21.5128 8.31149 21.3971 9.76417 20.0135L13.4431 16.509L12.5539 15.6995L12.3155 15.9266L8.63661 19.4311V19.4316Z" fill="url(#paint0_linear_1_1833)"/>
<path d="M13.4436 9.90824C16.2 9.90824 18.4345 7.6902 18.4345 4.95412C18.4345 2.21803 16.2 0 13.4436 0C10.6872 0 8.45264 2.21803 8.45264 4.95412C8.45264 7.6902 10.6872 9.90824 13.4436 9.90824Z" fill="#4094F7"/>
</g>
<path d="M54.352 16.856L56.464 11.18H57.892L54.46 20H54.292L51.892 14.288L49.504 19.988H49.336L45.904 11.18H47.332L49.444 16.856L51.868 11.132H51.94L54.352 16.856ZM64.7756 20.12C63.9756 20.12 63.2356 19.936 62.5556 19.568C61.8836 19.192 61.3476 18.66 60.9476 17.972C60.5476 17.284 60.3476 16.484 60.3476 15.572C60.3476 14.652 60.5476 13.852 60.9476 13.172C61.3476 12.484 61.8836 11.956 62.5556 11.588C63.2356 11.22 63.9756 11.036 64.7756 11.036C65.5756 11.036 66.3116 11.22 66.9836 11.588C67.6636 11.956 68.2036 12.484 68.6036 13.172C69.0036 13.852 69.2036 14.652 69.2036 15.572C69.2036 16.484 69.0036 17.284 68.6036 17.972C68.2036 18.66 67.6636 19.192 66.9836 19.568C66.3116 19.936 65.5756 20.12 64.7756 20.12ZM64.7756 18.908C65.3276 18.908 65.8316 18.78 66.2876 18.524C66.7436 18.26 67.1036 17.88 67.3676 17.384C67.6396 16.88 67.7756 16.28 67.7756 15.584C67.7756 14.88 67.6396 14.28 67.3676 13.784C67.1036 13.28 66.7436 12.9 66.2876 12.644C65.8396 12.388 65.3356 12.26 64.7756 12.26C64.2156 12.26 63.7076 12.388 63.2516 12.644C62.7956 12.9 62.4356 13.28 62.1716 13.784C61.9076 14.28 61.7756 14.88 61.7756 15.584C61.7756 16.28 61.9116 16.88 62.1836 17.384C62.4556 17.88 62.8196 18.26 63.2756 18.524C63.7396 18.78 64.2396 18.908 64.7756 18.908ZM77.208 20L75.432 16.664C75.064 16.68 74.736 16.688 74.448 16.688H74.112V20H72.804V11.18H74.808C75.824 11.18 76.66 11.392 77.316 11.816C77.972 12.232 78.3 12.912 78.3 13.856C78.3 14.448 78.16 14.96 77.88 15.392C77.608 15.816 77.2 16.144 76.656 16.376L78.756 20H77.208ZM74.964 15.596C75.748 15.596 76.284 15.428 76.572 15.092C76.868 14.748 77.016 14.34 77.016 13.868C77.016 12.82 76.316 12.296 74.916 12.296H74.112V15.596H74.964ZM84.2682 16.052L83.5482 16.94V20H82.2282V11.18H83.5482V15.116L86.5722 11.18H88.1802L85.1442 15.056L88.6122 20H86.9682L84.2682 16.052ZM91.4529 11.18H95.5929V12.344H92.7849V14.84H94.9689V16.016H92.7849V20H91.4529V11.18ZM102.801 20.12C102.001 20.12 101.261 19.936 100.581 19.568C99.9086 19.192 99.3726 18.66 98.9726 17.972C98.5726 17.284 98.3726 16.484 98.3726 15.572C98.3726 14.652 98.5726 13.852 98.9726 13.172C99.3726 12.484 99.9086 11.956 100.581 11.588C101.261 11.22 102.001 11.036 102.801 11.036C103.601 11.036 104.337 11.22 105.009 11.588C105.689 11.956 106.229 12.484 106.629 13.172C107.029 13.852 107.229 14.652 107.229 15.572C107.229 16.484 107.029 17.284 106.629 17.972C106.229 18.66 105.689 19.192 105.009 19.568C104.337 19.936 103.601 20.12 102.801 20.12ZM102.801 18.908C103.353 18.908 103.857 18.78 104.313 18.524C104.769 18.26 105.129 17.88 105.393 17.384C105.665 16.88 105.801 16.28 105.801 15.584C105.801 14.88 105.665 14.28 105.393 13.784C105.129 13.28 104.769 12.9 104.313 12.644C103.865 12.388 103.361 12.26 102.801 12.26C102.241 12.26 101.733 12.388 101.277 12.644C100.821 12.9 100.461 13.28 100.197 13.784C99.9326 14.28 99.8006 14.88 99.8006 15.584C99.8006 16.28 99.9366 16.88 100.209 17.384C100.481 17.88 100.845 18.26 101.301 18.524C101.765 18.78 102.265 18.908 102.801 18.908ZM115.233 20L113.457 16.664C113.089 16.68 112.761 16.688 112.473 16.688H112.137V20H110.829V11.18H112.833C113.849 11.18 114.685 11.392 115.341 11.816C115.997 12.232 116.325 12.912 116.325 13.856C116.325 14.448 116.185 14.96 115.905 15.392C115.633 15.816 115.225 16.144 114.681 16.376L116.781 20H115.233ZM112.989 15.596C113.773 15.596 114.309 15.428 114.597 15.092C114.893 14.748 115.041 14.34 115.041 13.868C115.041 12.82 114.341 12.296 112.941 12.296H112.137V15.596H112.989ZM124.261 20.084C123.349 20.084 122.557 19.88 121.885 19.472C121.221 19.064 120.713 18.52 120.361 17.84C120.009 17.152 119.833 16.396 119.833 15.572C119.833 14.7 120.021 13.92 120.397 13.232C120.781 12.544 121.317 12.008 122.005 11.624C122.693 11.232 123.473 11.036 124.345 11.036C124.737 11.036 125.101 11.08 125.437 11.168C125.781 11.248 126.065 11.344 126.289 11.456C126.513 11.56 126.661 11.648 126.733 11.72L126.145 12.92C125.657 12.488 125.021 12.272 124.237 12.272C123.685 12.272 123.185 12.408 122.737 12.68C122.289 12.952 121.937 13.34 121.681 13.844C121.425 14.348 121.297 14.932 121.297 15.596C121.297 16.204 121.409 16.756 121.633 17.252C121.865 17.748 122.201 18.14 122.641 18.428C123.081 18.716 123.605 18.86 124.213 18.86C124.917 18.86 125.597 18.66 126.253 18.26L126.649 19.4C126.473 19.56 126.149 19.716 125.677 19.868C125.213 20.012 124.741 20.084 124.261 20.084ZM130.134 11.18H133.998V12.356H131.466V14.792H133.506V15.992H131.466V18.812H134.394V20H130.134V11.18Z" fill="white"/>
<defs>
<linearGradient id="paint0_linear_1_1833" x1="15.3774" y1="12.7998" x2="6.47288" y2="20.8904" gradientUnits="userSpaceOnUse">
<stop stop-color="white"/>
<stop offset="1"/>
</linearGradient>
<clipPath id="clip0_1_1833">
<rect width="32" height="27" fill="white"/>
</clipPath>
</defs>
</svg>
