<svg width="509" height="335" viewBox="0 0 509 335" fill="none" xmlns="http://www.w3.org/2000/svg">
<g clip-path="url(#clip0_1_353)">
<path d="M87.9749 28.6748C89.1181 28.6748 90.0448 27.7481 90.0448 26.605C90.0448 25.4618 89.1181 24.5351 87.9749 24.5351C86.8317 24.5351 85.905 25.4618 85.905 26.605C85.905 27.7481 86.8317 28.6748 87.9749 28.6748Z" fill="white"/>
<path d="M330.079 31.4678H67.2339V32.9287H330.079V31.4678Z" fill="white"/>
<path d="M390.305 0.171143H88.1289V193.698H390.305V0.171143Z" fill="#DCE0E5"/>
<path d="M390.176 0H88V12.8376H390.176V0Z" fill="#4094F7"/>
<path d="M381.914 23.1921H97.0193V96.9663H381.914V23.1921Z" fill="white"/>
<path d="M382.094 109.089H97.1995V182.864H382.094V109.089Z" fill="white"/>
<path d="M347.409 39.5125H193.224V46.3843H347.409V39.5125Z" fill="#DCE0E5"/>
<path d="M248.198 56.6918H193.224V63.5636H248.198V56.6918Z" fill="#DCE0E5"/>
<path d="M302.743 73.8711H193.224V80.7429H302.743V73.8711Z" fill="#DCE0E5"/>
<path d="M181.628 145.599C181.636 150.602 180.179 155.498 177.438 159.683C176.863 160.566 176.234 161.411 175.553 162.215C173.956 164.106 172.096 165.759 170.03 167.122C169.468 167.494 168.891 167.843 168.297 168.168C165.209 169.876 161.801 170.925 158.287 171.251C157.488 171.329 156.676 171.366 155.857 171.366C153.612 171.368 151.377 171.076 149.208 170.496C147.978 170.173 146.775 169.756 145.61 169.247C145.015 168.99 144.433 168.71 143.864 168.408C142.496 167.69 141.197 166.848 139.982 165.894C139.417 165.454 138.873 164.99 138.348 164.503C135.21 161.595 132.845 157.951 131.467 153.9C130.089 149.849 129.742 145.519 130.456 141.301C131.171 137.082 132.925 133.108 135.559 129.737C138.194 126.365 141.627 123.703 145.548 121.991C149.469 120.278 153.754 119.569 158.018 119.927C162.282 120.285 166.389 121.7 169.969 124.042C173.55 126.385 176.49 129.582 178.525 133.346C180.561 137.109 181.627 141.321 181.628 145.599V145.599Z" fill="#4094F7"/>
<path d="M157.439 133.57H154.28V157.621H157.439V133.57Z" fill="white"/>
<path d="M167.885 144.016H143.833V147.175H167.885V144.016Z" fill="white"/>
<path d="M343.544 125.41H189.358V132.282H343.544V125.41Z" fill="#DCE0E5"/>
<path d="M244.333 142.589H189.359V149.461H244.333V142.589Z" fill="#DCE0E5"/>
<path d="M298.878 159.768H189.359V166.64H298.878V159.768Z" fill="#DCE0E5"/>
<path d="M107.985 8.50957C109.158 8.50957 110.109 7.55881 110.109 6.38598C110.109 5.21315 109.158 4.26239 107.985 4.26239C106.812 4.26239 105.862 5.21315 105.862 6.38598C105.862 7.55881 106.812 8.50957 107.985 8.50957Z" fill="white"/>
<path d="M116.046 8.50957C117.219 8.50957 118.17 7.55881 118.17 6.38598C118.17 5.21315 117.219 4.26239 116.046 4.26239C114.873 4.26239 113.922 5.21315 113.922 6.38598C113.922 7.55881 114.873 8.50957 116.046 8.50957Z" fill="white"/>
<path d="M99.9034 8.50957C101.076 8.50957 102.027 7.55881 102.027 6.38598C102.027 5.21315 101.076 4.26239 99.9034 4.26239C98.7305 4.26239 97.7798 5.21315 97.7798 6.38598C97.7798 7.55881 98.7305 8.50957 99.9034 8.50957Z" fill="white"/>
<path d="M171.307 80.8034C169.055 79.6165 166.704 78.6272 164.281 77.8465L163.972 74.4284L151.44 73.0782L149.848 77.4471L145.351 79.1348C145.19 79.1958 145.037 79.2756 144.894 79.3725H144.889C144.638 79.5421 144.425 79.7611 144.261 80.0161C144.098 80.2712 143.988 80.5568 143.939 80.8557C143.891 81.1529 143.902 81.4567 143.972 81.7495L144.21 82.724C144.552 82.9284 144.904 83.1234 145.255 83.3088L145.479 83.4228C145.992 83.6891 146.515 83.941 147.053 84.174C147.162 84.2215 147.281 84.2691 147.39 84.3166C147.4 84.3213 147.404 84.3213 147.414 84.3261C147.666 84.4307 147.918 84.5305 148.174 84.6256C149.018 84.9477 149.878 85.2238 150.751 85.4528C152.98 86.0468 155.276 86.3472 157.583 86.3465C158.424 86.3465 159.256 86.3085 160.078 86.2277C161.958 86.0542 163.813 85.6797 165.612 85.1105C165.617 85.1105 165.622 85.1057 165.626 85.1057C166.763 84.7436 167.873 84.3037 168.949 83.7889C168.954 83.7842 168.963 83.7841 168.968 83.7794C169.211 83.6653 169.444 83.5417 169.681 83.4228L169.795 83.3658C169.986 83.266 170.176 83.1661 170.366 83.0615C170.841 82.8001 171.307 82.5243 171.768 82.2296C171.897 82.1535 172.02 82.0727 172.149 81.9872C172.329 81.8683 172.51 81.7447 172.686 81.6164C172.244 81.3311 171.783 81.0601 171.307 80.8034Z" fill="#3F3D56"/>
<path d="M147.79 82.9094L147.005 79.3677H144.956C144.936 79.368 144.915 79.3696 144.894 79.3725H144.89C144.153 79.4348 143.444 79.6799 142.826 80.0856C142.408 80.353 142.035 80.687 141.724 81.0744C142.332 81.5355 142.964 81.9634 143.616 82.3722L143.644 82.3865C143.829 82.5006 144.02 82.6147 144.21 82.724C144.552 82.9284 144.904 83.1234 145.256 83.3088L145.479 83.4229C145.993 83.6891 146.516 83.941 147.053 84.174C147.162 84.2215 147.281 84.2691 147.39 84.3166C147.4 84.3214 147.404 84.3213 147.414 84.3261C147.666 84.4307 147.918 84.5305 148.175 84.6256L147.79 82.9094Z" fill="#3F3D56"/>
<path d="M157.214 70.9173C162.199 70.9173 166.24 66.8766 166.24 61.8921C166.24 56.9077 162.199 52.8669 157.214 52.8669C152.23 52.8669 148.189 56.9077 148.189 61.8921C148.189 66.8766 152.23 70.9173 157.214 70.9173Z" fill="#FFB8B8"/>
<path d="M151.155 57.4961C152.089 58.6017 153.67 58.9137 155.129 59.0416C158.539 59.23 161.958 58.9508 165.293 58.2117C165.499 60.2141 164.936 62.3732 166.115 64.0204C166.668 62.0262 166.99 59.975 167.074 57.9073C167.162 57.0202 167.046 56.1246 166.735 55.2891C166.569 54.8703 166.288 54.5066 165.926 54.2393C165.563 53.9719 165.133 53.8117 164.684 53.7767C165.356 53.2666 166.144 52.9299 166.977 52.7963L164.111 51.3562L164.847 50.6007L159.659 50.2832L161.162 49.3285C158.9 49.0178 156.612 48.9455 154.335 49.113C153.278 49.1909 152.173 49.3397 151.316 49.9523C150.459 50.5649 149.964 51.7824 150.496 52.6817C149.83 52.791 149.203 53.0685 148.675 53.4879C148.146 53.9073 147.734 54.4546 147.476 55.0781C147.15 56.0692 147.071 57.1249 147.247 58.1534C147.442 59.8034 147.826 61.4257 148.39 62.9887L151.155 57.4961Z" fill="#2F2E41"/>
<path d="M182.593 52.1086C181.327 48.4708 179.282 45.153 176.602 42.3865C173.922 39.6201 170.67 37.4716 167.074 36.0909C163.478 34.7102 159.625 34.1305 155.782 34.3923C151.939 34.654 148.199 35.7509 144.823 37.6064C141.448 39.462 138.518 42.0315 136.237 45.1358C133.957 48.2401 132.381 51.8045 131.62 55.5804C130.859 59.3563 130.93 63.2528 131.829 66.9983C132.729 70.7437 134.434 74.2479 136.827 77.2664C137.065 77.5659 137.312 77.8654 137.564 78.1554C137.583 78.1745 137.597 78.1935 137.616 78.2125C138.236 78.9265 138.894 79.6058 139.589 80.2472C139.77 80.4136 139.96 80.5847 140.15 80.7463C140.511 81.0696 140.882 81.3786 141.267 81.6734C141.419 81.7922 141.567 81.9111 141.724 82.0252C142.332 82.4863 142.964 82.9142 143.616 83.323L143.644 83.3373C143.83 83.4513 144.02 83.5654 144.21 83.6748C144.552 83.8792 144.904 84.0741 145.256 84.2595L145.479 84.3736C145.993 84.6398 146.516 84.8918 147.053 85.1247C147.162 85.1723 147.281 85.2198 147.39 85.2674C147.4 85.2721 147.405 85.2721 147.414 85.2769C147.666 85.3814 147.918 85.4813 148.175 85.5764C149.018 85.8984 149.878 86.1746 150.751 86.4035C152.98 86.9975 155.276 87.298 157.583 87.2973C158.424 87.2973 159.256 87.2593 160.079 87.1784C161.958 87.005 163.813 86.6304 165.612 86.0613C165.617 86.0613 165.622 86.0565 165.626 86.0565C166.763 85.6944 167.873 85.2544 168.95 84.7397C168.954 84.7349 168.964 84.7349 168.969 84.7302C169.211 84.6161 169.444 84.4925 169.682 84.3736L169.796 84.3166C169.986 84.2167 170.176 84.1169 170.366 84.0123C170.842 83.7508 171.307 83.4751 171.768 83.1804C171.897 83.1043 172.021 83.0235 172.149 82.9379C172.33 82.8191 172.51 82.6955 172.686 82.5671C172.919 82.4055 173.152 82.2391 173.38 82.0679C173.451 82.0156 173.528 81.9634 173.599 81.9063C178.053 78.5257 181.322 73.8218 182.938 68.4688C184.553 63.1159 184.433 57.3888 182.593 52.1086ZM172.724 80.7511C172.567 80.8747 172.406 80.9935 172.244 81.1029C172.087 81.2217 171.93 81.3358 171.768 81.4404C171.631 81.5402 171.493 81.6353 171.35 81.7257L171.307 81.7542C171.203 81.8255 171.098 81.892 170.994 81.9586C170.599 82.2058 170.2 82.4435 169.796 82.6717C169.753 82.6955 169.71 82.7192 169.667 82.743C169.487 82.8428 169.306 82.9379 169.125 83.033C169.102 83.0473 169.073 83.0568 169.049 83.071L169.021 83.0853C168.793 83.2041 168.56 83.3182 168.327 83.4276C167.428 83.8605 166.502 84.2352 165.555 84.5495C165.431 84.5923 165.308 84.6351 165.184 84.6731C163.481 85.2148 161.725 85.5718 159.946 85.738C159.166 85.8093 158.377 85.8474 157.583 85.8474C155.401 85.8519 153.229 85.5673 151.122 85.0011C150.041 84.7189 148.981 84.3599 147.951 83.9268C147.899 83.903 147.842 83.884 147.79 83.8602C147.733 83.8364 147.68 83.8174 147.628 83.7937C147.571 83.7699 147.519 83.7461 147.462 83.7176C147.015 83.5227 146.573 83.3087 146.14 83.0853L145.931 82.976C145.403 82.7002 144.885 82.4055 144.381 82.0917C144.234 82.0014 144.082 81.9063 143.939 81.8065C143.901 81.7827 143.868 81.7589 143.829 81.7352C143.492 81.5117 143.154 81.2788 142.826 81.0363C142.603 80.87 142.38 80.7036 142.161 80.5324C141.795 80.2567 141.443 79.9619 141.101 79.6577C140.92 79.5056 140.744 79.3392 140.573 79.1823C139.899 78.5599 139.261 77.8996 138.662 77.2046C138.462 76.9765 138.267 76.7483 138.082 76.5106C138.04 76.4636 138 76.4144 137.963 76.3632C134.874 72.4655 133.017 67.7362 132.626 62.7783C132.236 57.8204 133.332 52.8587 135.773 48.526C138.215 44.1933 141.891 40.6858 146.334 38.4511C150.777 36.2163 155.784 35.3554 160.718 35.9782C165.652 36.601 170.289 38.6793 174.037 41.9481C177.785 45.2168 180.475 49.5278 181.763 54.3313C183.051 59.1348 182.879 64.2131 181.269 68.9185C179.659 73.6239 176.685 77.7432 172.724 80.7511Z" fill="#3F3D56"/>
<path d="M347.973 179.21C346.707 175.572 344.662 172.255 341.982 169.488C339.302 166.722 336.05 164.573 332.455 163.193C328.859 161.812 325.005 161.232 321.162 161.494C317.319 161.756 313.579 162.853 310.204 164.708C306.828 166.564 303.898 169.133 301.618 172.237C299.337 175.342 297.761 178.906 297 182.682C296.239 186.458 296.31 190.354 297.209 194.1C298.109 197.845 299.814 201.35 302.207 204.368C302.445 204.668 302.692 204.967 302.944 205.257C302.963 205.276 302.977 205.295 302.996 205.314C303.616 206.028 304.275 206.707 304.969 207.349C305.15 207.515 305.34 207.686 305.53 207.848C305.891 208.171 306.262 208.48 306.647 208.775C307.399 209.368 308.183 209.918 308.996 210.425L309.024 210.439C309.552 210.767 310.089 211.071 310.636 211.361L310.859 211.475C311.373 211.741 311.896 211.993 312.433 212.226C312.542 212.274 312.661 212.321 312.77 212.369C312.78 212.374 312.785 212.374 312.794 212.379C313.879 212.83 314.995 213.206 316.131 213.505C318.36 214.099 320.656 214.4 322.963 214.399C323.804 214.399 324.636 214.361 325.458 214.28C327.338 214.107 329.193 213.732 330.992 213.163C330.997 213.163 331.002 213.158 331.006 213.158C332.143 212.796 333.253 212.356 334.329 211.841C334.334 211.837 334.344 211.837 334.348 211.832C334.591 211.718 334.824 211.594 335.062 211.475L335.176 211.418C335.366 211.318 335.556 211.219 335.746 211.114C336.221 210.852 336.687 210.577 337.149 210.282C337.277 210.206 337.4 210.125 337.529 210.04C337.947 209.764 338.361 209.469 338.76 209.17C338.831 209.117 338.907 209.065 338.979 209.008C343.433 205.627 346.702 200.923 348.317 195.57C349.933 190.217 349.813 184.49 347.973 179.21Z" fill="white"/>
<path d="M331.702 198.832C333.894 198.832 335.671 197.055 335.671 194.863C335.671 192.671 333.894 190.894 331.702 190.894C329.51 190.894 327.733 192.671 327.733 194.863C327.733 197.055 329.51 198.832 331.702 198.832Z" fill="#2F2E41"/>
<path d="M332.808 191.003C333.495 191.003 334.17 191.181 334.768 191.52C335.365 191.86 335.864 192.348 336.216 192.938C336.569 193.528 336.762 194.199 336.777 194.886C336.792 195.572 336.628 196.251 336.302 196.856C336.646 196.426 336.897 195.928 337.038 195.395C337.179 194.863 337.208 194.306 337.122 193.762C337.036 193.218 336.838 192.697 336.54 192.233C336.242 191.77 335.851 191.373 335.391 191.069C334.932 190.765 334.414 190.56 333.87 190.468C333.327 190.375 332.77 190.396 332.236 190.53C331.701 190.665 331.201 190.909 330.766 191.247C330.331 191.585 329.971 192.011 329.709 192.496C330.081 192.03 330.552 191.654 331.088 191.395C331.625 191.137 332.213 191.003 332.809 191.003H332.808Z" fill="#2F2E41"/>
<path d="M324.285 194.854C330.724 194.854 335.945 189.634 335.945 183.195C335.945 176.755 330.724 171.535 324.285 171.535C317.846 171.535 312.625 176.755 312.625 183.195C312.625 189.634 317.846 194.854 324.285 194.854Z" fill="#2F2E41"/>
<path d="M315.134 175.961C317.143 173.701 319.951 172.311 322.966 172.082C325.981 171.854 328.967 172.806 331.293 174.738C331.198 174.647 331.103 174.556 331.004 174.468C328.701 172.404 325.672 171.341 322.585 171.51C319.497 171.68 316.603 173.069 314.54 175.372C312.477 177.676 311.413 180.704 311.582 183.792C311.752 186.879 313.141 189.773 315.444 191.837C315.466 191.856 315.489 191.876 315.511 191.896C315.61 191.984 315.712 192.067 315.813 192.151C313.622 190.067 312.327 187.214 312.201 184.193C312.074 181.172 313.125 178.22 315.134 175.961Z" fill="#2F2E41"/>
<path d="M324.186 194.755C328.333 194.755 331.695 191.393 331.695 187.246C331.695 183.099 328.333 179.737 324.186 179.737C320.039 179.737 316.677 183.099 316.677 187.246C316.677 191.393 320.039 194.755 324.186 194.755Z" fill="#C68C94"/>
<path d="M337.624 206.812V209.331C337.163 209.626 336.697 209.902 336.222 210.163C336.032 210.268 335.841 210.368 335.651 210.467L335.537 210.524C335.299 210.643 335.066 210.767 334.824 210.881C334.819 210.886 334.81 210.886 334.805 210.891C333.729 211.405 332.619 211.845 331.482 212.207C331.477 212.207 331.473 212.212 331.468 212.212C329.668 212.781 327.813 213.156 325.934 213.329C325.112 213.41 324.28 213.448 323.438 213.448C321.132 213.449 318.836 213.148 316.607 212.554C315.47 212.256 314.355 211.879 313.27 211.428C313.26 211.423 313.255 211.423 313.246 211.418C313.137 211.371 313.018 211.323 312.908 211.276C312.371 211.043 311.848 210.791 311.335 210.524L311.111 210.41C310.565 210.12 310.027 209.816 309.5 209.488L309.471 209.474C308.659 208.968 307.875 208.417 307.123 207.824C306.738 207.529 306.367 207.22 306.006 206.897C305.815 206.736 305.625 206.564 305.445 206.398C304.75 205.757 304.091 205.077 303.472 204.363C303.554 203.868 303.675 203.38 303.833 202.904L303.838 202.899C303.866 202.818 303.9 202.739 303.938 202.661C303.964 202.593 303.994 202.527 304.028 202.462C304.879 200.869 306.419 200.475 308.33 200.389C309.409 200.341 310.603 200.394 311.863 200.38C312.528 200.375 313.217 200.351 313.907 200.289C318.257 199.895 317.468 197.328 317.662 195.944C317.857 194.603 319.065 195.763 319.146 195.84L319.15 195.844C321.612 196.996 324.335 197.474 327.042 197.228C327.508 197.171 327.974 197.137 328.439 197.123C329.666 197.109 329.4 197.461 328.977 197.751C328.771 197.886 328.557 198.006 328.335 198.112C328.335 198.112 328.14 199.3 327.94 201.078C327.75 202.78 331.011 203.579 331.282 203.641C331.288 203.644 331.295 203.646 331.301 203.645C332.492 203.337 333.746 203.37 334.919 203.741H334.924C335.594 203.987 336.192 204.397 336.664 204.933C337.135 205.47 337.466 206.115 337.624 206.812Z" fill="#4094F7"/>
<path d="M313.317 209.868C313.317 210.22 313.308 210.558 313.293 210.876C313.289 211.066 313.279 211.252 313.269 211.428C313.26 211.423 313.255 211.423 313.246 211.418C313.136 211.371 313.017 211.323 312.908 211.276C312.371 211.043 311.848 210.791 311.334 210.524L311.111 210.41C310.564 210.12 310.027 209.816 309.499 209.488C309.514 209.322 309.538 209.155 309.561 208.989C309.613 208.623 309.656 208.252 309.685 207.886C309.872 205.314 309.406 202.737 308.33 200.394V200.389C308.235 200.199 308.178 200.094 308.178 200.094C308.178 200.094 309.561 198.906 311.534 200.094C311.66 200.168 311.771 200.265 311.862 200.379C313.051 201.782 313.374 206.498 313.317 209.868Z" fill="#2F2E41"/>
<path d="M334.905 209.222C334.886 209.754 334.857 210.311 334.824 210.876V210.881C334.819 210.886 334.809 210.886 334.805 210.89C333.729 211.405 332.618 211.845 331.482 212.207C331.477 212.207 331.472 212.212 331.468 212.212L331.415 210.876L331.41 210.7L331.159 204.197C331.152 204.05 331.175 203.903 331.227 203.765C331.278 203.627 331.357 203.5 331.459 203.394C331.561 203.287 331.683 203.202 331.819 203.144C331.954 203.086 332.1 203.056 332.247 203.056H334.657C334.776 203.056 334.862 203.298 334.919 203.736V203.741C335.036 205.566 335.031 207.397 334.905 209.222Z" fill="#2F2E41"/>
<path d="M317.764 177.859V185.37H319.503L321.716 182.999L321.419 185.37H329.107L328.631 182.999L329.582 185.37H330.808V177.859H317.764Z" fill="#2F2E41"/>
<path d="M316.578 186.752C316.905 186.752 317.171 186.265 317.171 185.665C317.171 185.065 316.905 184.578 316.578 184.578C316.251 184.578 315.985 185.065 315.985 185.665C315.985 186.265 316.251 186.752 316.578 186.752Z" fill="#C68C94"/>
<path d="M331.795 186.752C332.122 186.752 332.388 186.265 332.388 185.665C332.388 185.065 332.122 184.578 331.795 184.578C331.467 184.578 331.202 185.065 331.202 185.665C331.202 186.265 331.467 186.752 331.795 186.752Z" fill="#C68C94"/>
<path d="M339.235 208.219C338.836 208.518 338.422 208.813 338.004 209.089C337.876 209.174 337.752 209.255 337.624 209.331C337.163 209.626 336.697 209.902 336.221 210.163C336.031 210.268 335.841 210.368 335.651 210.467V205.229C335.651 205.229 336.412 205.837 337.624 206.85C337.776 206.978 337.933 207.111 338.099 207.254C338.451 207.548 338.831 207.872 339.235 208.219Z" fill="#4094F7"/>
<path d="M347.973 179.21C346.707 175.572 344.662 172.255 341.982 169.488C339.302 166.722 336.05 164.573 332.455 163.193C328.859 161.812 325.005 161.232 321.162 161.494C317.319 161.756 313.579 162.853 310.204 164.708C306.828 166.564 303.898 169.133 301.618 172.237C299.337 175.342 297.761 178.906 297 182.682C296.239 186.458 296.31 190.354 297.209 194.1C298.109 197.845 299.814 201.35 302.207 204.368C302.445 204.668 302.692 204.967 302.944 205.257C302.963 205.276 302.977 205.295 302.996 205.314C303.616 206.028 304.275 206.707 304.969 207.349C305.15 207.515 305.34 207.686 305.53 207.848C305.891 208.171 306.262 208.48 306.647 208.775C307.399 209.368 308.183 209.918 308.996 210.425L309.024 210.439C309.552 210.767 310.089 211.071 310.636 211.361L310.859 211.475C311.373 211.741 311.896 211.993 312.433 212.226C312.542 212.274 312.661 212.321 312.77 212.369C312.78 212.374 312.785 212.374 312.794 212.379C313.879 212.83 314.995 213.206 316.131 213.505C318.36 214.099 320.656 214.4 322.963 214.399C323.804 214.399 324.636 214.361 325.458 214.28C327.338 214.107 329.193 213.732 330.992 213.163C330.997 213.163 331.002 213.158 331.006 213.158C332.143 212.796 333.253 212.356 334.329 211.841C334.334 211.837 334.344 211.837 334.348 211.832C334.591 211.718 334.824 211.594 335.062 211.475L335.176 211.418C335.366 211.318 335.556 211.219 335.746 211.114C336.221 210.852 336.687 210.577 337.149 210.282C337.277 210.206 337.4 210.125 337.529 210.04C337.947 209.764 338.361 209.469 338.76 209.17C338.831 209.117 338.907 209.065 338.979 209.008C343.433 205.627 346.702 200.923 348.317 195.57C349.933 190.217 349.813 184.49 347.973 179.21ZM338.104 207.853C337.947 207.976 337.786 208.095 337.624 208.205C337.467 208.323 337.31 208.438 337.149 208.542C337.011 208.642 336.873 208.737 336.73 208.827C336.611 208.908 336.492 208.984 336.373 209.06C335.979 209.307 335.58 209.545 335.176 209.773C335.133 209.797 335.09 209.821 335.047 209.845C334.867 209.944 334.686 210.04 334.505 210.135C334.481 210.149 334.453 210.158 334.429 210.173L334.401 210.187C334.172 210.306 333.94 210.42 333.707 210.529C332.808 210.962 331.882 211.337 330.935 211.651C330.811 211.694 330.688 211.737 330.564 211.775C328.861 212.316 327.105 212.673 325.325 212.84C324.546 212.911 323.756 212.949 322.963 212.949C320.781 212.953 318.609 212.669 316.502 212.103C315.421 211.821 314.361 211.462 313.331 211.028C313.222 210.986 313.113 210.938 313.008 210.895C312.951 210.872 312.899 210.848 312.841 210.819C312.395 210.624 311.953 210.41 311.52 210.187L311.311 210.078C310.783 209.802 310.265 209.507 309.761 209.193C309.576 209.079 309.39 208.96 309.21 208.837C308.639 208.461 308.083 208.057 307.541 207.634C307.175 207.358 306.823 207.064 306.481 206.759C306.3 206.607 306.124 206.441 305.953 206.284C305.279 205.662 304.641 205.001 304.042 204.306C303.842 204.078 303.647 203.85 303.462 203.612C303.42 203.565 303.38 203.516 303.343 203.465C300.254 199.567 298.396 194.838 298.006 189.88C297.616 184.922 298.712 179.96 301.153 175.628C303.594 171.295 307.271 167.788 311.714 165.553C316.157 163.318 321.164 162.457 326.098 163.08C331.032 163.703 335.669 165.781 339.417 169.05C343.165 172.318 345.855 176.629 347.143 181.433C348.431 186.236 348.259 191.315 346.649 196.02C345.039 200.726 342.064 204.845 338.104 207.853Z" fill="#3F3D56"/>
<path d="M346.482 177.134C347.139 176.895 347.736 176.516 348.23 176.022C348.725 175.528 349.105 174.932 349.344 174.276C349.583 173.619 349.676 172.918 349.615 172.222C349.553 171.525 349.34 170.851 348.991 170.246L360.095 157.39L351.341 156.25L342.138 168.634C341.161 169.289 340.458 170.28 340.162 171.419C339.867 172.557 339.999 173.765 340.535 174.813C341.07 175.861 341.971 176.676 343.067 177.103C344.163 177.531 345.378 177.542 346.482 177.134Z" fill="#FFB8B8"/>
<path d="M409.074 179.85C409.535 179.325 409.875 178.705 410.07 178.034C410.265 177.363 410.311 176.657 410.204 175.966C410.097 175.276 409.84 174.617 409.45 174.036C409.061 173.456 408.549 172.968 407.951 172.607L411.481 155.989L403.262 159.212L401.17 174.498C400.63 175.543 400.492 176.75 400.782 177.891C401.072 179.031 401.771 180.025 402.745 180.685C403.719 181.345 404.902 181.624 406.068 181.47C407.235 181.316 408.304 180.74 409.074 179.85Z" fill="#FFB8B8"/>
<path d="M369.301 266.454L363.472 266.454L360.7 243.973L369.302 243.974L369.301 266.454Z" fill="#FFB8B8"/>
<path d="M416.778 261.714L409.186 262.152L417.353 259.2C418.67 252.066 417.719 244.189 417.719 244.189C417.719 244.189 401.308 245.463 395.635 252.387C389.962 259.31 392.097 265.1 397.174 269.261C402.251 273.421 408.347 274.376 414.021 267.453C415.322 265.748 416.26 263.795 416.778 261.714Z" fill="#F2F2F2"/>
<path d="M407.897 261.455L407.617 261.797C404.346 265.747 401.141 268.294 398.042 269.397C397.998 269.414 397.952 269.428 397.907 269.445L397.834 269.235L397.766 269.032C401.15 267.872 404.392 264.968 407.245 261.523C407.338 261.413 407.433 261.301 407.524 261.187C408.719 259.718 409.844 258.163 410.88 256.606C410.961 256.486 411.042 256.363 411.123 256.24C412.479 254.178 413.679 252.128 414.677 250.311C414.748 250.183 414.817 250.053 414.885 249.926C416.561 246.843 417.625 244.487 417.857 243.963C417.886 243.899 417.901 243.864 417.905 243.855L418.103 243.941L418.106 243.941L418.306 244.028C418.302 244.037 418.252 244.156 418.152 244.374C417.785 245.191 416.766 247.392 415.265 250.166C415.196 250.291 415.127 250.42 415.056 250.548C414.248 252.024 413.311 253.645 412.268 255.298C412.006 255.713 411.744 256.12 411.481 256.517C411.401 256.641 411.321 256.764 411.239 256.884C410.12 258.567 409.005 260.091 407.897 261.455Z" fill="white"/>
<path d="M415.265 250.166C415.139 250.088 415.012 250.01 414.885 249.926C414.542 249.699 414.211 249.455 413.892 249.194C412.535 248.084 411.443 246.684 410.698 245.097C410.554 245.128 410.41 245.16 410.262 245.191C411.035 246.875 412.182 248.359 413.615 249.532C413.955 249.81 414.309 250.07 414.677 250.311C414.801 250.394 414.929 250.472 415.056 250.548C416.1 251.18 417.234 251.649 418.419 251.94C418.422 251.788 418.426 251.639 418.43 251.492C417.316 251.209 416.249 250.762 415.265 250.166Z" fill="white"/>
<path d="M411.481 256.517C411.359 256.428 411.239 256.336 411.123 256.24C411.086 256.213 411.049 256.183 411.013 256.153C409.544 254.949 408.387 253.408 407.642 251.66C406.897 249.912 406.586 248.01 406.735 246.116C406.585 246.16 406.436 246.204 406.287 246.252C406.162 248.189 406.5 250.129 407.274 251.909C408.048 253.69 409.235 255.261 410.736 256.491C410.784 256.53 410.831 256.569 410.88 256.606C410.999 256.701 411.119 256.793 411.239 256.884C413.119 258.27 415.358 259.085 417.688 259.232C417.716 259.088 417.743 258.944 417.769 258.798C415.496 258.666 413.31 257.873 411.481 256.517Z" fill="white"/>
<path d="M407.897 261.455C407.77 261.369 407.646 261.278 407.524 261.187C407.393 261.088 407.264 260.987 407.137 260.884C405.164 259.263 403.769 257.047 403.161 254.568C402.553 252.088 402.764 249.478 403.764 247.129C403.575 247.203 403.389 247.276 403.204 247.354C402.278 249.756 402.134 252.389 402.79 254.879C403.446 257.368 404.87 259.588 406.86 261.221C406.987 261.325 407.115 261.427 407.245 261.523C407.368 261.618 407.492 261.708 407.617 261.797C410.159 263.567 413.279 264.306 416.344 263.862C416.411 263.708 416.472 263.552 416.534 263.394C413.512 263.895 410.414 263.2 407.897 261.455Z" fill="white"/>
<path d="M370.787 272.104L351.995 272.103V271.865C351.995 270.905 352.184 269.954 352.551 269.066C352.919 268.179 353.458 267.372 354.137 266.693C354.816 266.014 355.623 265.475 356.51 265.108C357.398 264.74 358.349 264.551 359.309 264.551L370.788 264.551L370.787 272.104Z" fill="#2F2E41"/>
<path d="M397.824 266.454L391.996 266.454L389.224 243.973L397.825 243.974L397.824 266.454Z" fill="#FFB8B8"/>
<path d="M399.311 272.104L380.518 272.103V271.865C380.518 270.905 380.707 269.954 381.075 269.066C381.443 268.179 381.981 267.372 382.661 266.693C383.34 266.014 384.146 265.475 385.034 265.108C385.921 264.74 386.872 264.551 387.833 264.551L399.311 264.551L399.311 272.104Z" fill="#2F2E41"/>
<path d="M369.908 254.716L361.658 254.385C361.095 254.361 360.564 254.117 360.18 253.704C359.796 253.292 359.59 252.746 359.605 252.183L361.929 175.939L362.081 175.884C376.541 170.654 388.503 171.049 398.652 177.092L398.765 177.16L400.157 251.417C400.163 251.702 400.112 251.984 400.006 252.249C399.901 252.513 399.745 252.753 399.546 252.956C399.346 253.159 399.109 253.32 398.847 253.431C398.584 253.541 398.303 253.597 398.019 253.597H391.062C390.566 253.596 390.086 253.424 389.703 253.109C389.321 252.794 389.059 252.357 388.962 251.871L379.485 203.661C379.453 203.495 379.362 203.345 379.228 203.24C379.095 203.134 378.929 203.08 378.759 203.086C378.59 203.092 378.428 203.159 378.303 203.274C378.178 203.389 378.098 203.545 378.078 203.713L372.117 252.836C372.052 253.354 371.8 253.83 371.409 254.176C371.018 254.522 370.515 254.715 369.993 254.717C369.965 254.717 369.936 254.716 369.908 254.716Z" fill="#2F2E41"/>
<path d="M377.934 109.076C384.383 109.076 389.61 103.849 389.61 97.3999C389.61 90.9514 384.383 85.7238 377.934 85.7238C371.486 85.7238 366.258 90.9514 366.258 97.3999C366.258 103.849 371.486 109.076 377.934 109.076Z" fill="#FFB8B8"/>
<path d="M350.428 167.853C350.023 167.693 349.676 167.414 349.434 167.052L347.178 163.676C346.934 163.31 346.809 162.878 346.819 162.438C346.83 161.998 346.974 161.573 347.234 161.218L356.33 148.873L362.028 121.533C362.355 120.689 362.846 119.917 363.472 119.263C364.098 118.609 364.847 118.084 365.676 117.72C366.505 117.355 367.398 117.157 368.303 117.138C369.208 117.118 370.109 117.277 370.952 117.606C371.796 117.934 372.567 118.426 373.221 119.053C373.874 119.679 374.398 120.429 374.762 121.258C375.126 122.087 375.323 122.98 375.342 123.885C375.361 124.79 375.201 125.69 374.871 126.534L372.178 143.934C371.362 149.215 368.655 154.02 364.561 157.455L352.588 167.502C352.358 167.695 352.089 167.837 351.8 167.92C351.511 168.002 351.208 168.023 350.911 167.981C350.745 167.958 350.583 167.915 350.428 167.853Z" fill="#03C3D0"/>
<path d="M408.576 169.092C408.166 169.239 407.721 169.259 407.3 169.147L403.376 168.103C402.952 167.99 402.572 167.748 402.289 167.411C402.007 167.075 401.834 166.659 401.795 166.221L400.465 150.946L386.678 126.658C386.366 125.808 386.225 124.904 386.262 124C386.3 123.095 386.515 122.206 386.897 121.384C387.278 120.563 387.817 119.825 388.484 119.212C389.15 118.599 389.931 118.123 390.782 117.812C391.633 117.501 392.536 117.361 393.441 117.399C394.346 117.438 395.234 117.654 396.056 118.036C396.877 118.418 397.614 118.959 398.227 119.626C398.839 120.293 399.314 121.075 399.623 121.926L409.099 136.766C411.975 141.27 413.118 146.665 412.314 151.949L409.965 167.401C409.92 167.698 409.813 167.982 409.65 168.235C409.488 168.488 409.274 168.704 409.023 168.869C408.883 168.961 408.733 169.035 408.576 169.092Z" fill="#03C3D0"/>
<path d="M365.163 118.135C367.169 115.936 369.642 114.215 372.402 113.099C375.161 111.984 378.136 111.502 381.107 111.689C381.302 111.701 381.496 111.715 381.69 111.73C384.505 111.953 387.241 112.774 389.714 114.139C392.186 115.503 394.339 117.38 396.028 119.644C397.745 121.939 398.952 124.574 399.569 127.374C400.186 130.173 400.198 133.072 399.605 135.876C397.341 146.593 397.914 157.716 401.267 168.144L404.4 177.87C404.5 178.182 404.528 178.512 404.48 178.836C404.433 179.16 404.311 179.469 404.126 179.738C403.94 180.008 403.695 180.232 403.409 180.392C403.124 180.552 402.805 180.644 402.478 180.661L386.464 181.522L382.366 174.444V181.743L362.903 182.789C362.865 182.791 362.826 182.792 362.788 182.792C362.492 182.792 362.2 182.731 361.93 182.612C361.659 182.494 361.416 182.321 361.216 182.104C361.016 181.886 360.863 181.63 360.766 181.351C360.67 181.072 360.632 180.776 360.656 180.481L362.856 153.202L360.097 134.675C359.65 131.715 359.873 128.692 360.75 125.829C361.627 122.967 363.135 120.338 365.163 118.135Z" fill="#03C3D0"/>
<path d="M386.049 108.547C384.968 109.169 380.695 109.581 380.391 108.371L380.384 108.345C380.172 107.459 380.348 106.533 380.409 105.624C380.47 104.715 380.381 103.716 379.762 103.048C378.607 101.802 376.554 102.462 374.885 102.147C373.907 101.929 373.043 101.362 372.453 100.552C371.863 99.7427 371.589 98.7459 371.681 97.7484C371.705 97.5595 371.742 97.3703 371.784 97.1812C371.888 96.7022 371.88 96.2055 371.76 95.7301C371.64 95.2547 371.412 94.8136 371.093 94.4413C370.774 94.0691 370.373 93.7758 369.921 93.5847C369.47 93.3935 368.98 93.3095 368.491 93.3394C366.804 93.4359 364.983 93.9469 363.588 92.6976C362.508 91.7315 362.245 89.2166 362.719 87.8479C363.516 85.5478 368.621 84.3437 370.849 83.6817C373.606 82.8853 376.505 82.7131 379.336 83.1777C382.168 83.6423 384.86 84.7319 387.217 86.3675C388.625 87.3597 389.94 88.6065 390.54 90.2209C391.14 91.8353 390.85 93.8721 389.497 94.9378C390.546 96.0482 391.285 97.4147 391.639 98.9004C391.993 100.386 391.951 101.939 391.516 103.403C390.848 105.556 387.658 107.621 386.049 108.547Z" fill="#2F2E41"/>
<path d="M420.525 272.853H319.266C319.14 272.853 319.019 272.803 318.93 272.714C318.84 272.625 318.79 272.504 318.79 272.378C318.79 272.252 318.84 272.131 318.93 272.042C319.019 271.953 319.14 271.903 319.266 271.903H420.525C420.651 271.903 420.772 271.953 420.861 272.042C420.95 272.131 421 272.252 421 272.378C421 272.504 420.95 272.625 420.861 272.714C420.772 272.803 420.651 272.853 420.525 272.853Z" fill="#CCCCCC"/>
</g>
<path d="M49.1262 323.406C49.1262 323.074 49.0741 322.781 48.9699 322.527C48.8723 322.267 48.6965 322.033 48.4426 321.824C48.1952 321.616 47.8501 321.417 47.4074 321.229C46.9712 321.04 46.4178 320.848 45.7473 320.652C45.0441 320.444 44.4094 320.213 43.843 319.959C43.2766 319.699 42.7915 319.402 42.3879 319.07C41.9842 318.738 41.675 318.357 41.4602 317.928C41.2453 317.498 41.1379 317.007 41.1379 316.453C41.1379 315.9 41.2518 315.389 41.4797 314.92C41.7076 314.451 42.0331 314.044 42.4563 313.699C42.8859 313.348 43.397 313.074 43.9895 312.879C44.5819 312.684 45.2427 312.586 45.9719 312.586C47.0396 312.586 47.9445 312.791 48.6867 313.201C49.4354 313.605 50.0051 314.135 50.3957 314.793C50.7863 315.444 50.9816 316.141 50.9816 316.883H49.1066C49.1066 316.349 48.9927 315.877 48.7648 315.467C48.537 315.05 48.1919 314.725 47.7297 314.49C47.2675 314.249 46.6815 314.129 45.9719 314.129C45.3013 314.129 44.7479 314.23 44.3117 314.432C43.8755 314.633 43.55 314.907 43.3352 315.252C43.1268 315.597 43.0227 315.991 43.0227 316.434C43.0227 316.733 43.0845 317.007 43.2082 317.254C43.3384 317.495 43.537 317.719 43.8039 317.928C44.0773 318.136 44.4224 318.328 44.8391 318.504C45.2622 318.68 45.7668 318.849 46.3527 319.012C47.16 319.24 47.8566 319.493 48.4426 319.773C49.0285 320.053 49.5103 320.369 49.8879 320.721C50.272 321.066 50.5552 321.46 50.7375 321.902C50.9263 322.339 51.0207 322.833 51.0207 323.387C51.0207 323.966 50.9035 324.49 50.6691 324.959C50.4348 325.428 50.0995 325.828 49.6633 326.16C49.2271 326.492 48.703 326.749 48.091 326.932C47.4855 327.107 46.8085 327.195 46.0598 327.195C45.4022 327.195 44.7544 327.104 44.1164 326.922C43.4849 326.74 42.9087 326.466 42.3879 326.102C41.8736 325.737 41.4602 325.288 41.1477 324.754C40.8417 324.214 40.6887 323.589 40.6887 322.879H42.5637C42.5637 323.367 42.6581 323.787 42.8469 324.139C43.0357 324.484 43.2928 324.77 43.6184 324.998C43.9504 325.226 44.3247 325.395 44.7414 325.506C45.1646 325.61 45.604 325.662 46.0598 325.662C46.7173 325.662 47.274 325.571 47.7297 325.389C48.1854 325.206 48.5305 324.946 48.7648 324.607C49.0057 324.269 49.1262 323.868 49.1262 323.406ZM59.4801 325.193V319.754C59.4801 319.337 59.3954 318.976 59.2262 318.67C59.0634 318.357 58.816 318.117 58.484 317.947C58.152 317.778 57.7418 317.693 57.2535 317.693C56.7978 317.693 56.3974 317.771 56.0523 317.928C55.7138 318.084 55.4469 318.289 55.2516 318.543C55.0628 318.797 54.9684 319.07 54.9684 319.363H53.1617C53.1617 318.986 53.2594 318.611 53.4547 318.24C53.65 317.869 53.9299 317.534 54.2945 317.234C54.6656 316.928 55.1083 316.688 55.6227 316.512C56.1435 316.329 56.7229 316.238 57.3609 316.238C58.1292 316.238 58.8063 316.368 59.3922 316.629C59.9846 316.889 60.4469 317.283 60.7789 317.811C61.1174 318.331 61.2867 318.986 61.2867 319.773V324.695C61.2867 325.047 61.316 325.421 61.3746 325.818C61.4397 326.215 61.5341 326.557 61.6578 326.844V327H59.773C59.6819 326.792 59.6103 326.515 59.5582 326.17C59.5061 325.818 59.4801 325.493 59.4801 325.193ZM59.7926 320.594L59.8121 321.863H57.9859C57.4716 321.863 57.0126 321.906 56.609 321.99C56.2053 322.068 55.8668 322.189 55.5934 322.352C55.3199 322.514 55.1116 322.719 54.9684 322.967C54.8251 323.208 54.7535 323.491 54.7535 323.816C54.7535 324.148 54.8284 324.451 54.9781 324.725C55.1279 324.998 55.3525 325.216 55.652 325.379C55.9579 325.535 56.3323 325.613 56.775 325.613C57.3284 325.613 57.8167 325.496 58.2398 325.262C58.663 325.027 58.9983 324.741 59.2457 324.402C59.4996 324.064 59.6363 323.735 59.6559 323.416L60.4273 324.285C60.3818 324.559 60.2581 324.861 60.0563 325.193C59.8544 325.525 59.5842 325.844 59.2457 326.15C58.9137 326.45 58.5165 326.701 58.0543 326.902C57.5986 327.098 57.0842 327.195 56.5113 327.195C55.7952 327.195 55.1669 327.055 54.6266 326.775C54.0927 326.495 53.676 326.121 53.3766 325.652C53.0836 325.177 52.9371 324.646 52.9371 324.061C52.9371 323.494 53.0478 322.996 53.2691 322.566C53.4905 322.13 53.8095 321.769 54.2262 321.482C54.6428 321.189 55.1441 320.968 55.7301 320.818C56.316 320.669 56.9703 320.594 57.693 320.594H59.7926ZM67.041 325.906L69.9805 316.434H71.9141L67.6758 328.631C67.5781 328.891 67.4479 329.171 67.2852 329.471C67.1289 329.777 66.9271 330.066 66.6797 330.34C66.4323 330.613 66.1328 330.835 65.7813 331.004C65.4362 331.18 65.0228 331.268 64.541 331.268C64.3978 331.268 64.2155 331.248 63.9941 331.209C63.7728 331.17 63.6165 331.137 63.5254 331.111L63.5156 329.646C63.5677 329.653 63.6491 329.66 63.7598 329.666C63.877 329.679 63.9583 329.686 64.0039 329.686C64.4141 329.686 64.7624 329.63 65.0488 329.52C65.3353 329.415 65.5762 329.236 65.7715 328.982C65.9733 328.735 66.1458 328.393 66.2891 327.957L67.041 325.906ZM64.8828 316.434L67.627 324.637L68.0957 326.541L66.7969 327.205L62.9102 316.434H64.8828ZM80.5125 312V327H78.7059V312H80.5125ZM80.0828 321.316L79.3309 321.287C79.3374 320.564 79.4448 319.897 79.6531 319.285C79.8615 318.667 80.1544 318.13 80.532 317.674C80.9096 317.218 81.3589 316.867 81.8797 316.619C82.407 316.365 82.9897 316.238 83.6277 316.238C84.1486 316.238 84.6173 316.31 85.034 316.453C85.4507 316.59 85.8055 316.811 86.0984 317.117C86.3979 317.423 86.6258 317.82 86.782 318.309C86.9383 318.79 87.0164 319.38 87.0164 320.076V327H85.2V320.057C85.2 319.503 85.1186 319.061 84.9559 318.729C84.7931 318.39 84.5555 318.146 84.243 317.996C83.9305 317.84 83.5464 317.762 83.0906 317.762C82.6414 317.762 82.2313 317.856 81.8602 318.045C81.4956 318.234 81.1798 318.494 80.9129 318.826C80.6525 319.158 80.4474 319.539 80.2977 319.969C80.1544 320.392 80.0828 320.841 80.0828 321.316ZM94.2063 327.195C93.4706 327.195 92.8033 327.072 92.2043 326.824C91.6119 326.57 91.1008 326.215 90.6711 325.76C90.2479 325.304 89.9224 324.764 89.6945 324.139C89.4667 323.514 89.3527 322.83 89.3527 322.088V321.678C89.3527 320.818 89.4797 320.053 89.7336 319.383C89.9875 318.706 90.3326 318.133 90.7688 317.664C91.205 317.195 91.6997 316.84 92.2531 316.6C92.8065 316.359 93.3794 316.238 93.9719 316.238C94.7271 316.238 95.3781 316.368 95.925 316.629C96.4784 316.889 96.9309 317.254 97.2824 317.723C97.634 318.185 97.8944 318.732 98.0637 319.363C98.2329 319.988 98.3176 320.672 98.3176 321.414V322.225H90.427V320.75H96.5109V320.613C96.4849 320.145 96.3872 319.689 96.218 319.246C96.0552 318.803 95.7948 318.439 95.4367 318.152C95.0786 317.866 94.5904 317.723 93.9719 317.723C93.5617 317.723 93.1841 317.811 92.8391 317.986C92.494 318.156 92.1978 318.41 91.9504 318.748C91.703 319.087 91.5109 319.5 91.3742 319.988C91.2375 320.477 91.1691 321.04 91.1691 321.678V322.088C91.1691 322.589 91.2375 323.061 91.3742 323.504C91.5175 323.94 91.7225 324.324 91.9895 324.656C92.2629 324.988 92.5917 325.249 92.9758 325.438C93.3664 325.626 93.8091 325.721 94.3039 325.721C94.9419 325.721 95.4823 325.59 95.925 325.33C96.3677 325.07 96.7551 324.721 97.0871 324.285L98.1809 325.154C97.953 325.499 97.6633 325.828 97.3117 326.141C96.9602 326.453 96.5272 326.707 96.0129 326.902C95.5051 327.098 94.9029 327.195 94.2063 327.195ZM102.49 312V327H100.673V312H102.49ZM107.453 312V327H105.637V312H107.453ZM109.975 321.834V321.609C109.975 320.848 110.086 320.141 110.307 319.49C110.528 318.833 110.847 318.263 111.264 317.781C111.681 317.293 112.185 316.915 112.778 316.648C113.37 316.375 114.034 316.238 114.77 316.238C115.512 316.238 116.179 316.375 116.772 316.648C117.371 316.915 117.879 317.293 118.295 317.781C118.718 318.263 119.041 318.833 119.262 319.49C119.483 320.141 119.594 320.848 119.594 321.609V321.834C119.594 322.596 119.483 323.302 119.262 323.953C119.041 324.604 118.718 325.174 118.295 325.662C117.879 326.144 117.374 326.521 116.782 326.795C116.196 327.062 115.532 327.195 114.789 327.195C114.047 327.195 113.38 327.062 112.788 326.795C112.195 326.521 111.687 326.144 111.264 325.662C110.847 325.174 110.528 324.604 110.307 323.953C110.086 323.302 109.975 322.596 109.975 321.834ZM111.782 321.609V321.834C111.782 322.361 111.843 322.859 111.967 323.328C112.091 323.79 112.276 324.201 112.524 324.559C112.778 324.917 113.093 325.2 113.471 325.408C113.849 325.61 114.288 325.711 114.789 325.711C115.284 325.711 115.717 325.61 116.088 325.408C116.466 325.2 116.778 324.917 117.026 324.559C117.273 324.201 117.459 323.79 117.582 323.328C117.713 322.859 117.778 322.361 117.778 321.834V321.609C117.778 321.089 117.713 320.597 117.582 320.135C117.459 319.666 117.27 319.253 117.016 318.895C116.769 318.53 116.456 318.243 116.079 318.035C115.707 317.827 115.271 317.723 114.77 317.723C114.275 317.723 113.839 317.827 113.461 318.035C113.09 318.243 112.778 318.53 112.524 318.895C112.276 319.253 112.091 319.666 111.967 320.135C111.843 320.597 111.782 321.089 111.782 321.609ZM124.108 312.781L123.981 322.986H122.35L122.214 312.781H124.108ZM122.155 326.092C122.155 325.799 122.243 325.551 122.419 325.35C122.601 325.148 122.868 325.047 123.22 325.047C123.565 325.047 123.828 325.148 124.011 325.35C124.199 325.551 124.294 325.799 124.294 326.092C124.294 326.372 124.199 326.613 124.011 326.814C123.828 327.016 123.565 327.117 123.22 327.117C122.868 327.117 122.601 327.016 122.419 326.814C122.243 326.613 122.155 326.372 122.155 326.092ZM136.701 316.434V317.82H130.988V316.434H136.701ZM132.921 313.865H134.728V324.383C134.728 324.741 134.783 325.011 134.894 325.193C135.005 325.376 135.148 325.496 135.324 325.555C135.5 325.613 135.688 325.643 135.89 325.643C136.04 325.643 136.196 325.63 136.359 325.604C136.528 325.571 136.655 325.545 136.74 325.525L136.75 327C136.606 327.046 136.418 327.088 136.183 327.127C135.955 327.173 135.679 327.195 135.353 327.195C134.91 327.195 134.504 327.107 134.132 326.932C133.761 326.756 133.465 326.463 133.244 326.053C133.029 325.636 132.921 325.076 132.921 324.373V313.865ZM138.246 321.834V321.609C138.246 320.848 138.357 320.141 138.578 319.49C138.799 318.833 139.118 318.263 139.535 317.781C139.952 317.293 140.456 316.915 141.049 316.648C141.641 316.375 142.305 316.238 143.041 316.238C143.783 316.238 144.451 316.375 145.043 316.648C145.642 316.915 146.15 317.293 146.566 317.781C146.99 318.263 147.312 318.833 147.533 319.49C147.755 320.141 147.865 320.848 147.865 321.609V321.834C147.865 322.596 147.755 323.302 147.533 323.953C147.312 324.604 146.99 325.174 146.566 325.662C146.15 326.144 145.645 326.521 145.053 326.795C144.467 327.062 143.803 327.195 143.061 327.195C142.318 327.195 141.651 327.062 141.059 326.795C140.466 326.521 139.958 326.144 139.535 325.662C139.118 325.174 138.799 324.604 138.578 323.953C138.357 323.302 138.246 322.596 138.246 321.834ZM140.053 321.609V321.834C140.053 322.361 140.115 322.859 140.238 323.328C140.362 323.79 140.548 324.201 140.795 324.559C141.049 324.917 141.365 325.2 141.742 325.408C142.12 325.61 142.559 325.711 143.061 325.711C143.555 325.711 143.988 325.61 144.359 325.408C144.737 325.2 145.049 324.917 145.297 324.559C145.544 324.201 145.73 323.79 145.854 323.328C145.984 322.859 146.049 322.361 146.049 321.834V321.609C146.049 321.089 145.984 320.597 145.854 320.135C145.73 319.666 145.541 319.253 145.287 318.895C145.04 318.53 144.727 318.243 144.35 318.035C143.979 317.827 143.542 317.723 143.041 317.723C142.546 317.723 142.11 317.827 141.732 318.035C141.361 318.243 141.049 318.53 140.795 318.895C140.548 319.253 140.362 319.666 140.238 320.135C140.115 320.597 140.053 321.089 140.053 321.609ZM157.098 312V327H155.292V312H157.098ZM156.669 321.316L155.917 321.287C155.923 320.564 156.031 319.897 156.239 319.285C156.447 318.667 156.74 318.13 157.118 317.674C157.496 317.218 157.945 316.867 158.466 316.619C158.993 316.365 159.576 316.238 160.214 316.238C160.735 316.238 161.203 316.31 161.62 316.453C162.037 316.59 162.391 316.811 162.684 317.117C162.984 317.423 163.212 317.82 163.368 318.309C163.524 318.79 163.602 319.38 163.602 320.076V327H161.786V320.057C161.786 319.503 161.705 319.061 161.542 318.729C161.379 318.39 161.141 318.146 160.829 317.996C160.516 317.84 160.132 317.762 159.677 317.762C159.227 317.762 158.817 317.856 158.446 318.045C158.082 318.234 157.766 318.494 157.499 318.826C157.238 319.158 157.033 319.539 156.884 319.969C156.74 320.392 156.669 320.841 156.669 321.316ZM172.638 325.193V319.754C172.638 319.337 172.553 318.976 172.384 318.67C172.221 318.357 171.974 318.117 171.642 317.947C171.31 317.778 170.9 317.693 170.411 317.693C169.956 317.693 169.555 317.771 169.21 317.928C168.872 318.084 168.605 318.289 168.409 318.543C168.221 318.797 168.126 319.07 168.126 319.363H166.32C166.32 318.986 166.417 318.611 166.613 318.24C166.808 317.869 167.088 317.534 167.452 317.234C167.823 316.928 168.266 316.688 168.78 316.512C169.301 316.329 169.881 316.238 170.519 316.238C171.287 316.238 171.964 316.368 172.55 316.629C173.142 316.889 173.605 317.283 173.937 317.811C174.275 318.331 174.445 318.986 174.445 319.773V324.695C174.445 325.047 174.474 325.421 174.532 325.818C174.598 326.215 174.692 326.557 174.816 326.844V327H172.931C172.84 326.792 172.768 326.515 172.716 326.17C172.664 325.818 172.638 325.493 172.638 325.193ZM172.95 320.594L172.97 321.863H171.144C170.629 321.863 170.17 321.906 169.767 321.99C169.363 322.068 169.025 322.189 168.751 322.352C168.478 322.514 168.269 322.719 168.126 322.967C167.983 323.208 167.911 323.491 167.911 323.816C167.911 324.148 167.986 324.451 168.136 324.725C168.286 324.998 168.51 325.216 168.81 325.379C169.116 325.535 169.49 325.613 169.933 325.613C170.486 325.613 170.974 325.496 171.398 325.262C171.821 325.027 172.156 324.741 172.404 324.402C172.657 324.064 172.794 323.735 172.814 323.416L173.585 324.285C173.54 324.559 173.416 324.861 173.214 325.193C173.012 325.525 172.742 325.844 172.404 326.15C172.071 326.45 171.674 326.701 171.212 326.902C170.756 327.098 170.242 327.195 169.669 327.195C168.953 327.195 168.325 327.055 167.784 326.775C167.251 326.495 166.834 326.121 166.534 325.652C166.241 325.177 166.095 324.646 166.095 324.061C166.095 323.494 166.206 322.996 166.427 322.566C166.648 322.13 166.967 321.769 167.384 321.482C167.801 321.189 168.302 320.968 168.888 320.818C169.474 320.669 170.128 320.594 170.851 320.594H172.95ZM183.539 324.197C183.539 323.937 183.48 323.696 183.363 323.475C183.252 323.247 183.021 323.042 182.67 322.859C182.324 322.671 181.804 322.508 181.107 322.371C180.521 322.247 179.991 322.101 179.515 321.932C179.046 321.762 178.646 321.557 178.314 321.316C177.989 321.076 177.738 320.792 177.562 320.467C177.386 320.141 177.298 319.76 177.298 319.324C177.298 318.908 177.39 318.514 177.572 318.143C177.761 317.771 178.024 317.443 178.363 317.156C178.708 316.87 179.121 316.645 179.603 316.482C180.085 316.32 180.622 316.238 181.214 316.238C182.061 316.238 182.783 316.388 183.382 316.688C183.981 316.987 184.44 317.387 184.759 317.889C185.078 318.383 185.238 318.934 185.238 319.539H183.431C183.431 319.246 183.343 318.963 183.168 318.689C182.998 318.41 182.748 318.178 182.416 317.996C182.09 317.814 181.69 317.723 181.214 317.723C180.713 317.723 180.306 317.801 179.994 317.957C179.688 318.107 179.463 318.299 179.32 318.533C179.183 318.768 179.115 319.015 179.115 319.275C179.115 319.471 179.147 319.646 179.213 319.803C179.284 319.952 179.408 320.092 179.584 320.223C179.759 320.346 180.007 320.464 180.326 320.574C180.645 320.685 181.052 320.796 181.546 320.906C182.412 321.102 183.125 321.336 183.685 321.609C184.245 321.883 184.662 322.218 184.935 322.615C185.209 323.012 185.345 323.494 185.345 324.061C185.345 324.523 185.248 324.946 185.052 325.33C184.864 325.714 184.587 326.046 184.222 326.326C183.864 326.6 183.435 326.814 182.933 326.971C182.438 327.12 181.882 327.195 181.263 327.195C180.332 327.195 179.545 327.029 178.9 326.697C178.255 326.365 177.767 325.936 177.435 325.408C177.103 324.881 176.937 324.324 176.937 323.738H178.754C178.78 324.233 178.923 324.627 179.183 324.92C179.444 325.206 179.763 325.411 180.14 325.535C180.518 325.652 180.892 325.711 181.263 325.711C181.758 325.711 182.171 325.646 182.504 325.516C182.842 325.385 183.099 325.206 183.275 324.979C183.451 324.751 183.539 324.49 183.539 324.197ZM193.971 324.197C193.971 323.937 193.912 323.696 193.795 323.475C193.684 323.247 193.453 323.042 193.102 322.859C192.757 322.671 192.236 322.508 191.539 322.371C190.953 322.247 190.423 322.101 189.947 321.932C189.479 321.762 189.078 321.557 188.746 321.316C188.421 321.076 188.17 320.792 187.994 320.467C187.818 320.141 187.73 319.76 187.73 319.324C187.73 318.908 187.822 318.514 188.004 318.143C188.193 317.771 188.456 317.443 188.795 317.156C189.14 316.87 189.553 316.645 190.035 316.482C190.517 316.32 191.054 316.238 191.646 316.238C192.493 316.238 193.215 316.388 193.814 316.688C194.413 316.987 194.872 317.387 195.191 317.889C195.51 318.383 195.67 318.934 195.67 319.539H193.863C193.863 319.246 193.775 318.963 193.6 318.689C193.43 318.41 193.18 318.178 192.848 317.996C192.522 317.814 192.122 317.723 191.646 317.723C191.145 317.723 190.738 317.801 190.426 317.957C190.12 318.107 189.895 318.299 189.752 318.533C189.615 318.768 189.547 319.015 189.547 319.275C189.547 319.471 189.579 319.646 189.645 319.803C189.716 319.952 189.84 320.092 190.016 320.223C190.191 320.346 190.439 320.464 190.758 320.574C191.077 320.685 191.484 320.796 191.979 320.906C192.844 321.102 193.557 321.336 194.117 321.609C194.677 321.883 195.094 322.218 195.367 322.615C195.641 323.012 195.777 323.494 195.777 324.061C195.777 324.523 195.68 324.946 195.484 325.33C195.296 325.714 195.019 326.046 194.654 326.326C194.296 326.6 193.867 326.814 193.365 326.971C192.87 327.12 192.314 327.195 191.695 327.195C190.764 327.195 189.977 327.029 189.332 326.697C188.688 326.365 188.199 325.936 187.867 325.408C187.535 324.881 187.369 324.324 187.369 323.738H189.186C189.212 324.233 189.355 324.627 189.615 324.92C189.876 325.206 190.195 325.411 190.572 325.535C190.95 325.652 191.324 325.711 191.695 325.711C192.19 325.711 192.604 325.646 192.936 325.516C193.274 325.385 193.531 325.206 193.707 324.979C193.883 324.751 193.971 324.49 193.971 324.197ZM200.213 312V327H198.397V312H200.213ZM207.598 327.195C206.863 327.195 206.195 327.072 205.596 326.824C205.004 326.57 204.493 326.215 204.063 325.76C203.64 325.304 203.315 324.764 203.087 324.139C202.859 323.514 202.745 322.83 202.745 322.088V321.678C202.745 320.818 202.872 320.053 203.126 319.383C203.38 318.706 203.725 318.133 204.161 317.664C204.597 317.195 205.092 316.84 205.645 316.6C206.199 316.359 206.772 316.238 207.364 316.238C208.119 316.238 208.77 316.368 209.317 316.629C209.871 316.889 210.323 317.254 210.675 317.723C211.026 318.185 211.287 318.732 211.456 319.363C211.625 319.988 211.71 320.672 211.71 321.414V322.225H203.819V320.75H209.903V320.613C209.877 320.145 209.779 319.689 209.61 319.246C209.447 318.803 209.187 318.439 208.829 318.152C208.471 317.866 207.983 317.723 207.364 317.723C206.954 317.723 206.576 317.811 206.231 317.986C205.886 318.156 205.59 318.41 205.343 318.748C205.095 319.087 204.903 319.5 204.766 319.988C204.63 320.477 204.561 321.04 204.561 321.678V322.088C204.561 322.589 204.63 323.061 204.766 323.504C204.91 323.94 205.115 324.324 205.382 324.656C205.655 324.988 205.984 325.249 206.368 325.438C206.759 325.626 207.201 325.721 207.696 325.721C208.334 325.721 208.874 325.59 209.317 325.33C209.76 325.07 210.147 324.721 210.479 324.285L211.573 325.154C211.345 325.499 211.055 325.828 210.704 326.141C210.352 326.453 209.919 326.707 209.405 326.902C208.897 327.098 208.295 327.195 207.598 327.195ZM217.679 320.213V321.697H212.913V320.213H217.679ZM222.242 327H220.435V315.32C220.435 314.559 220.572 313.917 220.845 313.396C221.125 312.869 221.526 312.472 222.046 312.205C222.567 311.932 223.186 311.795 223.902 311.795C224.11 311.795 224.319 311.808 224.527 311.834C224.742 311.86 224.95 311.899 225.152 311.951L225.054 313.426C224.918 313.393 224.761 313.37 224.586 313.357C224.416 313.344 224.247 313.338 224.078 313.338C223.694 313.338 223.362 313.416 223.082 313.572C222.808 313.722 222.6 313.943 222.457 314.236C222.313 314.529 222.242 314.891 222.242 315.32V327ZM224.488 316.434V317.82H218.765V316.434H224.488ZM228.406 318.094V327H226.6V316.434H228.357L228.406 318.094ZM231.707 316.375L231.697 318.055C231.548 318.022 231.404 318.003 231.268 317.996C231.137 317.983 230.988 317.977 230.818 317.977C230.402 317.977 230.034 318.042 229.715 318.172C229.396 318.302 229.126 318.484 228.904 318.719C228.683 318.953 228.507 319.233 228.377 319.559C228.253 319.878 228.172 320.229 228.133 320.613L227.625 320.906C227.625 320.268 227.687 319.669 227.811 319.109C227.941 318.549 228.139 318.055 228.406 317.625C228.673 317.189 229.012 316.85 229.422 316.609C229.839 316.362 230.333 316.238 230.906 316.238C231.036 316.238 231.186 316.255 231.355 316.287C231.525 316.313 231.642 316.342 231.707 316.375ZM237.666 327.195C236.931 327.195 236.263 327.072 235.664 326.824C235.072 326.57 234.561 326.215 234.131 325.76C233.708 325.304 233.383 324.764 233.155 324.139C232.927 323.514 232.813 322.83 232.813 322.088V321.678C232.813 320.818 232.94 320.053 233.194 319.383C233.448 318.706 233.793 318.133 234.229 317.664C234.665 317.195 235.16 316.84 235.713 316.6C236.267 316.359 236.84 316.238 237.432 316.238C238.187 316.238 238.838 316.368 239.385 316.629C239.939 316.889 240.391 317.254 240.743 317.723C241.094 318.185 241.355 318.732 241.524 319.363C241.693 319.988 241.778 320.672 241.778 321.414V322.225H233.887V320.75H239.971V320.613C239.945 320.145 239.847 319.689 239.678 319.246C239.515 318.803 239.255 318.439 238.897 318.152C238.539 317.866 238.051 317.723 237.432 317.723C237.022 317.723 236.644 317.811 236.299 317.986C235.954 318.156 235.658 318.41 235.411 318.748C235.163 319.087 234.971 319.5 234.834 319.988C234.698 320.477 234.629 321.04 234.629 321.678V322.088C234.629 322.589 234.698 323.061 234.834 323.504C234.978 323.94 235.183 324.324 235.45 324.656C235.723 324.988 236.052 325.249 236.436 325.438C236.827 325.626 237.269 325.721 237.764 325.721C238.402 325.721 238.942 325.59 239.385 325.33C239.828 325.07 240.215 324.721 240.547 324.285L241.641 325.154C241.413 325.499 241.123 325.828 240.772 326.141C240.42 326.453 239.987 326.707 239.473 326.902C238.965 327.098 238.363 327.195 237.666 327.195ZM248.372 327.195C247.636 327.195 246.969 327.072 246.37 326.824C245.777 326.57 245.266 326.215 244.837 325.76C244.414 325.304 244.088 324.764 243.86 324.139C243.632 323.514 243.518 322.83 243.518 322.088V321.678C243.518 320.818 243.645 320.053 243.899 319.383C244.153 318.706 244.498 318.133 244.934 317.664C245.371 317.195 245.865 316.84 246.419 316.6C246.972 316.359 247.545 316.238 248.137 316.238C248.893 316.238 249.544 316.368 250.091 316.629C250.644 316.889 251.096 317.254 251.448 317.723C251.8 318.185 252.06 318.732 252.229 319.363C252.399 319.988 252.483 320.672 252.483 321.414V322.225H244.593V320.75H250.677V320.613C250.651 320.145 250.553 319.689 250.384 319.246C250.221 318.803 249.96 318.439 249.602 318.152C249.244 317.866 248.756 317.723 248.137 317.723C247.727 317.723 247.35 317.811 247.005 317.986C246.66 318.156 246.363 318.41 246.116 318.748C245.869 319.087 245.677 319.5 245.54 319.988C245.403 320.477 245.335 321.04 245.335 321.678V322.088C245.335 322.589 245.403 323.061 245.54 323.504C245.683 323.94 245.888 324.324 246.155 324.656C246.429 324.988 246.757 325.249 247.141 325.438C247.532 325.626 247.975 325.721 248.47 325.721C249.108 325.721 249.648 325.59 250.091 325.33C250.533 325.07 250.921 324.721 251.253 324.285L252.346 325.154C252.119 325.499 251.829 325.828 251.477 326.141C251.126 326.453 250.693 326.707 250.179 326.902C249.671 327.098 249.068 327.195 248.372 327.195ZM264.138 327.195C263.403 327.195 262.735 327.072 262.136 326.824C261.544 326.57 261.033 326.215 260.603 325.76C260.18 325.304 259.854 324.764 259.627 324.139C259.399 323.514 259.285 322.83 259.285 322.088V321.678C259.285 320.818 259.412 320.053 259.666 319.383C259.92 318.706 260.265 318.133 260.701 317.664C261.137 317.195 261.632 316.84 262.185 316.6C262.739 316.359 263.311 316.238 263.904 316.238C264.659 316.238 265.31 316.368 265.857 316.629C266.41 316.889 266.863 317.254 267.214 317.723C267.566 318.185 267.826 318.732 267.996 319.363C268.165 319.988 268.25 320.672 268.25 321.414V322.225H260.359V320.75H266.443V320.613C266.417 320.145 266.319 319.689 266.15 319.246C265.987 318.803 265.727 318.439 265.369 318.152C265.011 317.866 264.522 317.723 263.904 317.723C263.494 317.723 263.116 317.811 262.771 317.986C262.426 318.156 262.13 318.41 261.882 318.748C261.635 319.087 261.443 319.5 261.306 319.988C261.17 320.477 261.101 321.04 261.101 321.678V322.088C261.101 322.589 261.17 323.061 261.306 323.504C261.45 323.94 261.655 324.324 261.922 324.656C262.195 324.988 262.524 325.249 262.908 325.438C263.298 325.626 263.741 325.721 264.236 325.721C264.874 325.721 265.414 325.59 265.857 325.33C266.3 325.07 266.687 324.721 267.019 324.285L268.113 325.154C267.885 325.499 267.595 325.828 267.244 326.141C266.892 326.453 266.459 326.707 265.945 326.902C265.437 327.098 264.835 327.195 264.138 327.195ZM272.256 318.533V327H270.439V316.434H272.158L272.256 318.533ZM271.885 321.316L271.045 321.287C271.051 320.564 271.146 319.897 271.328 319.285C271.51 318.667 271.781 318.13 272.139 317.674C272.497 317.218 272.943 316.867 273.477 316.619C274.01 316.365 274.629 316.238 275.332 316.238C275.827 316.238 276.283 316.31 276.699 316.453C277.116 316.59 277.477 316.808 277.783 317.107C278.089 317.407 278.327 317.791 278.496 318.26C278.665 318.729 278.75 319.295 278.75 319.959V327H276.943V320.047C276.943 319.493 276.849 319.051 276.66 318.719C276.478 318.387 276.217 318.146 275.879 317.996C275.54 317.84 275.143 317.762 274.688 317.762C274.154 317.762 273.708 317.856 273.35 318.045C272.992 318.234 272.705 318.494 272.49 318.826C272.275 319.158 272.119 319.539 272.021 319.969C271.93 320.392 271.885 320.841 271.885 321.316ZM278.73 320.32L277.52 320.691C277.526 320.112 277.62 319.555 277.803 319.021C277.992 318.488 278.262 318.012 278.613 317.596C278.971 317.179 279.411 316.85 279.932 316.609C280.452 316.362 281.048 316.238 281.719 316.238C282.285 316.238 282.786 316.313 283.223 316.463C283.665 316.613 284.036 316.844 284.336 317.156C284.642 317.462 284.873 317.856 285.029 318.338C285.186 318.82 285.264 319.393 285.264 320.057V327H283.447V320.037C283.447 319.445 283.353 318.986 283.164 318.66C282.982 318.328 282.721 318.097 282.383 317.967C282.051 317.83 281.654 317.762 281.191 317.762C280.794 317.762 280.443 317.83 280.137 317.967C279.831 318.104 279.574 318.292 279.365 318.533C279.157 318.768 278.997 319.038 278.887 319.344C278.783 319.65 278.73 319.975 278.73 320.32ZM289.905 318.465V331.062H288.088V316.434H289.748L289.905 318.465ZM297.024 321.629V321.834C297.024 322.602 296.933 323.315 296.75 323.973C296.568 324.624 296.301 325.19 295.95 325.672C295.605 326.154 295.178 326.528 294.67 326.795C294.163 327.062 293.58 327.195 292.922 327.195C292.252 327.195 291.659 327.085 291.145 326.863C290.631 326.642 290.194 326.32 289.836 325.896C289.478 325.473 289.192 324.965 288.977 324.373C288.769 323.781 288.625 323.113 288.547 322.371V321.277C288.625 320.496 288.772 319.796 288.987 319.178C289.202 318.559 289.485 318.032 289.836 317.596C290.194 317.153 290.627 316.818 291.135 316.59C291.643 316.355 292.229 316.238 292.893 316.238C293.557 316.238 294.146 316.368 294.661 316.629C295.175 316.883 295.608 317.247 295.959 317.723C296.311 318.198 296.575 318.768 296.75 319.432C296.933 320.089 297.024 320.822 297.024 321.629ZM295.207 321.834V321.629C295.207 321.102 295.152 320.607 295.041 320.145C294.931 319.676 294.758 319.266 294.524 318.914C294.296 318.556 294.003 318.276 293.645 318.074C293.287 317.866 292.86 317.762 292.366 317.762C291.91 317.762 291.513 317.84 291.174 317.996C290.842 318.152 290.559 318.364 290.325 318.631C290.09 318.891 289.898 319.191 289.748 319.529C289.605 319.861 289.498 320.206 289.426 320.564V323.094C289.556 323.549 289.739 323.979 289.973 324.383C290.207 324.78 290.52 325.102 290.911 325.35C291.301 325.59 291.793 325.711 292.385 325.711C292.873 325.711 293.293 325.61 293.645 325.408C294.003 325.2 294.296 324.917 294.524 324.559C294.758 324.201 294.931 323.79 295.041 323.328C295.152 322.859 295.207 322.361 295.207 321.834ZM301.391 312V327H299.575V312H301.391ZM303.913 321.834V321.609C303.913 320.848 304.024 320.141 304.245 319.49C304.467 318.833 304.786 318.263 305.202 317.781C305.619 317.293 306.124 316.915 306.716 316.648C307.308 316.375 307.973 316.238 308.708 316.238C309.45 316.238 310.118 316.375 310.71 316.648C311.309 316.915 311.817 317.293 312.234 317.781C312.657 318.263 312.979 318.833 313.2 319.49C313.422 320.141 313.532 320.848 313.532 321.609V321.834C313.532 322.596 313.422 323.302 313.2 323.953C312.979 324.604 312.657 325.174 312.234 325.662C311.817 326.144 311.312 326.521 310.72 326.795C310.134 327.062 309.47 327.195 308.728 327.195C307.986 327.195 307.318 327.062 306.726 326.795C306.133 326.521 305.626 326.144 305.202 325.662C304.786 325.174 304.467 324.604 304.245 323.953C304.024 323.302 303.913 322.596 303.913 321.834ZM305.72 321.609V321.834C305.72 322.361 305.782 322.859 305.905 323.328C306.029 323.79 306.215 324.201 306.462 324.559C306.716 324.917 307.032 325.2 307.409 325.408C307.787 325.61 308.226 325.711 308.728 325.711C309.223 325.711 309.655 325.61 310.027 325.408C310.404 325.2 310.717 324.917 310.964 324.559C311.211 324.201 311.397 323.79 311.521 323.328C311.651 322.859 311.716 322.361 311.716 321.834V321.609C311.716 321.089 311.651 320.597 311.521 320.135C311.397 319.666 311.208 319.253 310.954 318.895C310.707 318.53 310.394 318.243 310.017 318.035C309.646 317.827 309.209 317.723 308.708 317.723C308.213 317.723 307.777 317.827 307.4 318.035C307.029 318.243 306.716 318.53 306.462 318.895C306.215 319.253 306.029 319.666 305.905 320.135C305.782 320.597 305.72 321.089 305.72 321.609ZM318.711 325.906L321.65 316.434H323.584L319.345 328.631C319.248 328.891 319.117 329.171 318.955 329.471C318.798 329.777 318.597 330.066 318.349 330.34C318.102 330.613 317.802 330.835 317.451 331.004C317.106 331.18 316.692 331.268 316.211 331.268C316.067 331.268 315.885 331.248 315.664 331.209C315.442 331.17 315.286 331.137 315.195 331.111L315.185 329.646C315.237 329.653 315.319 329.66 315.429 329.666C315.547 329.679 315.628 329.686 315.673 329.686C316.084 329.686 316.432 329.63 316.718 329.52C317.005 329.415 317.246 329.236 317.441 328.982C317.643 328.735 317.815 328.393 317.959 327.957L318.711 325.906ZM316.552 316.434L319.297 324.637L319.765 326.541L318.466 327.205L314.58 316.434H316.552ZM329.562 327.195C328.827 327.195 328.16 327.072 327.561 326.824C326.968 326.57 326.457 326.215 326.027 325.76C325.604 325.304 325.279 324.764 325.051 324.139C324.823 323.514 324.709 322.83 324.709 322.088V321.678C324.709 320.818 324.836 320.053 325.09 319.383C325.344 318.706 325.689 318.133 326.125 317.664C326.561 317.195 327.056 316.84 327.609 316.6C328.163 316.359 328.736 316.238 329.328 316.238C330.083 316.238 330.734 316.368 331.281 316.629C331.835 316.889 332.287 317.254 332.639 317.723C332.99 318.185 333.251 318.732 333.42 319.363C333.589 319.988 333.674 320.672 333.674 321.414V322.225H325.783V320.75H331.867V320.613C331.841 320.145 331.743 319.689 331.574 319.246C331.411 318.803 331.151 318.439 330.793 318.152C330.435 317.866 329.947 317.723 329.328 317.723C328.918 317.723 328.54 317.811 328.195 317.986C327.85 318.156 327.554 318.41 327.307 318.748C327.059 319.087 326.867 319.5 326.73 319.988C326.594 320.477 326.525 321.04 326.525 321.678V322.088C326.525 322.589 326.594 323.061 326.73 323.504C326.874 323.94 327.079 324.324 327.346 324.656C327.619 324.988 327.948 325.249 328.332 325.438C328.723 325.626 329.165 325.721 329.66 325.721C330.298 325.721 330.839 325.59 331.281 325.33C331.724 325.07 332.111 324.721 332.443 324.285L333.537 325.154C333.309 325.499 333.02 325.828 332.668 326.141C332.316 326.453 331.883 326.707 331.369 326.902C330.861 327.098 330.259 327.195 329.562 327.195ZM340.268 327.195C339.532 327.195 338.865 327.072 338.266 326.824C337.674 326.57 337.162 326.215 336.733 325.76C336.31 325.304 335.984 324.764 335.756 324.139C335.528 323.514 335.414 322.83 335.414 322.088V321.678C335.414 320.818 335.541 320.053 335.795 319.383C336.049 318.706 336.394 318.133 336.83 317.664C337.267 317.195 337.761 316.84 338.315 316.6C338.868 316.359 339.441 316.238 340.034 316.238C340.789 316.238 341.44 316.368 341.987 316.629C342.54 316.889 342.993 317.254 343.344 317.723C343.696 318.185 343.956 318.732 344.125 319.363C344.295 319.988 344.379 320.672 344.379 321.414V322.225H336.489V320.75H342.573V320.613C342.547 320.145 342.449 319.689 342.28 319.246C342.117 318.803 341.856 318.439 341.498 318.152C341.14 317.866 340.652 317.723 340.034 317.723C339.623 317.723 339.246 317.811 338.901 317.986C338.556 318.156 338.259 318.41 338.012 318.748C337.765 319.087 337.573 319.5 337.436 319.988C337.299 320.477 337.231 321.04 337.231 321.678V322.088C337.231 322.589 337.299 323.061 337.436 323.504C337.579 323.94 337.784 324.324 338.051 324.656C338.325 324.988 338.653 325.249 339.037 325.438C339.428 325.626 339.871 325.721 340.366 325.721C341.004 325.721 341.544 325.59 341.987 325.33C342.429 325.07 342.817 324.721 343.149 324.285L344.243 325.154C344.015 325.499 343.725 325.828 343.373 326.141C343.022 326.453 342.589 326.707 342.075 326.902C341.567 327.098 340.965 327.195 340.268 327.195ZM353.446 318.533V327H351.63V316.434H353.349L353.446 318.533ZM353.075 321.316L352.236 321.287C352.242 320.564 352.336 319.897 352.519 319.285C352.701 318.667 352.971 318.13 353.329 317.674C353.687 317.218 354.133 316.867 354.667 316.619C355.201 316.365 355.82 316.238 356.523 316.238C357.017 316.238 357.473 316.31 357.89 316.453C358.306 316.59 358.668 316.808 358.974 317.107C359.28 317.407 359.517 317.791 359.687 318.26C359.856 318.729 359.941 319.295 359.941 319.959V327H358.134V320.047C358.134 319.493 358.04 319.051 357.851 318.719C357.668 318.387 357.408 318.146 357.07 317.996C356.731 317.84 356.334 317.762 355.878 317.762C355.344 317.762 354.898 317.856 354.54 318.045C354.182 318.234 353.896 318.494 353.681 318.826C353.466 319.158 353.31 319.539 353.212 319.969C353.121 320.392 353.075 320.841 353.075 321.316ZM359.921 320.32L358.71 320.691C358.717 320.112 358.811 319.555 358.993 319.021C359.182 318.488 359.452 318.012 359.804 317.596C360.162 317.179 360.601 316.85 361.122 316.609C361.643 316.362 362.239 316.238 362.909 316.238C363.476 316.238 363.977 316.313 364.413 316.463C364.856 316.613 365.227 316.844 365.527 317.156C365.833 317.462 366.064 317.856 366.22 318.338C366.376 318.82 366.454 319.393 366.454 320.057V327H364.638V320.037C364.638 319.445 364.543 318.986 364.355 318.66C364.172 318.328 363.912 318.097 363.573 317.967C363.241 317.83 362.844 317.762 362.382 317.762C361.985 317.762 361.633 317.83 361.327 317.967C361.021 318.104 360.764 318.292 360.556 318.533C360.348 318.768 360.188 319.038 360.077 319.344C359.973 319.65 359.921 319.975 359.921 320.32ZM375.519 325.193V319.754C375.519 319.337 375.435 318.976 375.265 318.67C375.102 318.357 374.855 318.117 374.523 317.947C374.191 317.778 373.781 317.693 373.293 317.693C372.837 317.693 372.436 317.771 372.091 317.928C371.753 318.084 371.486 318.289 371.291 318.543C371.102 318.797 371.007 319.07 371.007 319.363H369.201C369.201 318.986 369.298 318.611 369.494 318.24C369.689 317.869 369.969 317.534 370.334 317.234C370.705 316.928 371.147 316.688 371.662 316.512C372.183 316.329 372.762 316.238 373.4 316.238C374.168 316.238 374.845 316.368 375.431 316.629C376.024 316.889 376.486 317.283 376.818 317.811C377.157 318.331 377.326 318.986 377.326 319.773V324.695C377.326 325.047 377.355 325.421 377.414 325.818C377.479 326.215 377.573 326.557 377.697 326.844V327H375.812C375.721 326.792 375.649 326.515 375.597 326.17C375.545 325.818 375.519 325.493 375.519 325.193ZM375.832 320.594L375.851 321.863H374.025C373.511 321.863 373.052 321.906 372.648 321.99C372.244 322.068 371.906 322.189 371.632 322.352C371.359 322.514 371.151 322.719 371.007 322.967C370.864 323.208 370.793 323.491 370.793 323.816C370.793 324.148 370.867 324.451 371.017 324.725C371.167 324.998 371.392 325.216 371.691 325.379C371.997 325.535 372.371 325.613 372.814 325.613C373.367 325.613 373.856 325.496 374.279 325.262C374.702 325.027 375.037 324.741 375.285 324.402C375.539 324.064 375.675 323.735 375.695 323.416L376.466 324.285C376.421 324.559 376.297 324.861 376.095 325.193C375.894 325.525 375.623 325.844 375.285 326.15C374.953 326.45 374.556 326.701 374.093 326.902C373.638 327.098 373.123 327.195 372.55 327.195C371.834 327.195 371.206 327.055 370.666 326.775C370.132 326.495 369.715 326.121 369.416 325.652C369.123 325.177 368.976 324.646 368.976 324.061C368.976 323.494 369.087 322.996 369.308 322.566C369.53 322.13 369.849 321.769 370.265 321.482C370.682 321.189 371.183 320.968 371.769 320.818C372.355 320.669 373.009 320.594 373.732 320.594H375.832ZM382.074 318.689V327H380.268V316.434H381.977L382.074 318.689ZM381.645 321.316L380.893 321.287C380.899 320.564 381.007 319.897 381.215 319.285C381.423 318.667 381.716 318.13 382.094 317.674C382.471 317.218 382.921 316.867 383.441 316.619C383.969 316.365 384.551 316.238 385.189 316.238C385.71 316.238 386.179 316.31 386.596 316.453C387.012 316.59 387.367 316.811 387.66 317.117C387.96 317.423 388.188 317.82 388.344 318.309C388.5 318.79 388.578 319.38 388.578 320.076V327H386.762V320.057C386.762 319.503 386.68 319.061 386.518 318.729C386.355 318.39 386.117 318.146 385.805 317.996C385.492 317.84 385.108 317.762 384.652 317.762C384.203 317.762 383.793 317.856 383.422 318.045C383.057 318.234 382.742 318.494 382.475 318.826C382.214 319.158 382.009 319.539 381.859 319.969C381.716 320.392 381.645 320.841 381.645 321.316ZM397.653 325.193V319.754C397.653 319.337 397.568 318.976 397.399 318.67C397.236 318.357 396.989 318.117 396.657 317.947C396.325 317.778 395.914 317.693 395.426 317.693C394.97 317.693 394.57 317.771 394.225 317.928C393.886 318.084 393.62 318.289 393.424 318.543C393.235 318.797 393.141 319.07 393.141 319.363H391.334C391.334 318.986 391.432 318.611 391.627 318.24C391.823 317.869 392.103 317.534 392.467 317.234C392.838 316.928 393.281 316.688 393.795 316.512C394.316 316.329 394.896 316.238 395.534 316.238C396.302 316.238 396.979 316.368 397.565 316.629C398.157 316.889 398.62 317.283 398.952 317.811C399.29 318.331 399.459 318.986 399.459 319.773V324.695C399.459 325.047 399.489 325.421 399.547 325.818C399.612 326.215 399.707 326.557 399.83 326.844V327H397.946C397.855 326.792 397.783 326.515 397.731 326.17C397.679 325.818 397.653 325.493 397.653 325.193ZM397.965 320.594L397.985 321.863H396.159C395.644 321.863 395.185 321.906 394.782 321.99C394.378 322.068 394.039 322.189 393.766 322.352C393.493 322.514 393.284 322.719 393.141 322.967C392.998 323.208 392.926 323.491 392.926 323.816C392.926 324.148 393.001 324.451 393.151 324.725C393.3 324.998 393.525 325.216 393.825 325.379C394.131 325.535 394.505 325.613 394.948 325.613C395.501 325.613 395.989 325.496 396.412 325.262C396.836 325.027 397.171 324.741 397.418 324.402C397.672 324.064 397.809 323.735 397.828 323.416L398.6 324.285C398.554 324.559 398.431 324.861 398.229 325.193C398.027 325.525 397.757 325.844 397.418 326.15C397.086 326.45 396.689 326.701 396.227 326.902C395.771 327.098 395.257 327.195 394.684 327.195C393.968 327.195 393.34 327.055 392.799 326.775C392.265 326.495 391.849 326.121 391.549 325.652C391.256 325.177 391.11 324.646 391.11 324.061C391.11 323.494 391.22 322.996 391.442 322.566C391.663 322.13 391.982 321.769 392.399 321.482C392.815 321.189 393.317 320.968 393.903 320.818C394.489 320.669 395.143 320.594 395.866 320.594H397.965ZM409.247 316.434H410.888V326.775C410.888 327.706 410.699 328.501 410.321 329.158C409.944 329.816 409.416 330.314 408.739 330.652C408.069 330.997 407.294 331.17 406.415 331.17C406.05 331.17 405.621 331.111 405.126 330.994C404.638 330.883 404.156 330.691 403.68 330.418C403.212 330.151 402.818 329.79 402.499 329.334L403.446 328.26C403.889 328.794 404.351 329.165 404.833 329.373C405.321 329.581 405.803 329.686 406.278 329.686C406.851 329.686 407.346 329.578 407.763 329.363C408.179 329.148 408.501 328.829 408.729 328.406C408.964 327.99 409.081 327.475 409.081 326.863V318.758L409.247 316.434ZM401.971 321.834V321.629C401.971 320.822 402.066 320.089 402.255 319.432C402.45 318.768 402.727 318.198 403.085 317.723C403.449 317.247 403.889 316.883 404.403 316.629C404.917 316.368 405.497 316.238 406.141 316.238C406.805 316.238 407.385 316.355 407.88 316.59C408.381 316.818 408.804 317.153 409.149 317.596C409.501 318.032 409.777 318.559 409.979 319.178C410.181 319.796 410.321 320.496 410.399 321.277V322.176C410.328 322.951 410.188 323.647 409.979 324.266C409.777 324.884 409.501 325.411 409.149 325.848C408.804 326.284 408.381 326.619 407.88 326.854C407.378 327.081 406.792 327.195 406.122 327.195C405.49 327.195 404.917 327.062 404.403 326.795C403.895 326.528 403.459 326.154 403.095 325.672C402.73 325.19 402.45 324.624 402.255 323.973C402.066 323.315 401.971 322.602 401.971 321.834ZM403.778 321.629V321.834C403.778 322.361 403.83 322.856 403.934 323.318C404.045 323.781 404.211 324.188 404.432 324.539C404.66 324.891 404.95 325.167 405.302 325.369C405.653 325.564 406.073 325.662 406.561 325.662C407.16 325.662 407.655 325.535 408.046 325.281C408.436 325.027 408.746 324.692 408.973 324.275C409.208 323.859 409.39 323.406 409.52 322.918V320.564C409.449 320.206 409.338 319.861 409.188 319.529C409.045 319.191 408.856 318.891 408.622 318.631C408.394 318.364 408.111 318.152 407.772 317.996C407.434 317.84 407.037 317.762 406.581 317.762C406.086 317.762 405.66 317.866 405.302 318.074C404.95 318.276 404.66 318.556 404.432 318.914C404.211 319.266 404.045 319.676 403.934 320.145C403.83 320.607 403.778 321.102 403.778 321.629ZM418.116 327.195C417.381 327.195 416.713 327.072 416.114 326.824C415.522 326.57 415.011 326.215 414.581 325.76C414.158 325.304 413.833 324.764 413.605 324.139C413.377 323.514 413.263 322.83 413.263 322.088V321.678C413.263 320.818 413.39 320.053 413.644 319.383C413.898 318.706 414.243 318.133 414.679 317.664C415.115 317.195 415.61 316.84 416.163 316.6C416.717 316.359 417.29 316.238 417.882 316.238C418.637 316.238 419.288 316.368 419.835 316.629C420.389 316.889 420.841 317.254 421.193 317.723C421.544 318.185 421.805 318.732 421.974 319.363C422.143 319.988 422.228 320.672 422.228 321.414V322.225H414.337V320.75H420.421V320.613C420.395 320.145 420.297 319.689 420.128 319.246C419.965 318.803 419.705 318.439 419.347 318.152C418.989 317.866 418.501 317.723 417.882 317.723C417.472 317.723 417.094 317.811 416.749 317.986C416.404 318.156 416.108 318.41 415.861 318.748C415.613 319.087 415.421 319.5 415.284 319.988C415.148 320.477 415.079 321.04 415.079 321.678V322.088C415.079 322.589 415.148 323.061 415.284 323.504C415.428 323.94 415.633 324.324 415.9 324.656C416.173 324.988 416.502 325.249 416.886 325.438C417.277 325.626 417.719 325.721 418.214 325.721C418.852 325.721 419.392 325.59 419.835 325.33C420.278 325.07 420.665 324.721 420.997 324.285L422.091 325.154C421.863 325.499 421.573 325.828 421.222 326.141C420.87 326.453 420.437 326.707 419.923 326.902C419.415 327.098 418.813 327.195 418.116 327.195ZM426.234 318.533V327H424.418V316.434H426.136L426.234 318.533ZM425.863 321.316L425.023 321.287C425.03 320.564 425.124 319.897 425.306 319.285C425.489 318.667 425.759 318.13 426.117 317.674C426.475 317.218 426.921 316.867 427.455 316.619C427.989 316.365 428.607 316.238 429.31 316.238C429.805 316.238 430.261 316.31 430.677 316.453C431.094 316.59 431.455 316.808 431.761 317.107C432.067 317.407 432.305 317.791 432.474 318.26C432.644 318.729 432.728 319.295 432.728 319.959V327H430.922V320.047C430.922 319.493 430.827 319.051 430.638 318.719C430.456 318.387 430.196 318.146 429.857 317.996C429.519 317.84 429.121 317.762 428.666 317.762C428.132 317.762 427.686 317.856 427.328 318.045C426.97 318.234 426.683 318.494 426.468 318.826C426.254 319.158 426.097 319.539 426 319.969C425.908 320.392 425.863 320.841 425.863 321.316ZM432.709 320.32L431.498 320.691C431.504 320.112 431.599 319.555 431.781 319.021C431.97 318.488 432.24 318.012 432.591 317.596C432.95 317.179 433.389 316.85 433.91 316.609C434.431 316.362 435.026 316.238 435.697 316.238C436.263 316.238 436.765 316.313 437.201 316.463C437.644 316.613 438.015 316.844 438.314 317.156C438.62 317.462 438.851 317.856 439.007 318.338C439.164 318.82 439.242 319.393 439.242 320.057V327H437.425V320.037C437.425 319.445 437.331 318.986 437.142 318.66C436.96 318.328 436.7 318.097 436.361 317.967C436.029 317.83 435.632 317.762 435.17 317.762C434.772 317.762 434.421 317.83 434.115 317.967C433.809 318.104 433.552 318.292 433.343 318.533C433.135 318.768 432.976 319.038 432.865 319.344C432.761 319.65 432.709 319.975 432.709 320.32ZM446.461 327.195C445.725 327.195 445.058 327.072 444.459 326.824C443.867 326.57 443.355 326.215 442.926 325.76C442.503 325.304 442.177 324.764 441.949 324.139C441.721 323.514 441.607 322.83 441.607 322.088V321.678C441.607 320.818 441.734 320.053 441.988 319.383C442.242 318.706 442.587 318.133 443.023 317.664C443.46 317.195 443.954 316.84 444.508 316.6C445.061 316.359 445.634 316.238 446.227 316.238C446.982 316.238 447.633 316.368 448.18 316.629C448.733 316.889 449.186 317.254 449.537 317.723C449.889 318.185 450.149 318.732 450.318 319.363C450.488 319.988 450.572 320.672 450.572 321.414V322.225H442.682V320.75H448.766V320.613C448.74 320.145 448.642 319.689 448.473 319.246C448.31 318.803 448.049 318.439 447.691 318.152C447.333 317.866 446.845 317.723 446.227 317.723C445.816 317.723 445.439 317.811 445.094 317.986C444.749 318.156 444.452 318.41 444.205 318.748C443.958 319.087 443.766 319.5 443.629 319.988C443.492 320.477 443.424 321.04 443.424 321.678V322.088C443.424 322.589 443.492 323.061 443.629 323.504C443.772 323.94 443.977 324.324 444.244 324.656C444.518 324.988 444.846 325.249 445.23 325.438C445.621 325.626 446.064 325.721 446.559 325.721C447.197 325.721 447.737 325.59 448.18 325.33C448.622 325.07 449.01 324.721 449.342 324.285L450.436 325.154C450.208 325.499 449.918 325.828 449.566 326.141C449.215 326.453 448.782 326.707 448.268 326.902C447.76 327.098 447.158 327.195 446.461 327.195ZM454.588 318.689V327H452.782V316.434H454.491L454.588 318.689ZM454.159 321.316L453.407 321.287C453.413 320.564 453.521 319.897 453.729 319.285C453.937 318.667 454.23 318.13 454.608 317.674C454.985 317.218 455.435 316.867 455.955 316.619C456.483 316.365 457.065 316.238 457.703 316.238C458.224 316.238 458.693 316.31 459.11 316.453C459.526 316.59 459.881 316.811 460.174 317.117C460.474 317.423 460.702 317.82 460.858 318.309C461.014 318.79 461.092 319.38 461.092 320.076V327H459.276V320.057C459.276 319.503 459.194 319.061 459.032 318.729C458.869 318.39 458.631 318.146 458.319 317.996C458.006 317.84 457.622 317.762 457.166 317.762C456.717 317.762 456.307 317.856 455.936 318.045C455.571 318.234 455.256 318.494 454.989 318.826C454.728 319.158 454.523 319.539 454.373 319.969C454.23 320.392 454.159 320.841 454.159 321.316ZM468.36 316.434V317.82H462.647V316.434H468.36ZM464.581 313.865H466.388V324.383C466.388 324.741 466.443 325.011 466.554 325.193C466.664 325.376 466.807 325.496 466.983 325.555C467.159 325.613 467.348 325.643 467.55 325.643C467.699 325.643 467.856 325.63 468.018 325.604C468.188 325.571 468.315 325.545 468.399 325.525L468.409 327C468.266 327.046 468.077 327.088 467.843 327.127C467.615 327.173 467.338 327.195 467.013 327.195C466.57 327.195 466.163 327.107 465.792 326.932C465.421 326.756 465.124 326.463 464.903 326.053C464.688 325.636 464.581 325.076 464.581 324.373V313.865Z" fill="#0F1E3A"/>
<defs>
<clipPath id="clip0_1_353">
<rect width="333" height="273" fill="white" transform="translate(88)"/>
</clipPath>
</defs>
</svg>
