<svg width="509" height="366" viewBox="0 0 509 366" fill="none" xmlns="http://www.w3.org/2000/svg">
<g clip-path="url(#clip0_1_130)">
<path d="M194.265 255.152L188.671 260.302L193.117 252.842C189.614 246.49 183.885 241 183.885 241C183.885 241 172 252.387 172 261.338C172 270.289 177.321 273.414 183.885 273.414C190.449 273.414 195.77 270.289 195.77 261.338C195.696 259.195 195.184 257.089 194.265 255.152Z" fill="#F2F2F2"/>
<path d="M186.872 260.305V260.746C186.846 265.875 185.981 269.876 184.284 272.694C184.26 272.735 184.234 272.775 184.21 272.816L184.019 272.7L183.838 272.587C185.721 269.544 186.387 265.243 186.411 260.77C186.413 260.626 186.416 260.48 186.413 260.333C186.407 258.44 186.291 256.524 186.105 254.663C186.092 254.519 186.077 254.373 186.062 254.226C185.804 251.771 185.433 249.426 185.053 247.388C185.026 247.244 184.998 247.099 184.97 246.957C184.312 243.511 183.642 241.014 183.489 240.462C183.471 240.394 183.46 240.357 183.458 240.348L183.666 240.289L183.668 240.287L183.878 240.228C183.88 240.237 183.917 240.361 183.978 240.593C184.212 241.458 184.819 243.806 185.415 246.903C185.441 247.043 185.47 247.187 185.496 247.331C185.806 248.984 186.11 250.832 186.35 252.772C186.411 253.259 186.466 253.739 186.514 254.213C186.531 254.36 186.547 254.506 186.56 254.65C186.761 256.662 186.865 258.547 186.872 260.305Z" fill="white"/>
<path d="M185.415 246.903C185.269 246.922 185.12 246.942 184.97 246.957C184.56 247 184.149 247.021 183.738 247.021C181.984 247.023 180.253 246.632 178.67 245.876C178.579 245.992 178.487 246.108 178.393 246.226C180.057 247.038 181.885 247.46 183.738 247.458C184.177 247.457 184.616 247.434 185.053 247.388C185.201 247.372 185.35 247.353 185.496 247.331C186.704 247.158 187.879 246.802 188.98 246.276C188.886 246.156 188.794 246.038 188.705 245.922C187.662 246.409 186.554 246.74 185.415 246.903Z" fill="white"/>
<path d="M186.514 254.213C186.363 254.222 186.212 254.226 186.062 254.226C186.016 254.229 185.968 254.229 185.922 254.229C184.022 254.229 182.15 253.769 180.466 252.889C178.782 252.01 177.336 250.736 176.25 249.177C176.163 249.305 176.076 249.434 175.99 249.565C177.122 251.143 178.613 252.429 180.34 253.316C182.067 254.203 183.98 254.665 185.922 254.665C185.983 254.665 186.044 254.665 186.105 254.663C186.258 254.661 186.409 254.657 186.56 254.65C188.892 254.531 191.14 253.742 193.036 252.379C192.966 252.25 192.896 252.121 192.824 251.992C190.982 253.331 188.789 254.103 186.514 254.213Z" fill="white"/>
<path d="M186.872 260.305C186.719 260.318 186.566 260.327 186.413 260.333C186.25 260.34 186.086 260.344 185.922 260.344C183.369 260.341 180.885 259.512 178.843 257.979C176.802 256.447 175.311 254.294 174.595 251.843C174.496 252.02 174.398 252.195 174.304 252.372C175.111 254.817 176.668 256.945 178.754 258.455C180.839 259.964 183.347 260.778 185.922 260.781C186.086 260.781 186.25 260.779 186.411 260.77C186.566 260.766 186.719 260.757 186.872 260.746C189.96 260.505 192.841 259.098 194.932 256.812C194.886 256.651 194.833 256.491 194.781 256.33C192.762 258.633 189.925 260.059 186.872 260.305Z" fill="white"/>
<path d="M403.778 262.714L396.186 263.152L404.353 260.2C405.67 253.066 404.719 245.189 404.719 245.189C404.719 245.189 388.308 246.463 382.635 253.387C376.962 260.31 379.097 266.1 384.174 270.261C389.251 274.421 395.347 275.376 401.021 268.453C402.322 266.748 403.26 264.795 403.778 262.714Z" fill="#F2F2F2"/>
<path d="M394.897 262.456L394.617 262.797C391.346 266.747 388.141 269.294 385.042 270.397C384.998 270.414 384.952 270.428 384.907 270.445L384.834 270.235L384.766 270.032C388.15 268.872 391.392 265.968 394.245 262.523C394.338 262.413 394.433 262.301 394.524 262.187C395.719 260.718 396.844 259.163 397.88 257.606C397.961 257.486 398.042 257.363 398.123 257.24C399.479 255.178 400.679 253.128 401.677 251.311C401.748 251.183 401.817 251.054 401.885 250.926C403.561 247.843 404.625 245.487 404.857 244.963C404.886 244.899 404.901 244.864 404.905 244.856L405.103 244.941L405.106 244.941L405.306 245.028C405.302 245.037 405.252 245.156 405.152 245.374C404.785 246.191 403.766 248.392 402.265 251.166C402.196 251.291 402.127 251.42 402.056 251.548C401.248 253.024 400.311 254.645 399.268 256.298C399.006 256.713 398.744 257.12 398.481 257.517C398.401 257.641 398.321 257.764 398.239 257.884C397.12 259.567 396.005 261.091 394.897 262.456Z" fill="white"/>
<path d="M402.264 251.166C402.139 251.088 402.011 251.009 401.885 250.926C401.542 250.699 401.211 250.455 400.892 250.194C399.535 249.084 398.443 247.684 397.698 246.097C397.554 246.128 397.41 246.16 397.262 246.191C398.035 247.875 399.182 249.359 400.615 250.532C400.955 250.81 401.309 251.07 401.677 251.311C401.801 251.393 401.929 251.472 402.056 251.548C403.1 252.18 404.234 252.649 405.419 252.94C405.422 252.788 405.426 252.639 405.43 252.492C404.315 252.208 403.249 251.761 402.264 251.166Z" fill="white"/>
<path d="M398.481 257.517C398.359 257.428 398.239 257.336 398.123 257.24C398.086 257.213 398.049 257.182 398.013 257.153C396.544 255.949 395.387 254.407 394.642 252.66C393.897 250.912 393.586 249.01 393.734 247.116C393.585 247.16 393.436 247.204 393.287 247.252C393.162 249.189 393.5 251.129 394.274 252.909C395.048 254.69 396.235 256.261 397.736 257.491C397.784 257.53 397.831 257.569 397.88 257.606C397.999 257.701 398.119 257.793 398.239 257.884C400.119 259.269 402.358 260.085 404.688 260.231C404.716 260.087 404.743 259.944 404.769 259.798C402.496 259.666 400.31 258.873 398.481 257.517Z" fill="white"/>
<path d="M394.897 262.456C394.77 262.369 394.646 262.279 394.524 262.187C394.393 262.088 394.264 261.988 394.137 261.884C392.164 260.263 390.769 258.047 390.161 255.568C389.553 253.088 389.764 250.478 390.764 248.129C390.575 248.204 390.389 248.276 390.204 248.354C389.278 250.756 389.134 253.389 389.79 255.879C390.446 258.368 391.87 260.588 393.86 262.222C393.987 262.325 394.115 262.428 394.245 262.523C394.368 262.618 394.492 262.708 394.617 262.797C397.159 264.567 400.278 265.306 403.344 264.863C403.411 264.708 403.472 264.552 403.534 264.394C400.512 264.895 397.414 264.2 394.897 262.456Z" fill="white"/>
<path d="M140.407 267.859L146.327 267.858L147.426 244.902L140.406 245.026L140.407 267.859Z" fill="#FFB6B6"/>
<path d="M138.897 265.926L150.555 265.925H150.556C152.526 265.926 154.416 266.708 155.809 268.102C157.202 269.495 157.985 271.384 157.985 273.355V273.596L138.898 273.597L138.897 265.926Z" fill="#2F2E41"/>
<path d="M116.477 267.859L122.396 267.858L123.57 244.902L116.475 245.026L116.477 267.859Z" fill="#FFB6B6"/>
<path d="M114.967 265.926L126.625 265.925H126.625C128.595 265.926 130.485 266.708 131.878 268.102C133.272 269.495 134.054 271.384 134.054 273.355V273.596L114.967 273.597L114.967 265.926Z" fill="#2F2E41"/>
<path d="M174.141 169.514C174.118 168.828 173.944 168.156 173.633 167.545C173.321 166.933 172.88 166.397 172.339 165.975C171.798 165.553 171.171 165.255 170.503 165.101C169.834 164.947 169.14 164.942 168.469 165.085L159.826 150.822L156.111 158.652L164.888 170.996C165.204 172.107 165.916 173.064 166.89 173.685C167.864 174.306 169.032 174.548 170.173 174.365C171.314 174.182 172.348 173.588 173.079 172.693C173.81 171.799 174.188 170.668 174.141 169.514Z" fill="#FFB6B6"/>
<path d="M101.916 184.433C102.32 183.878 102.596 183.241 102.727 182.568C102.858 181.894 102.839 181.2 102.672 180.535C102.506 179.869 102.195 179.248 101.763 178.715C101.33 178.183 100.786 177.752 100.169 177.452L102.13 160.89L94.3846 164.777L93.7096 179.909C93.275 180.979 93.2481 182.172 93.634 183.26C94.02 184.349 94.7919 185.258 95.8035 185.816C96.8151 186.374 97.9961 186.541 99.1228 186.286C100.249 186.031 101.243 185.372 101.916 184.433Z" fill="#FFB6B6"/>
<path d="M143.878 167.656L148.07 170.139C148.07 170.139 151.476 172.307 150.331 187.389C149.186 202.47 147.817 262.892 147.817 262.892H140.386L128.352 190.714L123.961 263.674L116.139 263.283C116.139 263.283 100.159 180.218 107.073 171.203L143.878 167.656Z" fill="#2F2E41"/>
<path d="M104.543 114.285C104.543 114.285 124.929 107.731 141.377 113.841L140.03 145.567L150.176 170.315C150.176 170.315 117.922 182.826 107.173 172.312L110.308 147.523L104.543 114.285Z" fill="#4094F7"/>
<path d="M135.896 117.567L140.168 113.841C140.168 113.841 143.018 113.808 145.47 118.192C147.923 122.576 152.365 136.727 152.365 136.727L166.589 160.82L160.331 165.121L137.773 133.573L135.896 117.567Z" fill="#4094F7"/>
<path d="M105.3 115.849L105.591 113.861C105.591 113.861 97.648 114.449 96.9761 122.102C96.3042 129.756 93.8474 172.943 93.8474 172.943L101.704 174.508L109.52 130.182L105.3 115.849Z" fill="#4094F7"/>
<path d="M132.836 102.818L109.006 107.511C108.516 107.607 108.007 107.504 107.592 107.226C107.178 106.948 106.89 106.516 106.793 106.026L104.77 95.7543C104.054 92.1047 104.816 88.3199 106.889 85.2319C108.962 82.1439 112.176 80.0056 115.825 79.287C119.475 78.5684 123.26 79.3284 126.349 81.3999C129.438 83.4713 131.578 86.6847 132.299 90.3336L134.321 100.605C134.417 101.096 134.315 101.604 134.036 102.019C133.758 102.434 133.326 102.721 132.836 102.818Z" fill="#2F2E41"/>
<path d="M121.715 104.562C127.396 104.562 132 99.9574 132 94.2771C132 88.5968 127.396 83.9919 121.715 83.9919C116.035 83.9919 111.43 88.5968 111.43 94.2771C111.43 99.9574 116.035 104.562 121.715 104.562Z" fill="#FFB6B6"/>
<path d="M135.757 90.7195L121.185 93.5889L120.624 91.5263L120.289 93.7654L118.045 94.2073L116.932 90.1192L116.268 94.5572L111.927 95.4121L111.886 95.2066C111.321 92.3193 111.924 89.3257 113.563 86.8826C115.203 84.4394 117.744 82.7463 120.63 82.1746L122.685 81.7701C125.572 81.2049 128.565 81.8081 131.009 83.4473C133.452 85.0866 135.145 87.628 135.717 90.5141L135.757 90.7195Z" fill="#2F2E41"/>
<path d="M123.628 106.623C123.518 106.645 123.407 106.657 123.295 106.659L112.254 106.877L108.782 89.2428L120.528 86.9299L120.304 87.3262C117.187 92.8415 121.742 99.8925 124.734 103.605C124.954 103.876 125.093 104.205 125.135 104.552C125.177 104.899 125.12 105.251 124.97 105.567C124.846 105.837 124.66 106.073 124.426 106.257C124.193 106.44 123.919 106.566 123.628 106.623Z" fill="#2F2E41"/>
<path d="M280.419 0.115479H138.117V74.8344H280.419V0.115479Z" fill="#F2F2F2"/>
<path d="M280.332 0H138.03V8.66199H280.332V0Z" fill="#E6E6E6"/>
<path d="M277.755 12.174H141.335V70.8958H277.755V12.174Z" fill="white"/>
<path d="M151.514 5.74173C152.306 5.74173 152.947 5.10021 152.947 4.30886C152.947 3.51751 152.306 2.87599 151.514 2.87599C150.723 2.87599 150.081 3.51751 150.081 4.30886C150.081 5.10021 150.723 5.74173 151.514 5.74173Z" fill="white"/>
<path d="M156.953 5.74173C157.745 5.74173 158.386 5.10021 158.386 4.30886C158.386 3.51751 157.745 2.87599 156.953 2.87599C156.162 2.87599 155.52 3.51751 155.52 4.30886C155.52 5.10021 156.162 5.74173 156.953 5.74173Z" fill="white"/>
<path d="M146.061 5.74173C146.853 5.74173 147.494 5.10021 147.494 4.30886C147.494 3.51751 146.853 2.87599 146.061 2.87599C145.27 2.87599 144.628 3.51751 144.628 4.30886C144.628 5.10021 145.27 5.74173 146.061 5.74173Z" fill="white"/>
<path d="M164.576 56.5568C165.966 56.5568 167.093 55.4297 167.093 54.0393C167.093 52.6489 165.966 51.5218 164.576 51.5218C163.186 51.5218 162.058 52.6489 162.058 54.0393C162.058 55.4297 163.186 56.5568 164.576 56.5568Z" fill="#DCE0E5"/>
<path d="M186.814 49.9636C188.204 49.9636 189.331 48.8365 189.331 47.4461C189.331 46.0558 188.204 44.9286 186.814 44.9286C185.423 44.9286 184.296 46.0558 184.296 47.4461C184.296 48.8365 185.423 49.9636 186.814 49.9636Z" fill="#DCE0E5"/>
<path d="M209.052 56.5568C210.442 56.5568 211.569 55.4297 211.569 54.0393C211.569 52.6489 210.442 51.5218 209.052 51.5218C207.661 51.5218 206.534 52.6489 206.534 54.0393C206.534 55.4297 207.661 56.5568 209.052 56.5568Z" fill="#DCE0E5"/>
<path d="M231.289 23.3001C232.68 23.3001 233.807 22.173 233.807 20.7827C233.807 19.3923 232.68 18.2652 231.289 18.2652C229.899 18.2652 228.772 19.3923 228.772 20.7827C228.772 22.173 229.899 23.3001 231.289 23.3001Z" fill="#DCE0E5"/>
<path d="M253.527 22.9903C254.918 22.9903 256.045 21.8631 256.045 20.4728C256.045 19.0824 254.918 17.9553 253.527 17.9553C252.137 17.9553 251.01 19.0824 251.01 20.4728C251.01 21.8631 252.137 22.9903 253.527 22.9903Z" fill="#DCE0E5"/>
<path d="M209.105 54.6033L186.814 47.6777L164.828 54.3752L164.324 53.7036L186.814 46.6293L208.999 53.4755L231.044 20.4294L231.133 20.3933L253.371 20.3542L253.684 21.1329L231.535 21.1363L209.105 54.6033Z" fill="#DCE0E5"/>
<path d="M304.252 97.973H170.337V168.288H304.252V97.973Z" fill="#F2F2F2"/>
<path d="M304.17 97.8643H170.255V106.016H304.17V97.8643Z" fill="#E6E6E6"/>
<path d="M301.745 108.85H173.16V164.707H301.745V108.85Z" fill="white"/>
<path d="M182.945 103.268C183.69 103.268 184.293 102.664 184.293 101.919C184.293 101.174 183.69 100.571 182.945 100.571C182.2 100.571 181.596 101.174 181.596 101.919C181.596 102.664 182.2 103.268 182.945 103.268Z" fill="white"/>
<path d="M188.063 103.268C188.808 103.268 189.412 102.664 189.412 101.919C189.412 101.174 188.808 100.571 188.063 100.571C187.319 100.571 186.715 101.174 186.715 101.919C186.715 102.664 187.319 103.268 188.063 103.268Z" fill="white"/>
<path d="M177.813 103.268C178.558 103.268 179.162 102.664 179.162 101.919C179.162 101.174 178.558 100.571 177.813 100.571C177.069 100.571 176.465 101.174 176.465 101.919C176.465 102.664 177.069 103.268 177.813 103.268Z" fill="white"/>
<path d="M393.649 30.8152H234.803V114.221H393.649V30.8152Z" fill="#E6E6E6"/>
<path d="M393.552 30.6863H234.706V40.3553H393.552V30.6863Z" fill="#4094F7"/>
<path d="M389.828 43.3252H238.369V109.566H389.828V43.3252Z" fill="white"/>
<path d="M249.758 37.0956C250.641 37.0956 251.358 36.3795 251.358 35.4961C251.358 34.6128 250.641 33.8967 249.758 33.8967C248.875 33.8967 248.159 34.6128 248.159 35.4961C248.159 36.3795 248.875 37.0956 249.758 37.0956Z" fill="white"/>
<path d="M255.829 37.0956C256.713 37.0956 257.429 36.3795 257.429 35.4961C257.429 34.6128 256.713 33.8967 255.829 33.8967C254.946 33.8967 254.23 34.6128 254.23 35.4961C254.23 36.3795 254.946 37.0956 255.829 37.0956Z" fill="white"/>
<path d="M243.671 37.0956C244.554 37.0956 245.271 36.3795 245.271 35.4961C245.271 34.6128 244.554 33.8967 243.671 33.8967C242.788 33.8967 242.072 34.6128 242.072 35.4961C242.072 36.3795 242.788 37.0956 243.671 37.0956Z" fill="white"/>
<path d="M315.18 57.8399C314.865 57.8817 314.576 58.0364 314.367 58.2753C314.157 58.5141 314.042 58.8209 314.042 59.1385C314.042 59.456 314.157 59.7628 314.367 60.0017C314.576 60.2405 314.865 60.3953 315.18 60.437H368.813C369.128 60.3953 369.417 60.2405 369.626 60.0017C369.835 59.7628 369.95 59.456 369.95 59.1385C369.95 58.8209 369.835 58.5141 369.626 58.2753C369.417 58.0364 369.128 57.8817 368.813 57.8399H315.18Z" fill="#E6E6E6"/>
<path d="M315.18 88.4666C314.865 88.5084 314.576 88.6631 314.367 88.9019C314.157 89.1408 314.042 89.4476 314.042 89.7652C314.042 90.0827 314.157 90.3895 314.367 90.6284C314.576 90.8672 314.865 91.0219 315.18 91.0637H368.813C369.128 91.0219 369.417 90.8672 369.626 90.6284C369.835 90.3895 369.95 90.0827 369.95 89.7652C369.95 89.4476 369.835 89.1408 369.626 88.9019C369.417 88.6631 369.128 88.5084 368.813 88.4666H315.18Z" fill="#E6E6E6"/>
<path d="M315.18 65.6312C314.865 65.6729 314.576 65.8276 314.367 66.0665C314.157 66.3053 314.042 66.6121 314.042 66.9297C314.042 67.2473 314.157 67.554 314.367 67.7929C314.576 68.0318 314.865 68.1865 315.18 68.2282H338.258C338.573 68.1865 338.862 68.0318 339.071 67.7929C339.28 67.554 339.396 67.2473 339.396 66.9297C339.396 66.6121 339.28 66.3053 339.071 66.0665C338.862 65.8276 338.573 65.6729 338.258 65.6312H315.18Z" fill="#E6E6E6"/>
<path d="M315.18 73.0577C314.865 73.0995 314.576 73.2542 314.367 73.4931C314.157 73.7319 314.042 74.0387 314.042 74.3563C314.042 74.6739 314.157 74.9806 314.367 75.2195C314.576 75.4584 314.865 75.6131 315.18 75.6548H368.813C369.128 75.6131 369.417 75.4584 369.626 75.2195C369.835 74.9806 369.95 74.6739 369.95 74.3563C369.95 74.0387 369.835 73.7319 369.626 73.4931C369.417 73.2542 369.128 73.0995 368.813 73.0577H315.18Z" fill="#E6E6E6"/>
<path d="M315.18 80.849C314.865 80.8907 314.576 81.0455 314.367 81.2843C314.157 81.5232 314.042 81.83 314.042 82.1475C314.042 82.4651 314.157 82.7719 314.367 83.0107C314.576 83.2496 314.865 83.4043 315.18 83.4461H338.258C338.573 83.4043 338.862 83.2496 339.071 83.0107C339.28 82.7719 339.396 82.4651 339.396 82.1475C339.396 81.83 339.28 81.5232 339.071 81.2843C338.862 81.0455 338.573 80.8907 338.258 80.849H315.18Z" fill="#E6E6E6"/>
<path d="M283.922 89.641C284.085 89.6414 284.246 89.6097 284.396 89.5478C284.546 89.4859 284.683 89.395 284.798 89.2802C284.913 89.1655 285.004 89.0292 285.067 88.8791C285.129 88.729 285.161 88.5681 285.161 88.4056C285.161 88.2431 285.129 88.0822 285.067 87.9321C285.005 87.7819 284.914 87.6455 284.799 87.5307C284.684 87.4158 284.547 87.3248 284.397 87.2627C284.247 87.2006 284.086 87.1688 283.923 87.169H258.849C258.686 87.1687 258.525 87.2003 258.375 87.2622C258.225 87.3241 258.088 87.4151 257.973 87.5298C257.858 87.6446 257.767 87.7809 257.705 87.931C257.642 88.081 257.61 88.2419 257.61 88.4044C257.61 88.5669 257.642 88.7279 257.704 88.878C257.766 89.0281 257.858 89.1645 257.972 89.2794C258.087 89.3942 258.224 89.4853 258.374 89.5474C258.524 89.6094 258.685 89.6412 258.848 89.641H283.922Z" fill="#DCE0E5"/>
<path d="M283.922 82.3587C284.25 82.3581 284.563 82.2276 284.795 81.9959C285.026 81.7642 285.156 81.4501 285.156 81.1227C285.156 80.7953 285.026 80.4813 284.795 80.2495C284.563 80.0178 284.25 79.8873 283.922 79.8867H258.849C258.686 79.8863 258.525 79.918 258.375 79.9799C258.225 80.0418 258.088 80.1328 257.973 80.2475C257.858 80.3623 257.767 80.4986 257.705 80.6486C257.642 80.7987 257.61 80.9596 257.61 81.1221C257.61 81.2846 257.642 81.4455 257.704 81.5957C257.766 81.7458 257.858 81.8822 257.972 81.9971C258.087 82.1119 258.224 82.203 258.374 82.265C258.524 82.3271 258.685 82.3589 258.848 82.3587H283.922Z" fill="#DCE0E5"/>
<path d="M271.385 59.2625C272.924 59.2625 274.428 59.7188 275.708 60.5737C276.987 61.4286 277.984 62.6437 278.573 64.0653C279.162 65.487 279.316 67.0513 279.016 68.5605C278.716 70.0697 277.975 71.456 276.887 72.544C275.799 73.6321 274.412 74.3731 272.903 74.6733C271.394 74.9735 269.83 74.8194 268.408 74.2305C266.987 73.6417 265.771 72.6445 264.917 71.3651C264.062 70.0856 263.605 68.5814 263.605 67.0427C263.608 64.98 264.428 63.0024 265.887 61.5439C267.345 60.0853 269.323 59.2649 271.385 59.2625Z" fill="#4094F7"/>
<path d="M208.466 128.067C210.148 128.067 211.51 126.705 211.51 125.023C211.51 123.342 210.148 121.979 208.466 121.979C206.785 121.979 205.422 123.342 205.422 125.023C205.422 126.705 206.785 128.067 208.466 128.067Z" fill="#DCE0E5"/>
<path d="M257.375 122.655C257.647 122.654 257.916 122.707 258.166 122.811C258.417 122.915 258.645 123.067 258.837 123.258C259.029 123.45 259.181 123.678 259.285 123.928C259.389 124.179 259.443 124.448 259.443 124.719C259.443 124.99 259.389 125.259 259.285 125.51C259.181 125.76 259.029 125.988 258.837 126.18C258.645 126.372 258.417 126.524 258.166 126.627C257.916 126.731 257.647 126.784 257.375 126.783H225.361C225.089 126.784 224.82 126.731 224.57 126.627C224.319 126.524 224.091 126.372 223.899 126.18C223.707 125.988 223.555 125.76 223.451 125.51C223.347 125.259 223.293 124.99 223.293 124.719C223.293 124.448 223.347 124.179 223.451 123.928C223.555 123.678 223.707 123.45 223.899 123.258C224.091 123.067 224.319 122.915 224.57 122.811C224.82 122.707 225.089 122.654 225.361 122.655H257.375ZM257.375 122.149H225.361C224.679 122.149 224.025 122.42 223.543 122.902C223.061 123.384 222.791 124.037 222.791 124.719C222.791 125.401 223.061 126.054 223.543 126.536C224.025 127.018 224.679 127.289 225.361 127.289H257.375C258.057 127.289 258.711 127.018 259.193 126.536C259.675 126.054 259.945 125.401 259.945 124.719C259.945 124.037 259.675 123.384 259.193 122.902C258.711 122.42 258.057 122.149 257.375 122.149Z" fill="#DCE0E5"/>
<path d="M244.743 127.289H220.643C219.961 127.289 219.307 127.018 218.825 126.536C218.343 126.054 218.073 125.401 218.073 124.719C218.073 124.037 218.343 123.384 218.825 122.902C219.307 122.42 219.961 122.149 220.643 122.149H244.743C245.425 122.149 246.078 122.42 246.56 122.902C247.042 123.384 247.313 124.037 247.313 124.719C247.313 125.401 247.042 126.054 246.56 126.536C246.078 127.018 245.425 127.289 244.743 127.289Z" fill="#DCE0E5"/>
<path d="M208.466 140.708C210.148 140.708 211.51 139.345 211.51 137.664C211.51 135.982 210.148 134.62 208.466 134.62C206.785 134.62 205.422 135.982 205.422 137.664C205.422 139.345 206.785 140.708 208.466 140.708Z" fill="#DCE0E5"/>
<path d="M257.375 135.295C257.647 135.294 257.916 135.348 258.166 135.451C258.417 135.555 258.645 135.707 258.837 135.898C259.029 136.09 259.181 136.318 259.285 136.569C259.389 136.819 259.443 137.088 259.443 137.359C259.443 137.631 259.389 137.899 259.285 138.15C259.181 138.401 259.029 138.628 258.837 138.82C258.645 139.012 258.417 139.164 258.166 139.267C257.916 139.371 257.647 139.424 257.375 139.424H225.361C225.089 139.424 224.82 139.371 224.57 139.267C224.319 139.164 224.091 139.012 223.899 138.82C223.707 138.628 223.555 138.401 223.451 138.15C223.347 137.899 223.293 137.631 223.293 137.359C223.293 137.088 223.347 136.819 223.451 136.569C223.555 136.318 223.707 136.09 223.899 135.898C224.091 135.707 224.319 135.555 224.57 135.451C224.82 135.348 225.089 135.294 225.361 135.295H257.375ZM257.375 134.789H225.361C224.679 134.789 224.025 135.06 223.543 135.542C223.061 136.024 222.791 136.678 222.791 137.359C222.791 138.041 223.061 138.695 223.543 139.176C224.025 139.658 224.679 139.929 225.361 139.929H257.375C258.057 139.929 258.711 139.658 259.193 139.176C259.675 138.695 259.945 138.041 259.945 137.359C259.945 136.678 259.675 136.024 259.193 135.542C258.711 135.06 258.057 134.789 257.375 134.789Z" fill="#DCE0E5"/>
<path d="M253.844 139.929H220.643C219.961 139.929 219.307 139.658 218.825 139.176C218.343 138.695 218.073 138.041 218.073 137.359C218.073 136.678 218.343 136.024 218.825 135.542C219.307 135.06 219.961 134.789 220.643 134.789H253.844C254.525 134.79 255.178 135.061 255.659 135.543C256.14 136.025 256.411 136.678 256.411 137.359C256.411 138.04 256.14 138.693 255.659 139.175C255.178 139.657 254.525 139.928 253.844 139.929Z" fill="#DCE0E5"/>
<path d="M208.466 153.348C210.148 153.348 211.51 151.985 211.51 150.304C211.51 148.623 210.148 147.26 208.466 147.26C206.785 147.26 205.422 148.623 205.422 150.304C205.422 151.985 206.785 153.348 208.466 153.348Z" fill="#DCE0E5"/>
<path d="M257.375 147.935C257.923 147.935 258.448 148.153 258.835 148.54C259.222 148.927 259.44 149.452 259.44 149.999C259.44 150.547 259.222 151.072 258.835 151.459C258.448 151.846 257.923 152.064 257.375 152.064H225.361C224.813 152.064 224.288 151.846 223.901 151.459C223.514 151.072 223.296 150.547 223.296 149.999C223.296 149.452 223.514 148.927 223.901 148.54C224.288 148.153 224.813 147.935 225.361 147.935H257.375ZM257.375 147.429H225.361C224.679 147.429 224.025 147.7 223.543 148.182C223.061 148.664 222.791 149.318 222.791 149.999C222.791 150.681 223.061 151.335 223.543 151.817C224.025 152.299 224.679 152.569 225.361 152.569H257.375C258.057 152.569 258.711 152.299 259.193 151.817C259.675 151.335 259.945 150.681 259.945 149.999C259.945 149.318 259.675 148.664 259.193 148.182C258.711 147.7 258.057 147.429 257.375 147.429Z" fill="#DCE0E5"/>
<path d="M257.49 152.569H220.643C219.961 152.569 219.307 152.299 218.825 151.817C218.343 151.335 218.073 150.681 218.073 149.999C218.073 149.318 218.343 148.664 218.825 148.182C219.307 147.7 219.961 147.429 220.643 147.429H257.49C258.171 147.429 258.825 147.7 259.307 148.182C259.789 148.664 260.06 149.318 260.06 149.999C260.06 150.681 259.789 151.335 259.307 151.817C258.825 152.299 258.171 152.569 257.49 152.569Z" fill="#DCE0E5"/>
<path d="M353.29 183.333C353.662 182.89 353.932 182.372 354.082 181.813C354.232 181.254 354.257 180.67 354.156 180.1C354.056 179.531 353.831 178.991 353.499 178.517C353.167 178.044 352.735 177.649 352.234 177.361L354.863 163.553L348.121 166.362L346.658 179.044C346.229 179.918 346.136 180.919 346.396 181.857C346.656 182.795 347.251 183.606 348.069 184.134C348.886 184.663 349.869 184.874 350.832 184.726C351.794 184.578 352.669 184.083 353.29 183.333Z" fill="#FFB7B7"/>
<path d="M386.908 268.063L381.199 268.062L378.483 246.042L386.909 246.043L386.908 268.063Z" fill="#FFB7B7"/>
<path d="M388.364 273.597L369.956 273.596V273.363C369.956 271.463 370.711 269.641 372.054 268.297C373.398 266.953 375.22 266.199 377.12 266.198H377.121L388.364 266.199L388.364 273.597Z" fill="#2F2E41"/>
<path d="M355.708 268.063L349.999 268.062L347.283 246.042L355.709 246.043L355.708 268.063Z" fill="#FFB7B7"/>
<path d="M355.767 273.597L337.359 273.596V273.363C337.359 271.463 338.114 269.641 339.458 268.297C340.801 266.953 342.624 266.199 344.524 266.198H344.524L355.767 266.199L355.767 273.597Z" fill="#2F2E41"/>
<path d="M355.24 175.06L349.653 187.933L345.043 261.927L356.685 261.461L359.864 226.188L369.672 194.772L375.311 229.796L377.64 260.53L387.272 260.947L391.111 175.06H355.24Z" fill="#2F2E41"/>
<path d="M383.173 111.536L366.977 111.941L357.469 116.822L356.947 152.835L351.016 177.7C351.016 177.7 388.07 180.25 393.192 176.524L387.138 148.119L395.258 117.421L383.173 111.536Z" fill="#03C3D0"/>
<path d="M359.199 117.385L357.469 116.822C357.469 116.822 351.981 120.344 352.503 128.859C352.503 128.859 352.297 133.265 352.494 136.198C352.719 139.561 345.974 172.985 345.974 172.985H355.753L359.944 142.717L359.199 117.385Z" fill="#03C3D0"/>
<path d="M395.004 183.799C394.632 183.356 394.362 182.837 394.212 182.279C394.062 181.72 394.037 181.135 394.138 180.566C394.238 179.997 394.463 179.456 394.795 178.983C395.127 178.51 395.559 178.115 396.06 177.826L393.431 164.018L400.173 166.828L401.636 179.51C402.065 180.384 402.158 181.385 401.898 182.323C401.638 183.261 401.043 184.071 400.225 184.6C399.408 185.129 398.425 185.339 397.462 185.192C396.5 185.044 395.625 184.548 395.004 183.799Z" fill="#FFB7B7"/>
<path d="M392.821 117.851L394.551 117.288C394.551 117.288 400.039 120.81 399.516 129.325C399.516 129.325 399.722 133.731 399.526 136.664C399.3 140.027 402.32 173.451 402.32 173.451H392.541L388.35 143.183L392.821 117.851Z" fill="#03C3D0"/>
<path d="M387.149 96.4267C387.149 98.6472 386.49 100.818 385.257 102.664C384.023 104.51 382.269 105.949 380.218 106.799C378.166 107.649 375.909 107.871 373.731 107.438C371.553 107.005 369.553 105.936 367.983 104.365C366.413 102.795 365.343 100.795 364.91 98.617C364.477 96.4392 364.699 94.1818 365.549 92.1303C366.399 90.0788 367.838 88.3253 369.684 87.0917C371.53 85.858 373.701 85.1996 375.921 85.1996C377.392 85.1959 378.849 85.4819 380.209 86.0413C381.569 86.6008 382.806 87.4226 383.849 88.4599C384.891 89.4973 385.719 90.7298 386.285 92.0871C386.852 93.4445 387.145 94.9001 387.149 96.3708C387.149 96.3894 387.149 96.408 387.149 96.4267Z" fill="#FFB7B7"/>
<path d="M364.732 81.3466C366.047 78.5185 368.592 79.0776 370.818 80.0363C373.637 79.411 376.318 77.5391 379.355 78.6462C382.346 82.9974 392.391 81.7172 390.254 88.801C390.251 90.4984 393.448 89.5104 392.89 92.2904C394.583 97.6405 386.777 107.773 382.296 105.639C383.404 103.608 385.936 98.9942 382.096 98.5366C373.835 106.223 381.244 83.9006 370.864 90.3922C367.428 93.5372 362.723 84.4924 364.732 81.3466Z" fill="#2F2E41"/>
<path d="M436.608 274H70.4248C70.3121 274 70.2041 273.955 70.1244 273.876C70.0448 273.796 70 273.688 70 273.575C70 273.463 70.0448 273.354 70.1244 273.275C70.2041 273.195 70.3121 273.15 70.4248 273.15H436.608C436.72 273.15 436.828 273.195 436.908 273.275C436.988 273.354 437.033 273.463 437.033 273.575C437.033 273.688 436.988 273.796 436.908 273.876C436.828 273.955 436.72 274 436.608 274Z" fill="#CACACA"/>
</g>
<path d="M154.765 320.92V326.125C154.589 326.385 154.309 326.678 153.925 327.004C153.541 327.323 153.01 327.603 152.333 327.844C151.663 328.078 150.797 328.195 149.736 328.195C148.87 328.195 148.072 328.046 147.343 327.746C146.62 327.44 145.992 326.997 145.458 326.418C144.931 325.832 144.521 325.122 144.228 324.289C143.941 323.449 143.798 322.499 143.798 321.438V320.334C143.798 319.273 143.922 318.326 144.169 317.492C144.423 316.659 144.794 315.952 145.282 315.373C145.771 314.787 146.37 314.344 147.079 314.045C147.789 313.739 148.603 313.586 149.521 313.586C150.608 313.586 151.516 313.775 152.245 314.152C152.981 314.523 153.554 315.038 153.964 315.695C154.381 316.353 154.648 317.102 154.765 317.941H152.88C152.795 317.427 152.626 316.958 152.372 316.535C152.125 316.112 151.77 315.773 151.308 315.52C150.846 315.259 150.25 315.129 149.521 315.129C148.863 315.129 148.293 315.249 147.812 315.49C147.33 315.731 146.933 316.076 146.62 316.525C146.308 316.975 146.073 317.518 145.917 318.156C145.767 318.794 145.693 319.514 145.693 320.314V321.438C145.693 322.258 145.787 322.99 145.976 323.635C146.171 324.279 146.448 324.829 146.806 325.285C147.164 325.734 147.59 326.076 148.085 326.311C148.586 326.545 149.14 326.662 149.745 326.662C150.416 326.662 150.96 326.607 151.376 326.496C151.793 326.379 152.118 326.242 152.353 326.086C152.587 325.923 152.766 325.77 152.89 325.627V322.443H149.599V320.92H154.765ZM162.101 328.195C161.366 328.195 160.698 328.072 160.099 327.824C159.507 327.57 158.996 327.215 158.566 326.76C158.143 326.304 157.817 325.764 157.589 325.139C157.362 324.514 157.248 323.83 157.248 323.088V322.678C157.248 321.818 157.375 321.053 157.629 320.383C157.882 319.706 158.227 319.133 158.664 318.664C159.1 318.195 159.595 317.84 160.148 317.6C160.701 317.359 161.274 317.238 161.867 317.238C162.622 317.238 163.273 317.368 163.82 317.629C164.373 317.889 164.826 318.254 165.177 318.723C165.529 319.185 165.789 319.732 165.959 320.363C166.128 320.988 166.213 321.672 166.213 322.414V323.225H158.322V321.75H164.406V321.613C164.38 321.145 164.282 320.689 164.113 320.246C163.95 319.803 163.69 319.439 163.332 319.152C162.974 318.866 162.485 318.723 161.867 318.723C161.457 318.723 161.079 318.811 160.734 318.986C160.389 319.156 160.093 319.41 159.845 319.748C159.598 320.087 159.406 320.5 159.269 320.988C159.132 321.477 159.064 322.04 159.064 322.678V323.088C159.064 323.589 159.132 324.061 159.269 324.504C159.412 324.94 159.617 325.324 159.884 325.656C160.158 325.988 160.487 326.249 160.871 326.438C161.261 326.626 161.704 326.721 162.199 326.721C162.837 326.721 163.377 326.59 163.82 326.33C164.263 326.07 164.65 325.721 164.982 325.285L166.076 326.154C165.848 326.499 165.558 326.828 165.207 327.141C164.855 327.453 164.422 327.707 163.908 327.902C163.4 328.098 162.798 328.195 162.101 328.195ZM172.846 317.434V318.82H167.133V317.434H172.846ZM169.066 314.865H170.873V325.383C170.873 325.741 170.928 326.011 171.039 326.193C171.15 326.376 171.293 326.496 171.469 326.555C171.645 326.613 171.833 326.643 172.035 326.643C172.185 326.643 172.341 326.63 172.504 326.604C172.673 326.571 172.8 326.545 172.885 326.525L172.895 328C172.751 328.046 172.562 328.088 172.328 328.127C172.1 328.173 171.824 328.195 171.498 328.195C171.055 328.195 170.648 328.107 170.277 327.932C169.906 327.756 169.61 327.463 169.389 327.053C169.174 326.636 169.066 326.076 169.066 325.373V314.865ZM186.278 325.197C186.278 324.937 186.22 324.696 186.102 324.475C185.992 324.247 185.761 324.042 185.409 323.859C185.064 323.671 184.543 323.508 183.846 323.371C183.261 323.247 182.73 323.101 182.255 322.932C181.786 322.762 181.386 322.557 181.054 322.316C180.728 322.076 180.477 321.792 180.302 321.467C180.126 321.141 180.038 320.76 180.038 320.324C180.038 319.908 180.129 319.514 180.311 319.143C180.5 318.771 180.764 318.443 181.102 318.156C181.447 317.87 181.861 317.645 182.343 317.482C182.824 317.32 183.361 317.238 183.954 317.238C184.8 317.238 185.523 317.388 186.122 317.688C186.721 317.987 187.18 318.387 187.499 318.889C187.818 319.383 187.977 319.934 187.977 320.539H186.171C186.171 320.246 186.083 319.963 185.907 319.689C185.738 319.41 185.487 319.178 185.155 318.996C184.83 318.814 184.429 318.723 183.954 318.723C183.453 318.723 183.046 318.801 182.733 318.957C182.427 319.107 182.203 319.299 182.059 319.533C181.923 319.768 181.854 320.015 181.854 320.275C181.854 320.471 181.887 320.646 181.952 320.803C182.024 320.952 182.147 321.092 182.323 321.223C182.499 321.346 182.746 321.464 183.065 321.574C183.384 321.685 183.791 321.796 184.286 321.906C185.152 322.102 185.865 322.336 186.425 322.609C186.985 322.883 187.401 323.218 187.675 323.615C187.948 324.012 188.085 324.494 188.085 325.061C188.085 325.523 187.987 325.946 187.792 326.33C187.603 326.714 187.326 327.046 186.962 327.326C186.604 327.6 186.174 327.814 185.673 327.971C185.178 328.12 184.621 328.195 184.003 328.195C183.072 328.195 182.284 328.029 181.639 327.697C180.995 327.365 180.507 326.936 180.175 326.408C179.843 325.881 179.677 325.324 179.677 324.738H181.493C181.519 325.233 181.662 325.627 181.923 325.92C182.183 326.206 182.502 326.411 182.88 326.535C183.257 326.652 183.632 326.711 184.003 326.711C184.498 326.711 184.911 326.646 185.243 326.516C185.582 326.385 185.839 326.206 186.014 325.979C186.19 325.751 186.278 325.49 186.278 325.197ZM194.982 317.434V318.82H189.269V317.434H194.982ZM191.202 314.865H193.009V325.383C193.009 325.741 193.064 326.011 193.175 326.193C193.286 326.376 193.429 326.496 193.605 326.555C193.78 326.613 193.969 326.643 194.171 326.643C194.321 326.643 194.477 326.63 194.64 326.604C194.809 326.571 194.936 326.545 195.021 326.525L195.03 328C194.887 328.046 194.698 328.088 194.464 328.127C194.236 328.173 193.96 328.195 193.634 328.195C193.191 328.195 192.784 328.107 192.413 327.932C192.042 327.756 191.746 327.463 191.525 327.053C191.31 326.636 191.202 326.076 191.202 325.373V314.865ZM203.431 326.193V320.754C203.431 320.337 203.347 319.976 203.177 319.67C203.015 319.357 202.767 319.117 202.435 318.947C202.103 318.778 201.693 318.693 201.205 318.693C200.749 318.693 200.349 318.771 200.004 318.928C199.665 319.084 199.398 319.289 199.203 319.543C199.014 319.797 198.92 320.07 198.92 320.363H197.113C197.113 319.986 197.211 319.611 197.406 319.24C197.601 318.869 197.881 318.534 198.246 318.234C198.617 317.928 199.059 317.688 199.574 317.512C200.095 317.329 200.674 317.238 201.312 317.238C202.08 317.238 202.757 317.368 203.343 317.629C203.936 317.889 204.398 318.283 204.73 318.811C205.069 319.331 205.238 319.986 205.238 320.773V325.695C205.238 326.047 205.267 326.421 205.326 326.818C205.391 327.215 205.485 327.557 205.609 327.844V328H203.724C203.633 327.792 203.561 327.515 203.509 327.17C203.457 326.818 203.431 326.493 203.431 326.193ZM203.744 321.594L203.763 322.863H201.937C201.423 322.863 200.964 322.906 200.56 322.99C200.157 323.068 199.818 323.189 199.545 323.352C199.271 323.514 199.063 323.719 198.92 323.967C198.776 324.208 198.705 324.491 198.705 324.816C198.705 325.148 198.78 325.451 198.929 325.725C199.079 325.998 199.304 326.216 199.603 326.379C199.909 326.535 200.283 326.613 200.726 326.613C201.28 326.613 201.768 326.496 202.191 326.262C202.614 326.027 202.949 325.741 203.197 325.402C203.451 325.064 203.587 324.735 203.607 324.416L204.379 325.285C204.333 325.559 204.209 325.861 204.007 326.193C203.806 326.525 203.535 326.844 203.197 327.15C202.865 327.45 202.468 327.701 202.005 327.902C201.55 328.098 201.035 328.195 200.462 328.195C199.746 328.195 199.118 328.055 198.578 327.775C198.044 327.495 197.627 327.121 197.328 326.652C197.035 326.177 196.888 325.646 196.888 325.061C196.888 324.494 196.999 323.996 197.22 323.566C197.442 323.13 197.761 322.769 198.177 322.482C198.594 322.189 199.095 321.968 199.681 321.818C200.267 321.669 200.921 321.594 201.644 321.594H203.744ZM209.986 319.094V328H208.18V317.434H209.938L209.986 319.094ZM213.287 317.375L213.277 319.055C213.128 319.022 212.984 319.003 212.848 318.996C212.717 318.983 212.568 318.977 212.398 318.977C211.982 318.977 211.614 319.042 211.295 319.172C210.976 319.302 210.706 319.484 210.484 319.719C210.263 319.953 210.087 320.233 209.957 320.559C209.833 320.878 209.752 321.229 209.713 321.613L209.205 321.906C209.205 321.268 209.267 320.669 209.391 320.109C209.521 319.549 209.719 319.055 209.986 318.625C210.253 318.189 210.592 317.85 211.002 317.609C211.419 317.362 211.913 317.238 212.486 317.238C212.617 317.238 212.766 317.255 212.936 317.287C213.105 317.313 213.222 317.342 213.287 317.375ZM219.969 317.434V318.82H214.256V317.434H219.969ZM216.19 314.865H217.996V325.383C217.996 325.741 218.052 326.011 218.163 326.193C218.273 326.376 218.416 326.496 218.592 326.555C218.768 326.613 218.957 326.643 219.159 326.643C219.308 326.643 219.465 326.63 219.627 326.604C219.797 326.571 219.924 326.545 220.008 326.525L220.018 328C219.875 328.046 219.686 328.088 219.452 328.127C219.224 328.173 218.947 328.195 218.621 328.195C218.179 328.195 217.772 328.107 217.401 327.932C217.03 327.756 216.733 327.463 216.512 327.053C216.297 326.636 216.19 326.076 216.19 325.373V314.865ZM226.573 328.195C225.837 328.195 225.17 328.072 224.571 327.824C223.979 327.57 223.468 327.215 223.038 326.76C222.615 326.304 222.289 325.764 222.061 325.139C221.833 324.514 221.72 323.83 221.72 323.088V322.678C221.72 321.818 221.846 321.053 222.1 320.383C222.354 319.706 222.699 319.133 223.136 318.664C223.572 318.195 224.067 317.84 224.62 317.6C225.173 317.359 225.746 317.238 226.339 317.238C227.094 317.238 227.745 317.368 228.292 317.629C228.845 317.889 229.298 318.254 229.649 318.723C230.001 319.185 230.261 319.732 230.43 320.363C230.6 320.988 230.684 321.672 230.684 322.414V323.225H222.794V321.75H228.878V321.613C228.852 321.145 228.754 320.689 228.585 320.246C228.422 319.803 228.162 319.439 227.804 319.152C227.445 318.866 226.957 318.723 226.339 318.723C225.929 318.723 225.551 318.811 225.206 318.986C224.861 319.156 224.565 319.41 224.317 319.748C224.07 320.087 223.878 320.5 223.741 320.988C223.604 321.477 223.536 322.04 223.536 322.678V323.088C223.536 323.589 223.604 324.061 223.741 324.504C223.884 324.94 224.089 325.324 224.356 325.656C224.63 325.988 224.958 326.249 225.343 326.438C225.733 326.626 226.176 326.721 226.671 326.721C227.309 326.721 227.849 326.59 228.292 326.33C228.735 326.07 229.122 325.721 229.454 325.285L230.548 326.154C230.32 326.499 230.03 326.828 229.679 327.141C229.327 327.453 228.894 327.707 228.38 327.902C227.872 328.098 227.27 328.195 226.573 328.195ZM239.554 325.949V313H241.37V328H239.71L239.554 325.949ZM232.445 322.834V322.629C232.445 321.822 232.542 321.089 232.738 320.432C232.939 319.768 233.223 319.198 233.587 318.723C233.958 318.247 234.398 317.883 234.905 317.629C235.42 317.368 235.993 317.238 236.624 317.238C237.288 317.238 237.868 317.355 238.363 317.59C238.864 317.818 239.287 318.153 239.632 318.596C239.984 319.032 240.26 319.559 240.462 320.178C240.664 320.796 240.804 321.496 240.882 322.277V323.176C240.81 323.951 240.67 324.647 240.462 325.266C240.26 325.884 239.984 326.411 239.632 326.848C239.287 327.284 238.864 327.619 238.363 327.854C237.861 328.081 237.275 328.195 236.605 328.195C235.986 328.195 235.42 328.062 234.905 327.795C234.398 327.528 233.958 327.154 233.587 326.672C233.223 326.19 232.939 325.624 232.738 324.973C232.542 324.315 232.445 323.602 232.445 322.834ZM234.261 322.629V322.834C234.261 323.361 234.313 323.856 234.417 324.318C234.528 324.781 234.697 325.188 234.925 325.539C235.153 325.891 235.443 326.167 235.794 326.369C236.146 326.564 236.566 326.662 237.054 326.662C237.653 326.662 238.144 326.535 238.529 326.281C238.919 326.027 239.232 325.692 239.466 325.275C239.7 324.859 239.883 324.406 240.013 323.918V321.564C239.935 321.206 239.821 320.861 239.671 320.529C239.528 320.191 239.339 319.891 239.105 319.631C238.877 319.364 238.594 319.152 238.255 318.996C237.923 318.84 237.529 318.762 237.073 318.762C236.579 318.762 236.152 318.866 235.794 319.074C235.443 319.276 235.153 319.556 234.925 319.914C234.697 320.266 234.528 320.676 234.417 321.145C234.313 321.607 234.261 322.102 234.261 322.629ZM252.02 326.125L254.734 317.434H255.926L255.691 319.162L252.928 328H251.766L252.02 326.125ZM250.193 317.434L252.508 326.223L252.674 328H251.453L248.387 317.434H250.193ZM258.523 326.154L260.73 317.434H262.527L259.461 328H258.25L258.523 326.154ZM256.189 317.434L258.846 325.979L259.148 328H257.996L255.154 319.143L254.92 317.434H256.189ZM266.446 317.434V328H264.629V317.434H266.446ZM264.493 314.631C264.493 314.338 264.58 314.09 264.756 313.889C264.939 313.687 265.205 313.586 265.557 313.586C265.902 313.586 266.166 313.687 266.348 313.889C266.537 314.09 266.631 314.338 266.631 314.631C266.631 314.911 266.537 315.152 266.348 315.354C266.166 315.549 265.902 315.646 265.557 315.646C265.205 315.646 264.939 315.549 264.756 315.354C264.58 315.152 264.493 314.911 264.493 314.631ZM273.87 317.434V318.82H268.157V317.434H273.87ZM270.091 314.865H271.897V325.383C271.897 325.741 271.953 326.011 272.063 326.193C272.174 326.376 272.317 326.496 272.493 326.555C272.669 326.613 272.858 326.643 273.059 326.643C273.209 326.643 273.365 326.63 273.528 326.604C273.697 326.571 273.824 326.545 273.909 326.525L273.919 328C273.776 328.046 273.587 328.088 273.352 328.127C273.124 328.173 272.848 328.195 272.522 328.195C272.08 328.195 271.673 328.107 271.302 327.932C270.93 327.756 270.634 327.463 270.413 327.053C270.198 326.636 270.091 326.076 270.091 325.373V314.865ZM277.896 313V328H276.089V313H277.896ZM277.466 322.316L276.714 322.287C276.721 321.564 276.828 320.897 277.036 320.285C277.245 319.667 277.538 319.13 277.915 318.674C278.293 318.218 278.742 317.867 279.263 317.619C279.79 317.365 280.373 317.238 281.011 317.238C281.532 317.238 282.001 317.31 282.417 317.453C282.834 317.59 283.189 317.811 283.482 318.117C283.781 318.423 284.009 318.82 284.165 319.309C284.321 319.79 284.4 320.38 284.4 321.076V328H282.583V321.057C282.583 320.503 282.502 320.061 282.339 319.729C282.176 319.39 281.939 319.146 281.626 318.996C281.314 318.84 280.93 318.762 280.474 318.762C280.025 318.762 279.614 318.856 279.243 319.045C278.879 319.234 278.563 319.494 278.296 319.826C278.036 320.158 277.831 320.539 277.681 320.969C277.538 321.392 277.466 321.841 277.466 322.316ZM296.65 328.195C295.915 328.195 295.247 328.072 294.648 327.824C294.056 327.57 293.545 327.215 293.115 326.76C292.692 326.304 292.367 325.764 292.139 325.139C291.911 324.514 291.797 323.83 291.797 323.088V322.678C291.797 321.818 291.924 321.053 292.178 320.383C292.432 319.706 292.777 319.133 293.213 318.664C293.649 318.195 294.144 317.84 294.697 317.6C295.251 317.359 295.824 317.238 296.416 317.238C297.171 317.238 297.822 317.368 298.369 317.629C298.923 317.889 299.375 318.254 299.727 318.723C300.078 319.185 300.339 319.732 300.508 320.363C300.677 320.988 300.762 321.672 300.762 322.414V323.225H292.871V321.75H298.955V321.613C298.929 321.145 298.831 320.689 298.662 320.246C298.499 319.803 298.239 319.439 297.881 319.152C297.523 318.866 297.035 318.723 296.416 318.723C296.006 318.723 295.628 318.811 295.283 318.986C294.938 319.156 294.642 319.41 294.395 319.748C294.147 320.087 293.955 320.5 293.818 320.988C293.682 321.477 293.613 322.04 293.613 322.678V323.088C293.613 323.589 293.682 324.061 293.818 324.504C293.962 324.94 294.167 325.324 294.434 325.656C294.707 325.988 295.036 326.249 295.42 326.438C295.811 326.626 296.253 326.721 296.748 326.721C297.386 326.721 297.926 326.59 298.369 326.33C298.812 326.07 299.199 325.721 299.531 325.285L300.625 326.154C300.397 326.499 300.107 326.828 299.756 327.141C299.404 327.453 298.971 327.707 298.457 327.902C297.949 328.098 297.347 328.195 296.65 328.195ZM309.202 326.193V320.754C309.202 320.337 309.117 319.976 308.948 319.67C308.785 319.357 308.538 319.117 308.205 318.947C307.873 318.778 307.463 318.693 306.975 318.693C306.519 318.693 306.119 318.771 305.774 318.928C305.435 319.084 305.168 319.289 304.973 319.543C304.784 319.797 304.69 320.07 304.69 320.363H302.883C302.883 319.986 302.981 319.611 303.176 319.24C303.371 318.869 303.651 318.534 304.016 318.234C304.387 317.928 304.83 317.688 305.344 317.512C305.865 317.329 306.444 317.238 307.082 317.238C307.851 317.238 308.528 317.368 309.114 317.629C309.706 317.889 310.168 318.283 310.5 318.811C310.839 319.331 311.008 319.986 311.008 320.773V325.695C311.008 326.047 311.038 326.421 311.096 326.818C311.161 327.215 311.256 327.557 311.379 327.844V328H309.495C309.403 327.792 309.332 327.515 309.28 327.17C309.228 326.818 309.202 326.493 309.202 326.193ZM309.514 321.594L309.534 322.863H307.707C307.193 322.863 306.734 322.906 306.33 322.99C305.927 323.068 305.588 323.189 305.315 323.352C305.041 323.514 304.833 323.719 304.69 323.967C304.547 324.208 304.475 324.491 304.475 324.816C304.475 325.148 304.55 325.451 304.7 325.725C304.849 325.998 305.074 326.216 305.373 326.379C305.679 326.535 306.054 326.613 306.496 326.613C307.05 326.613 307.538 326.496 307.961 326.262C308.385 326.027 308.72 325.741 308.967 325.402C309.221 325.064 309.358 324.735 309.377 324.416L310.149 325.285C310.103 325.559 309.98 325.861 309.778 326.193C309.576 326.525 309.306 326.844 308.967 327.15C308.635 327.45 308.238 327.701 307.776 327.902C307.32 328.098 306.806 328.195 306.233 328.195C305.517 328.195 304.888 328.055 304.348 327.775C303.814 327.495 303.398 327.121 303.098 326.652C302.805 326.177 302.659 325.646 302.659 325.061C302.659 324.494 302.769 323.996 302.991 323.566C303.212 323.13 303.531 322.769 303.948 322.482C304.364 322.189 304.866 321.968 305.452 321.818C306.038 321.669 306.692 321.594 307.414 321.594H309.514ZM320.102 325.197C320.102 324.937 320.044 324.696 319.927 324.475C319.816 324.247 319.585 324.042 319.233 323.859C318.888 323.671 318.367 323.508 317.671 323.371C317.085 323.247 316.554 323.101 316.079 322.932C315.61 322.762 315.21 322.557 314.878 322.316C314.552 322.076 314.302 321.792 314.126 321.467C313.95 321.141 313.862 320.76 313.862 320.324C313.862 319.908 313.953 319.514 314.136 319.143C314.324 318.771 314.588 318.443 314.927 318.156C315.272 317.87 315.685 317.645 316.167 317.482C316.649 317.32 317.186 317.238 317.778 317.238C318.624 317.238 319.347 317.388 319.946 317.688C320.545 317.987 321.004 318.387 321.323 318.889C321.642 319.383 321.802 319.934 321.802 320.539H319.995C319.995 320.246 319.907 319.963 319.731 319.689C319.562 319.41 319.311 319.178 318.979 318.996C318.654 318.814 318.253 318.723 317.778 318.723C317.277 318.723 316.87 318.801 316.557 318.957C316.251 319.107 316.027 319.299 315.884 319.533C315.747 319.768 315.679 320.015 315.679 320.275C315.679 320.471 315.711 320.646 315.776 320.803C315.848 320.952 315.971 321.092 316.147 321.223C316.323 321.346 316.57 321.464 316.889 321.574C317.208 321.685 317.615 321.796 318.11 321.906C318.976 322.102 319.689 322.336 320.249 322.609C320.809 322.883 321.225 323.218 321.499 323.615C321.772 324.012 321.909 324.494 321.909 325.061C321.909 325.523 321.811 325.946 321.616 326.33C321.427 326.714 321.151 327.046 320.786 327.326C320.428 327.6 319.998 327.814 319.497 327.971C319.002 328.12 318.445 328.195 317.827 328.195C316.896 328.195 316.108 328.029 315.464 327.697C314.819 327.365 314.331 326.936 313.999 326.408C313.667 325.881 313.501 325.324 313.501 324.738H315.317C315.343 325.233 315.486 325.627 315.747 325.92C316.007 326.206 316.326 326.411 316.704 326.535C317.082 326.652 317.456 326.711 317.827 326.711C318.322 326.711 318.735 326.646 319.067 326.516C319.406 326.385 319.663 326.206 319.839 325.979C320.014 325.751 320.102 325.49 320.102 325.197ZM328.767 328.195C328.031 328.195 327.364 328.072 326.765 327.824C326.172 327.57 325.661 327.215 325.232 326.76C324.808 326.304 324.483 325.764 324.255 325.139C324.027 324.514 323.913 323.83 323.913 323.088V322.678C323.913 321.818 324.04 321.053 324.294 320.383C324.548 319.706 324.893 319.133 325.329 318.664C325.765 318.195 326.26 317.84 326.814 317.6C327.367 317.359 327.94 317.238 328.532 317.238C329.288 317.238 329.939 317.368 330.486 317.629C331.039 317.889 331.491 318.254 331.843 318.723C332.195 319.185 332.455 319.732 332.624 320.363C332.793 320.988 332.878 321.672 332.878 322.414V323.225H324.987V321.75H331.071V321.613C331.045 321.145 330.948 320.689 330.779 320.246C330.616 319.803 330.355 319.439 329.997 319.152C329.639 318.866 329.151 318.723 328.532 318.723C328.122 318.723 327.745 318.811 327.4 318.986C327.055 319.156 326.758 319.41 326.511 319.748C326.264 320.087 326.071 320.5 325.935 320.988C325.798 321.477 325.73 322.04 325.73 322.678V323.088C325.73 323.589 325.798 324.061 325.935 324.504C326.078 324.94 326.283 325.324 326.55 325.656C326.823 325.988 327.152 326.249 327.536 326.438C327.927 326.626 328.37 326.721 328.864 326.721C329.502 326.721 330.043 326.59 330.486 326.33C330.928 326.07 331.316 325.721 331.648 325.285L332.741 326.154C332.514 326.499 332.224 326.828 331.872 327.141C331.521 327.453 331.088 327.707 330.573 327.902C330.066 328.098 329.463 328.195 328.767 328.195ZM339.67 322.834V322.609C339.67 321.848 339.781 321.141 340.002 320.49C340.223 319.833 340.542 319.263 340.959 318.781C341.376 318.293 341.88 317.915 342.473 317.648C343.065 317.375 343.729 317.238 344.465 317.238C345.207 317.238 345.874 317.375 346.467 317.648C347.066 317.915 347.574 318.293 347.99 318.781C348.413 319.263 348.736 319.833 348.957 320.49C349.178 321.141 349.289 321.848 349.289 322.609V322.834C349.289 323.596 349.178 324.302 348.957 324.953C348.736 325.604 348.413 326.174 347.99 326.662C347.574 327.144 347.069 327.521 346.477 327.795C345.891 328.062 345.227 328.195 344.484 328.195C343.742 328.195 343.075 328.062 342.482 327.795C341.89 327.521 341.382 327.144 340.959 326.662C340.542 326.174 340.223 325.604 340.002 324.953C339.781 324.302 339.67 323.596 339.67 322.834ZM341.477 322.609V322.834C341.477 323.361 341.538 323.859 341.662 324.328C341.786 324.79 341.971 325.201 342.219 325.559C342.473 325.917 342.788 326.2 343.166 326.408C343.544 326.61 343.983 326.711 344.484 326.711C344.979 326.711 345.412 326.61 345.783 326.408C346.161 326.2 346.473 325.917 346.721 325.559C346.968 325.201 347.154 324.79 347.277 324.328C347.408 323.859 347.473 323.361 347.473 322.834V322.609C347.473 322.089 347.408 321.597 347.277 321.135C347.154 320.666 346.965 320.253 346.711 319.895C346.464 319.53 346.151 319.243 345.773 319.035C345.402 318.827 344.966 318.723 344.465 318.723C343.97 318.723 343.534 318.827 343.156 319.035C342.785 319.243 342.473 319.53 342.219 319.895C341.971 320.253 341.786 320.666 341.662 321.135C341.538 321.597 341.477 322.089 341.477 322.609ZM353.461 319.689V328H351.655V317.434H353.364L353.461 319.689ZM353.032 322.316L352.28 322.287C352.286 321.564 352.394 320.897 352.602 320.285C352.81 319.667 353.103 319.13 353.481 318.674C353.858 318.218 354.308 317.867 354.829 317.619C355.356 317.365 355.939 317.238 356.577 317.238C357.097 317.238 357.566 317.31 357.983 317.453C358.399 317.59 358.754 317.811 359.047 318.117C359.347 318.423 359.575 318.82 359.731 319.309C359.887 319.79 359.965 320.38 359.965 321.076V328H358.149V321.057C358.149 320.503 358.067 320.061 357.905 319.729C357.742 319.39 357.504 319.146 357.192 318.996C356.879 318.84 356.495 318.762 356.039 318.762C355.59 318.762 355.18 318.856 354.809 319.045C354.444 319.234 354.129 319.494 353.862 319.826C353.601 320.158 353.396 320.539 353.246 320.969C353.103 321.392 353.032 321.841 353.032 322.316ZM111.245 358.195C110.509 358.195 109.842 358.072 109.243 357.824C108.65 357.57 108.139 357.215 107.709 356.76C107.286 356.304 106.961 355.764 106.733 355.139C106.505 354.514 106.391 353.83 106.391 353.088V352.678C106.391 351.818 106.518 351.053 106.772 350.383C107.026 349.706 107.371 349.133 107.807 348.664C108.243 348.195 108.738 347.84 109.291 347.6C109.845 347.359 110.418 347.238 111.01 347.238C111.765 347.238 112.416 347.368 112.963 347.629C113.517 347.889 113.969 348.254 114.321 348.723C114.672 349.185 114.933 349.732 115.102 350.363C115.271 350.988 115.356 351.672 115.356 352.414V353.225H107.465V351.75H113.549V351.613C113.523 351.145 113.426 350.689 113.256 350.246C113.093 349.803 112.833 349.439 112.475 349.152C112.117 348.866 111.629 348.723 111.01 348.723C110.6 348.723 110.222 348.811 109.877 348.986C109.532 349.156 109.236 349.41 108.989 349.748C108.741 350.087 108.549 350.5 108.413 350.988C108.276 351.477 108.207 352.04 108.207 352.678V353.088C108.207 353.589 108.276 354.061 108.413 354.504C108.556 354.94 108.761 355.324 109.028 355.656C109.301 355.988 109.63 356.249 110.014 356.438C110.405 356.626 110.847 356.721 111.342 356.721C111.98 356.721 112.521 356.59 112.963 356.33C113.406 356.07 113.793 355.721 114.125 355.285L115.219 356.154C114.991 356.499 114.702 356.828 114.35 357.141C113.998 357.453 113.566 357.707 113.051 357.902C112.543 358.098 111.941 358.195 111.245 358.195ZM119.362 349.533V358H117.546V347.434H119.264L119.362 349.533ZM118.991 352.316L118.151 352.287C118.158 351.564 118.252 350.897 118.434 350.285C118.617 349.667 118.887 349.13 119.245 348.674C119.603 348.218 120.049 347.867 120.583 347.619C121.117 347.365 121.735 347.238 122.438 347.238C122.933 347.238 123.389 347.31 123.805 347.453C124.222 347.59 124.583 347.808 124.889 348.107C125.195 348.407 125.433 348.791 125.602 349.26C125.772 349.729 125.856 350.295 125.856 350.959V358H124.05V351.047C124.05 350.493 123.955 350.051 123.766 349.719C123.584 349.387 123.324 349.146 122.985 348.996C122.647 348.84 122.249 348.762 121.794 348.762C121.26 348.762 120.814 348.856 120.456 349.045C120.098 349.234 119.811 349.494 119.596 349.826C119.382 350.158 119.225 350.539 119.128 350.969C119.037 351.392 118.991 351.841 118.991 352.316ZM125.837 351.32L124.626 351.691C124.632 351.112 124.727 350.555 124.909 350.021C125.098 349.488 125.368 349.012 125.72 348.596C126.078 348.179 126.517 347.85 127.038 347.609C127.559 347.362 128.154 347.238 128.825 347.238C129.391 347.238 129.893 347.313 130.329 347.463C130.772 347.613 131.143 347.844 131.442 348.156C131.748 348.462 131.979 348.856 132.136 349.338C132.292 349.82 132.37 350.393 132.37 351.057V358H130.554V351.037C130.554 350.445 130.459 349.986 130.27 349.66C130.088 349.328 129.828 349.097 129.489 348.967C129.157 348.83 128.76 348.762 128.298 348.762C127.901 348.762 127.549 348.83 127.243 348.967C126.937 349.104 126.68 349.292 126.471 349.533C126.263 349.768 126.104 350.038 125.993 350.344C125.889 350.65 125.837 350.975 125.837 351.32ZM137.011 349.465V362.062H135.195V347.434H136.855L137.011 349.465ZM144.13 352.629V352.834C144.13 353.602 144.039 354.315 143.857 354.973C143.674 355.624 143.407 356.19 143.056 356.672C142.711 357.154 142.284 357.528 141.777 357.795C141.269 358.062 140.686 358.195 140.029 358.195C139.358 358.195 138.765 358.085 138.251 357.863C137.737 357.642 137.301 357.32 136.943 356.896C136.585 356.473 136.298 355.965 136.083 355.373C135.875 354.781 135.732 354.113 135.654 353.371V352.277C135.732 351.496 135.878 350.796 136.093 350.178C136.308 349.559 136.591 349.032 136.943 348.596C137.301 348.153 137.734 347.818 138.241 347.59C138.749 347.355 139.335 347.238 139.999 347.238C140.663 347.238 141.252 347.368 141.767 347.629C142.281 347.883 142.714 348.247 143.066 348.723C143.417 349.198 143.681 349.768 143.857 350.432C144.039 351.089 144.13 351.822 144.13 352.629ZM142.314 352.834V352.629C142.314 352.102 142.258 351.607 142.148 351.145C142.037 350.676 141.864 350.266 141.63 349.914C141.402 349.556 141.109 349.276 140.751 349.074C140.393 348.866 139.967 348.762 139.472 348.762C139.016 348.762 138.619 348.84 138.28 348.996C137.948 349.152 137.665 349.364 137.431 349.631C137.196 349.891 137.004 350.191 136.855 350.529C136.711 350.861 136.604 351.206 136.532 351.564V354.094C136.663 354.549 136.845 354.979 137.079 355.383C137.314 355.78 137.626 356.102 138.017 356.35C138.407 356.59 138.899 356.711 139.491 356.711C139.98 356.711 140.4 356.61 140.751 356.408C141.109 356.2 141.402 355.917 141.63 355.559C141.864 355.201 142.037 354.79 142.148 354.328C142.258 353.859 142.314 353.361 142.314 352.834ZM148.498 343V358H146.681V343H148.498ZM151.02 352.834V352.609C151.02 351.848 151.13 351.141 151.352 350.49C151.573 349.833 151.892 349.263 152.309 348.781C152.725 348.293 153.23 347.915 153.822 347.648C154.415 347.375 155.079 347.238 155.814 347.238C156.557 347.238 157.224 347.375 157.816 347.648C158.415 347.915 158.923 348.293 159.34 348.781C159.763 349.263 160.085 349.833 160.307 350.49C160.528 351.141 160.639 351.848 160.639 352.609V352.834C160.639 353.596 160.528 354.302 160.307 354.953C160.085 355.604 159.763 356.174 159.34 356.662C158.923 357.144 158.419 357.521 157.826 357.795C157.24 358.062 156.576 358.195 155.834 358.195C155.092 358.195 154.424 358.062 153.832 357.795C153.24 357.521 152.732 357.144 152.309 356.662C151.892 356.174 151.573 355.604 151.352 354.953C151.13 354.302 151.02 353.596 151.02 352.834ZM152.826 352.609V352.834C152.826 353.361 152.888 353.859 153.012 354.328C153.135 354.79 153.321 355.201 153.568 355.559C153.822 355.917 154.138 356.2 154.516 356.408C154.893 356.61 155.333 356.711 155.834 356.711C156.329 356.711 156.762 356.61 157.133 356.408C157.51 356.2 157.823 355.917 158.07 355.559C158.318 355.201 158.503 354.79 158.627 354.328C158.757 353.859 158.822 353.361 158.822 352.834V352.609C158.822 352.089 158.757 351.597 158.627 351.135C158.503 350.666 158.314 350.253 158.061 349.895C157.813 349.53 157.501 349.243 157.123 349.035C156.752 348.827 156.316 348.723 155.814 348.723C155.32 348.723 154.883 348.827 154.506 349.035C154.135 349.243 153.822 349.53 153.568 349.895C153.321 350.253 153.135 350.666 153.012 351.135C152.888 351.597 152.826 352.089 152.826 352.609ZM165.817 356.906L168.756 347.434H170.69L166.452 359.631C166.354 359.891 166.224 360.171 166.061 360.471C165.905 360.777 165.703 361.066 165.455 361.34C165.208 361.613 164.909 361.835 164.557 362.004C164.212 362.18 163.799 362.268 163.317 362.268C163.174 362.268 162.991 362.248 162.77 362.209C162.549 362.17 162.392 362.137 162.301 362.111L162.291 360.646C162.343 360.653 162.425 360.66 162.536 360.666C162.653 360.679 162.734 360.686 162.78 360.686C163.19 360.686 163.538 360.63 163.825 360.52C164.111 360.415 164.352 360.236 164.547 359.982C164.749 359.735 164.922 359.393 165.065 358.957L165.817 356.906ZM163.659 347.434L166.403 355.637L166.871 357.541L165.573 358.205L161.686 347.434H163.659ZM176.669 358.195C175.933 358.195 175.266 358.072 174.667 357.824C174.074 357.57 173.563 357.215 173.134 356.76C172.71 356.304 172.385 355.764 172.157 355.139C171.929 354.514 171.815 353.83 171.815 353.088V352.678C171.815 351.818 171.942 351.053 172.196 350.383C172.45 349.706 172.795 349.133 173.231 348.664C173.667 348.195 174.162 347.84 174.716 347.6C175.269 347.359 175.842 347.238 176.434 347.238C177.19 347.238 177.841 347.368 178.388 347.629C178.941 347.889 179.393 348.254 179.745 348.723C180.096 349.185 180.357 349.732 180.526 350.363C180.695 350.988 180.78 351.672 180.78 352.414V353.225H172.889V351.75H178.973V351.613C178.947 351.145 178.85 350.689 178.68 350.246C178.518 349.803 178.257 349.439 177.899 349.152C177.541 348.866 177.053 348.723 176.434 348.723C176.024 348.723 175.647 348.811 175.302 348.986C174.957 349.156 174.66 349.41 174.413 349.748C174.166 350.087 173.973 350.5 173.837 350.988C173.7 351.477 173.632 352.04 173.632 352.678V353.088C173.632 353.589 173.7 354.061 173.837 354.504C173.98 354.94 174.185 355.324 174.452 355.656C174.725 355.988 175.054 356.249 175.438 356.438C175.829 356.626 176.272 356.721 176.766 356.721C177.404 356.721 177.945 356.59 178.388 356.33C178.83 356.07 179.218 355.721 179.55 355.285L180.643 356.154C180.416 356.499 180.126 356.828 179.774 357.141C179.423 357.453 178.99 357.707 178.475 357.902C177.968 358.098 177.365 358.195 176.669 358.195ZM187.374 358.195C186.639 358.195 185.971 358.072 185.372 357.824C184.78 357.57 184.269 357.215 183.839 356.76C183.416 356.304 183.09 355.764 182.863 355.139C182.635 354.514 182.521 353.83 182.521 353.088V352.678C182.521 351.818 182.648 351.053 182.902 350.383C183.155 349.706 183.501 349.133 183.937 348.664C184.373 348.195 184.868 347.84 185.421 347.6C185.974 347.359 186.547 347.238 187.14 347.238C187.895 347.238 188.546 347.368 189.093 347.629C189.646 347.889 190.099 348.254 190.45 348.723C190.802 349.185 191.062 349.732 191.232 350.363C191.401 350.988 191.486 351.672 191.486 352.414V353.225H183.595V351.75H189.679V351.613C189.653 351.145 189.555 350.689 189.386 350.246C189.223 349.803 188.963 349.439 188.605 349.152C188.247 348.866 187.758 348.723 187.14 348.723C186.73 348.723 186.352 348.811 186.007 348.986C185.662 349.156 185.366 349.41 185.118 349.748C184.871 350.087 184.679 350.5 184.542 350.988C184.405 351.477 184.337 352.04 184.337 352.678V353.088C184.337 353.589 184.405 354.061 184.542 354.504C184.685 354.94 184.89 355.324 185.157 355.656C185.431 355.988 185.76 356.249 186.144 356.438C186.534 356.626 186.977 356.721 187.472 356.721C188.11 356.721 188.65 356.59 189.093 356.33C189.536 356.07 189.923 355.721 190.255 355.285L191.349 356.154C191.121 356.499 190.831 356.828 190.48 357.141C190.128 357.453 189.695 357.707 189.181 357.902C188.673 358.098 188.071 358.195 187.374 358.195ZM200.553 349.533V358H198.736V347.434H200.455L200.553 349.533ZM200.182 352.316L199.342 352.287C199.348 351.564 199.443 350.897 199.625 350.285C199.807 349.667 200.077 349.13 200.436 348.674C200.794 348.218 201.24 347.867 201.773 347.619C202.307 347.365 202.926 347.238 203.629 347.238C204.124 347.238 204.579 347.31 204.996 347.453C205.413 347.59 205.774 347.808 206.08 348.107C206.386 348.407 206.624 348.791 206.793 349.26C206.962 349.729 207.047 350.295 207.047 350.959V358H205.24V351.047C205.24 350.493 205.146 350.051 204.957 349.719C204.775 349.387 204.514 349.146 204.176 348.996C203.837 348.84 203.44 348.762 202.984 348.762C202.451 348.762 202.005 348.856 201.646 349.045C201.288 349.234 201.002 349.494 200.787 349.826C200.572 350.158 200.416 350.539 200.318 350.969C200.227 351.392 200.182 351.841 200.182 352.316ZM207.027 351.32L205.816 351.691C205.823 351.112 205.917 350.555 206.1 350.021C206.288 349.488 206.559 349.012 206.91 348.596C207.268 348.179 207.708 347.85 208.229 347.609C208.749 347.362 209.345 347.238 210.016 347.238C210.582 347.238 211.083 347.313 211.52 347.463C211.962 347.613 212.333 347.844 212.633 348.156C212.939 348.462 213.17 348.856 213.326 349.338C213.482 349.82 213.561 350.393 213.561 351.057V358H211.744V351.037C211.744 350.445 211.65 349.986 211.461 349.66C211.279 349.328 211.018 349.097 210.68 348.967C210.348 348.83 209.951 348.762 209.488 348.762C209.091 348.762 208.74 348.83 208.434 348.967C208.128 349.104 207.87 349.292 207.662 349.533C207.454 349.768 207.294 350.038 207.184 350.344C207.079 350.65 207.027 350.975 207.027 351.32ZM222.625 356.193V350.754C222.625 350.337 222.541 349.976 222.371 349.67C222.209 349.357 221.961 349.117 221.629 348.947C221.297 348.778 220.887 348.693 220.399 348.693C219.943 348.693 219.543 348.771 219.198 348.928C218.859 349.084 218.592 349.289 218.397 349.543C218.208 349.797 218.114 350.07 218.114 350.363H216.307C216.307 349.986 216.405 349.611 216.6 349.24C216.795 348.869 217.075 348.534 217.44 348.234C217.811 347.928 218.254 347.688 218.768 347.512C219.289 347.329 219.868 347.238 220.506 347.238C221.274 347.238 221.952 347.368 222.538 347.629C223.13 347.889 223.592 348.283 223.924 348.811C224.263 349.331 224.432 349.986 224.432 350.773V355.695C224.432 356.047 224.461 356.421 224.52 356.818C224.585 357.215 224.679 357.557 224.803 357.844V358H222.918C222.827 357.792 222.756 357.515 222.704 357.17C222.651 356.818 222.625 356.493 222.625 356.193ZM222.938 351.594L222.957 352.863H221.131C220.617 352.863 220.158 352.906 219.754 352.99C219.351 353.068 219.012 353.189 218.739 353.352C218.465 353.514 218.257 353.719 218.114 353.967C217.97 354.208 217.899 354.491 217.899 354.816C217.899 355.148 217.974 355.451 218.123 355.725C218.273 355.998 218.498 356.216 218.797 356.379C219.103 356.535 219.478 356.613 219.92 356.613C220.474 356.613 220.962 356.496 221.385 356.262C221.808 356.027 222.144 355.741 222.391 355.402C222.645 355.064 222.782 354.735 222.801 354.416L223.573 355.285C223.527 355.559 223.403 355.861 223.202 356.193C223 356.525 222.73 356.844 222.391 357.15C222.059 357.45 221.662 357.701 221.2 357.902C220.744 358.098 220.23 358.195 219.657 358.195C218.941 358.195 218.312 358.055 217.772 357.775C217.238 357.495 216.821 357.121 216.522 356.652C216.229 356.177 216.082 355.646 216.082 355.061C216.082 354.494 216.193 353.996 216.414 353.566C216.636 353.13 216.955 352.769 217.371 352.482C217.788 352.189 218.289 351.968 218.875 351.818C219.461 351.669 220.116 351.594 220.838 351.594H222.938ZM229.18 349.689V358H227.374V347.434H229.083L229.18 349.689ZM228.751 352.316L227.999 352.287C228.005 351.564 228.113 350.897 228.321 350.285C228.529 349.667 228.822 349.13 229.2 348.674C229.578 348.218 230.027 347.867 230.548 347.619C231.075 347.365 231.658 347.238 232.296 347.238C232.817 347.238 233.285 347.31 233.702 347.453C234.119 347.59 234.473 347.811 234.766 348.117C235.066 348.423 235.294 348.82 235.45 349.309C235.606 349.79 235.684 350.38 235.684 351.076V358H233.868V351.057C233.868 350.503 233.787 350.061 233.624 349.729C233.461 349.39 233.223 349.146 232.911 348.996C232.598 348.84 232.214 348.762 231.759 348.762C231.309 348.762 230.899 348.856 230.528 349.045C230.164 349.234 229.848 349.494 229.581 349.826C229.32 350.158 229.115 350.539 228.966 350.969C228.822 351.392 228.751 351.841 228.751 352.316ZM244.759 356.193V350.754C244.759 350.337 244.674 349.976 244.505 349.67C244.342 349.357 244.095 349.117 243.763 348.947C243.431 348.778 243.021 348.693 242.532 348.693C242.077 348.693 241.676 348.771 241.331 348.928C240.993 349.084 240.726 349.289 240.53 349.543C240.342 349.797 240.247 350.07 240.247 350.363H238.441C238.441 349.986 238.538 349.611 238.734 349.24C238.929 348.869 239.209 348.534 239.573 348.234C239.945 347.928 240.387 347.688 240.902 347.512C241.422 347.329 242.002 347.238 242.64 347.238C243.408 347.238 244.085 347.368 244.671 347.629C245.264 347.889 245.726 348.283 246.058 348.811C246.396 349.331 246.566 349.986 246.566 350.773V355.695C246.566 356.047 246.595 356.421 246.654 356.818C246.719 357.215 246.813 357.557 246.937 357.844V358H245.052C244.961 357.792 244.889 357.515 244.837 357.17C244.785 356.818 244.759 356.493 244.759 356.193ZM245.071 351.594L245.091 352.863H243.265C242.751 352.863 242.292 352.906 241.888 352.99C241.484 353.068 241.146 353.189 240.872 353.352C240.599 353.514 240.39 353.719 240.247 353.967C240.104 354.208 240.032 354.491 240.032 354.816C240.032 355.148 240.107 355.451 240.257 355.725C240.407 355.998 240.631 356.216 240.931 356.379C241.237 356.535 241.611 356.613 242.054 356.613C242.607 356.613 243.096 356.496 243.519 356.262C243.942 356.027 244.277 355.741 244.525 355.402C244.779 355.064 244.915 354.735 244.935 354.416L245.706 355.285C245.661 355.559 245.537 355.861 245.335 356.193C245.133 356.525 244.863 356.844 244.525 357.15C244.193 357.45 243.795 357.701 243.333 357.902C242.877 358.098 242.363 358.195 241.79 358.195C241.074 358.195 240.446 358.055 239.905 357.775C239.372 357.495 238.955 357.121 238.655 356.652C238.363 356.177 238.216 355.646 238.216 355.061C238.216 354.494 238.327 353.996 238.548 353.566C238.769 353.13 239.088 352.769 239.505 352.482C239.922 352.189 240.423 351.968 241.009 351.818C241.595 351.669 242.249 351.594 242.972 351.594H245.071ZM256.353 347.434H257.994V357.775C257.994 358.706 257.805 359.501 257.427 360.158C257.05 360.816 256.522 361.314 255.845 361.652C255.175 361.997 254.4 362.17 253.521 362.17C253.157 362.17 252.727 362.111 252.232 361.994C251.744 361.883 251.262 361.691 250.787 361.418C250.318 361.151 249.924 360.79 249.605 360.334L250.552 359.26C250.995 359.794 251.457 360.165 251.939 360.373C252.427 360.581 252.909 360.686 253.384 360.686C253.957 360.686 254.452 360.578 254.869 360.363C255.285 360.148 255.608 359.829 255.836 359.406C256.07 358.99 256.187 358.475 256.187 357.863V349.758L256.353 347.434ZM249.078 352.834V352.629C249.078 351.822 249.172 351.089 249.361 350.432C249.556 349.768 249.833 349.198 250.191 348.723C250.556 348.247 250.995 347.883 251.509 347.629C252.024 347.368 252.603 347.238 253.248 347.238C253.912 347.238 254.491 347.355 254.986 347.59C255.487 347.818 255.91 348.153 256.255 348.596C256.607 349.032 256.884 349.559 257.086 350.178C257.287 350.796 257.427 351.496 257.505 352.277V353.176C257.434 353.951 257.294 354.647 257.086 355.266C256.884 355.884 256.607 356.411 256.255 356.848C255.91 357.284 255.487 357.619 254.986 357.854C254.485 358.081 253.899 358.195 253.228 358.195C252.597 358.195 252.024 358.062 251.509 357.795C251.002 357.528 250.565 357.154 250.201 356.672C249.836 356.19 249.556 355.624 249.361 354.973C249.172 354.315 249.078 353.602 249.078 352.834ZM250.884 352.629V352.834C250.884 353.361 250.936 353.856 251.041 354.318C251.151 354.781 251.317 355.188 251.539 355.539C251.767 355.891 252.056 356.167 252.408 356.369C252.759 356.564 253.179 356.662 253.668 356.662C254.267 356.662 254.761 356.535 255.152 356.281C255.543 356.027 255.852 355.692 256.08 355.275C256.314 354.859 256.496 354.406 256.627 353.918V351.564C256.555 351.206 256.444 350.861 256.295 350.529C256.151 350.191 255.963 349.891 255.728 349.631C255.5 349.364 255.217 349.152 254.879 348.996C254.54 348.84 254.143 348.762 253.687 348.762C253.192 348.762 252.766 348.866 252.408 349.074C252.056 349.276 251.767 349.556 251.539 349.914C251.317 350.266 251.151 350.676 251.041 351.145C250.936 351.607 250.884 352.102 250.884 352.629ZM265.223 358.195C264.487 358.195 263.82 358.072 263.221 357.824C262.628 357.57 262.117 357.215 261.688 356.76C261.264 356.304 260.939 355.764 260.711 355.139C260.483 354.514 260.369 353.83 260.369 353.088V352.678C260.369 351.818 260.496 351.053 260.75 350.383C261.004 349.706 261.349 349.133 261.785 348.664C262.221 348.195 262.716 347.84 263.27 347.6C263.823 347.359 264.396 347.238 264.988 347.238C265.743 347.238 266.395 347.368 266.941 347.629C267.495 347.889 267.947 348.254 268.299 348.723C268.65 349.185 268.911 349.732 269.08 350.363C269.249 350.988 269.334 351.672 269.334 352.414V353.225H261.443V351.75H267.527V351.613C267.501 351.145 267.404 350.689 267.234 350.246C267.072 349.803 266.811 349.439 266.453 349.152C266.095 348.866 265.607 348.723 264.988 348.723C264.578 348.723 264.201 348.811 263.855 348.986C263.51 349.156 263.214 349.41 262.967 349.748C262.719 350.087 262.527 350.5 262.391 350.988C262.254 351.477 262.186 352.04 262.186 352.678V353.088C262.186 353.589 262.254 354.061 262.391 354.504C262.534 354.94 262.739 355.324 263.006 355.656C263.279 355.988 263.608 356.249 263.992 356.438C264.383 356.626 264.826 356.721 265.32 356.721C265.958 356.721 266.499 356.59 266.941 356.33C267.384 356.07 267.771 355.721 268.104 355.285L269.197 356.154C268.969 356.499 268.68 356.828 268.328 357.141C267.977 357.453 267.544 357.707 267.029 357.902C266.521 358.098 265.919 358.195 265.223 358.195ZM273.34 349.533V358H271.524V347.434H273.243L273.34 349.533ZM272.969 352.316L272.129 352.287C272.136 351.564 272.23 350.897 272.413 350.285C272.595 349.667 272.865 349.13 273.223 348.674C273.581 348.218 274.027 347.867 274.561 347.619C275.095 347.365 275.713 347.238 276.416 347.238C276.911 347.238 277.367 347.31 277.784 347.453C278.2 347.59 278.562 347.808 278.868 348.107C279.174 348.407 279.411 348.791 279.58 349.26C279.75 349.729 279.834 350.295 279.834 350.959V358H278.028V351.047C278.028 350.493 277.933 350.051 277.745 349.719C277.562 349.387 277.302 349.146 276.963 348.996C276.625 348.84 276.228 348.762 275.772 348.762C275.238 348.762 274.792 348.856 274.434 349.045C274.076 349.234 273.789 349.494 273.575 349.826C273.36 350.158 273.204 350.539 273.106 350.969C273.015 351.392 272.969 351.841 272.969 352.316ZM279.815 351.32L278.604 351.691C278.61 351.112 278.705 350.555 278.887 350.021C279.076 349.488 279.346 349.012 279.698 348.596C280.056 348.179 280.495 347.85 281.016 347.609C281.537 347.362 282.133 347.238 282.803 347.238C283.37 347.238 283.871 347.313 284.307 347.463C284.75 347.613 285.121 347.844 285.42 348.156C285.726 348.462 285.957 348.856 286.114 349.338C286.27 349.82 286.348 350.393 286.348 351.057V358H284.532V351.037C284.532 350.445 284.437 349.986 284.248 349.66C284.066 349.328 283.806 349.097 283.467 348.967C283.135 348.83 282.738 348.762 282.276 348.762C281.879 348.762 281.527 348.83 281.221 348.967C280.915 349.104 280.658 349.292 280.45 349.533C280.241 349.768 280.082 350.038 279.971 350.344C279.867 350.65 279.815 350.975 279.815 351.32ZM293.567 358.195C292.832 358.195 292.164 358.072 291.565 357.824C290.973 357.57 290.462 357.215 290.032 356.76C289.609 356.304 289.283 355.764 289.055 355.139C288.828 354.514 288.714 353.83 288.714 353.088V352.678C288.714 351.818 288.841 351.053 289.095 350.383C289.348 349.706 289.694 349.133 290.13 348.664C290.566 348.195 291.061 347.84 291.614 347.6C292.167 347.359 292.74 347.238 293.333 347.238C294.088 347.238 294.739 347.368 295.286 347.629C295.839 347.889 296.292 348.254 296.643 348.723C296.995 349.185 297.255 349.732 297.425 350.363C297.594 350.988 297.679 351.672 297.679 352.414V353.225H289.788V351.75H295.872V351.613C295.846 351.145 295.748 350.689 295.579 350.246C295.416 349.803 295.156 349.439 294.798 349.152C294.44 348.866 293.951 348.723 293.333 348.723C292.923 348.723 292.545 348.811 292.2 348.986C291.855 349.156 291.559 349.41 291.311 349.748C291.064 350.087 290.872 350.5 290.735 350.988C290.598 351.477 290.53 352.04 290.53 352.678V353.088C290.53 353.589 290.598 354.061 290.735 354.504C290.878 354.94 291.083 355.324 291.35 355.656C291.624 355.988 291.953 356.249 292.337 356.438C292.727 356.626 293.17 356.721 293.665 356.721C294.303 356.721 294.843 356.59 295.286 356.33C295.729 356.07 296.116 355.721 296.448 355.285L297.542 356.154C297.314 356.499 297.024 356.828 296.673 357.141C296.321 357.453 295.888 357.707 295.374 357.902C294.866 358.098 294.264 358.195 293.567 358.195ZM301.695 349.689V358H299.888V347.434H301.597L301.695 349.689ZM301.265 352.316L300.513 352.287C300.519 351.564 300.627 350.897 300.835 350.285C301.043 349.667 301.336 349.13 301.714 348.674C302.092 348.218 302.541 347.867 303.062 347.619C303.589 347.365 304.172 347.238 304.81 347.238C305.331 347.238 305.799 347.31 306.216 347.453C306.633 347.59 306.987 347.811 307.28 348.117C307.58 348.423 307.808 348.82 307.964 349.309C308.12 349.79 308.198 350.38 308.198 351.076V358H306.382V351.057C306.382 350.503 306.301 350.061 306.138 349.729C305.975 349.39 305.737 349.146 305.425 348.996C305.112 348.84 304.728 348.762 304.273 348.762C303.823 348.762 303.413 348.856 303.042 349.045C302.678 349.234 302.362 349.494 302.095 349.826C301.834 350.158 301.629 350.539 301.48 350.969C301.336 351.392 301.265 351.841 301.265 352.316ZM315.466 347.434V348.82H309.754V347.434H315.466ZM311.687 344.865H313.494V355.383C313.494 355.741 313.549 356.011 313.66 356.193C313.77 356.376 313.914 356.496 314.089 356.555C314.265 356.613 314.454 356.643 314.656 356.643C314.806 356.643 314.962 356.63 315.125 356.604C315.294 356.571 315.421 356.545 315.505 356.525L315.515 358C315.372 358.046 315.183 358.088 314.949 358.127C314.721 358.173 314.444 358.195 314.119 358.195C313.676 358.195 313.269 358.107 312.898 357.932C312.527 357.756 312.231 357.463 312.009 357.053C311.795 356.636 311.687 356.076 311.687 355.373V344.865ZM324.553 349.465V362.062H322.737V347.434H324.397L324.553 349.465ZM331.672 352.629V352.834C331.672 353.602 331.581 354.315 331.399 354.973C331.217 355.624 330.95 356.19 330.598 356.672C330.253 357.154 329.827 357.528 329.319 357.795C328.811 358.062 328.228 358.195 327.571 358.195C326.9 358.195 326.308 358.085 325.793 357.863C325.279 357.642 324.843 357.32 324.485 356.896C324.127 356.473 323.84 355.965 323.625 355.373C323.417 354.781 323.274 354.113 323.196 353.371V352.277C323.274 351.496 323.42 350.796 323.635 350.178C323.85 349.559 324.133 349.032 324.485 348.596C324.843 348.153 325.276 347.818 325.784 347.59C326.291 347.355 326.877 347.238 327.541 347.238C328.205 347.238 328.795 347.368 329.309 347.629C329.823 347.883 330.256 348.247 330.608 348.723C330.959 349.198 331.223 349.768 331.399 350.432C331.581 351.089 331.672 351.822 331.672 352.629ZM329.856 352.834V352.629C329.856 352.102 329.801 351.607 329.69 351.145C329.579 350.676 329.407 350.266 329.172 349.914C328.944 349.556 328.651 349.276 328.293 349.074C327.935 348.866 327.509 348.762 327.014 348.762C326.558 348.762 326.161 348.84 325.823 348.996C325.491 349.152 325.207 349.364 324.973 349.631C324.739 349.891 324.547 350.191 324.397 350.529C324.254 350.861 324.146 351.206 324.075 351.564V354.094C324.205 354.549 324.387 354.979 324.621 355.383C324.856 355.78 325.168 356.102 325.559 356.35C325.95 356.59 326.441 356.711 327.034 356.711C327.522 356.711 327.942 356.61 328.293 356.408C328.651 356.2 328.944 355.917 329.172 355.559C329.407 355.201 329.579 354.79 329.69 354.328C329.801 353.859 329.856 353.361 329.856 352.834ZM336.04 343V358H334.223V343H336.04ZM345.271 356.193V350.754C345.271 350.337 345.186 349.976 345.017 349.67C344.854 349.357 344.607 349.117 344.275 348.947C343.943 348.778 343.532 348.693 343.044 348.693C342.588 348.693 342.188 348.771 341.843 348.928C341.504 349.084 341.237 349.289 341.042 349.543C340.853 349.797 340.759 350.07 340.759 350.363H338.952C338.952 349.986 339.05 349.611 339.245 349.24C339.441 348.869 339.721 348.534 340.085 348.234C340.456 347.928 340.899 347.688 341.413 347.512C341.934 347.329 342.514 347.238 343.152 347.238C343.92 347.238 344.597 347.368 345.183 347.629C345.775 347.889 346.237 348.283 346.57 348.811C346.908 349.331 347.077 349.986 347.077 350.773V355.695C347.077 356.047 347.107 356.421 347.165 356.818C347.23 357.215 347.325 357.557 347.448 357.844V358H345.564C345.473 357.792 345.401 357.515 345.349 357.17C345.297 356.818 345.271 356.493 345.271 356.193ZM345.583 351.594L345.603 352.863H343.777C343.262 352.863 342.803 352.906 342.4 352.99C341.996 353.068 341.657 353.189 341.384 353.352C341.111 353.514 340.902 353.719 340.759 353.967C340.616 354.208 340.544 354.491 340.544 354.816C340.544 355.148 340.619 355.451 340.769 355.725C340.918 355.998 341.143 356.216 341.443 356.379C341.749 356.535 342.123 356.613 342.566 356.613C343.119 356.613 343.607 356.496 344.03 356.262C344.454 356.027 344.789 355.741 345.036 355.402C345.29 355.064 345.427 354.735 345.446 354.416L346.218 355.285C346.172 355.559 346.049 355.861 345.847 356.193C345.645 356.525 345.375 356.844 345.036 357.15C344.704 357.45 344.307 357.701 343.845 357.902C343.389 358.098 342.875 358.195 342.302 358.195C341.586 358.195 340.958 358.055 340.417 357.775C339.883 357.495 339.467 357.121 339.167 356.652C338.874 356.177 338.728 355.646 338.728 355.061C338.728 354.494 338.838 353.996 339.06 353.566C339.281 353.13 339.6 352.769 340.017 352.482C340.433 352.189 340.935 351.968 341.521 351.818C342.107 351.669 342.761 351.594 343.484 351.594H345.583ZM354.443 347.434V348.82H348.73V347.434H354.443ZM350.664 344.865H352.47V355.383C352.47 355.741 352.526 356.011 352.636 356.193C352.747 356.376 352.89 356.496 353.066 356.555C353.242 356.613 353.431 356.643 353.632 356.643C353.782 356.643 353.938 356.63 354.101 356.604C354.27 356.571 354.397 356.545 354.482 356.525L354.492 358C354.349 358.046 354.16 358.088 353.925 358.127C353.698 358.173 353.421 358.195 353.095 358.195C352.653 358.195 352.246 358.107 351.875 357.932C351.504 357.756 351.207 357.463 350.986 357.053C350.771 356.636 350.664 356.076 350.664 355.373V344.865ZM359.357 358H357.551V346.32C357.551 345.559 357.688 344.917 357.961 344.396C358.241 343.869 358.641 343.472 359.162 343.205C359.683 342.932 360.301 342.795 361.018 342.795C361.226 342.795 361.434 342.808 361.643 342.834C361.857 342.86 362.066 342.899 362.268 342.951L362.17 344.426C362.033 344.393 361.877 344.37 361.701 344.357C361.532 344.344 361.363 344.338 361.193 344.338C360.809 344.338 360.477 344.416 360.197 344.572C359.924 344.722 359.715 344.943 359.572 345.236C359.429 345.529 359.357 345.891 359.357 346.32V358ZM361.604 347.434V348.82H355.881V347.434H361.604ZM363.237 352.834V352.609C363.237 351.848 363.347 351.141 363.569 350.49C363.79 349.833 364.109 349.263 364.526 348.781C364.942 348.293 365.447 347.915 366.039 347.648C366.632 347.375 367.296 347.238 368.032 347.238C368.774 347.238 369.441 347.375 370.034 347.648C370.633 347.915 371.14 348.293 371.557 348.781C371.98 349.263 372.302 349.833 372.524 350.49C372.745 351.141 372.856 351.848 372.856 352.609V352.834C372.856 353.596 372.745 354.302 372.524 354.953C372.302 355.604 371.98 356.174 371.557 356.662C371.14 357.144 370.636 357.521 370.043 357.795C369.457 358.062 368.793 358.195 368.051 358.195C367.309 358.195 366.642 358.062 366.049 357.795C365.457 357.521 364.949 357.144 364.526 356.662C364.109 356.174 363.79 355.604 363.569 354.953C363.347 354.302 363.237 353.596 363.237 352.834ZM365.043 352.609V352.834C365.043 353.361 365.105 353.859 365.229 354.328C365.353 354.79 365.538 355.201 365.786 355.559C366.039 355.917 366.355 356.2 366.733 356.408C367.11 356.61 367.55 356.711 368.051 356.711C368.546 356.711 368.979 356.61 369.35 356.408C369.728 356.2 370.04 355.917 370.288 355.559C370.535 355.201 370.72 354.79 370.844 354.328C370.974 353.859 371.039 353.361 371.039 352.834V352.609C371.039 352.089 370.974 351.597 370.844 351.135C370.72 350.666 370.532 350.253 370.278 349.895C370.03 349.53 369.718 349.243 369.34 349.035C368.969 348.827 368.533 348.723 368.032 348.723C367.537 348.723 367.101 348.827 366.723 349.035C366.352 349.243 366.039 349.53 365.786 349.895C365.538 350.253 365.353 350.666 365.229 351.135C365.105 351.597 365.043 352.089 365.043 352.609ZM377.028 349.094V358H375.221V347.434H376.979L377.028 349.094ZM380.329 347.375L380.319 349.055C380.169 349.022 380.026 349.003 379.889 348.996C379.759 348.983 379.61 348.977 379.44 348.977C379.024 348.977 378.656 349.042 378.337 349.172C378.018 349.302 377.748 349.484 377.526 349.719C377.305 349.953 377.129 350.233 376.999 350.559C376.875 350.878 376.794 351.229 376.755 351.613L376.247 351.906C376.247 351.268 376.309 350.669 376.432 350.109C376.563 349.549 376.761 349.055 377.028 348.625C377.295 348.189 377.634 347.85 378.044 347.609C378.46 347.362 378.955 347.238 379.528 347.238C379.658 347.238 379.808 347.255 379.977 347.287C380.147 347.313 380.264 347.342 380.329 347.375ZM383.896 349.533V358H382.079V347.434H383.798L383.896 349.533ZM383.525 352.316L382.685 352.287C382.691 351.564 382.786 350.897 382.968 350.285C383.15 349.667 383.42 349.13 383.779 348.674C384.137 348.218 384.583 347.867 385.116 347.619C385.65 347.365 386.269 347.238 386.972 347.238C387.467 347.238 387.922 347.31 388.339 347.453C388.756 347.59 389.117 347.808 389.423 348.107C389.729 348.407 389.967 348.791 390.136 349.26C390.305 349.729 390.39 350.295 390.39 350.959V358H388.583V351.047C388.583 350.493 388.489 350.051 388.3 349.719C388.118 349.387 387.857 349.146 387.519 348.996C387.18 348.84 386.783 348.762 386.327 348.762C385.794 348.762 385.348 348.856 384.989 349.045C384.631 349.234 384.345 349.494 384.13 349.826C383.915 350.158 383.759 350.539 383.661 350.969C383.57 351.392 383.525 351.841 383.525 352.316ZM390.37 351.32L389.159 351.691C389.166 351.112 389.26 350.555 389.443 350.021C389.631 349.488 389.902 349.012 390.253 348.596C390.611 348.179 391.051 347.85 391.572 347.609C392.092 347.362 392.688 347.238 393.359 347.238C393.925 347.238 394.426 347.313 394.863 347.463C395.305 347.613 395.676 347.844 395.976 348.156C396.282 348.462 396.513 348.856 396.669 349.338C396.825 349.82 396.904 350.393 396.904 351.057V358H395.087V351.037C395.087 350.445 394.993 349.986 394.804 349.66C394.622 349.328 394.361 349.097 394.023 348.967C393.691 348.83 393.294 348.762 392.831 348.762C392.434 348.762 392.083 348.83 391.777 348.967C391.471 349.104 391.213 349.292 391.005 349.533C390.797 349.768 390.637 350.038 390.527 350.344C390.422 350.65 390.37 350.975 390.37 351.32ZM401.886 343.781L401.759 353.986H400.129L399.992 343.781H401.886ZM399.933 357.092C399.933 356.799 400.021 356.551 400.197 356.35C400.379 356.148 400.646 356.047 400.998 356.047C401.343 356.047 401.606 356.148 401.789 356.35C401.977 356.551 402.072 356.799 402.072 357.092C402.072 357.372 401.977 357.613 401.789 357.814C401.606 358.016 401.343 358.117 400.998 358.117C400.646 358.117 400.379 358.016 400.197 357.814C400.021 357.613 399.933 357.372 399.933 357.092Z" fill="#0F1E3A"/>
<defs>
<clipPath id="clip0_1_130">
<rect width="367.033" height="274" fill="white" transform="translate(70)"/>
</clipPath>
</defs>
</svg>
